<svg version="1.1" id="Layer_1" xmlns="http://www.w3.org/2000/svg" xmlns:xlink="http://www.w3.org/1999/xlink" x="0px" y="0px"
	 width="100%" viewBox="0 0 804 441" enable-background="new 0 0 804 441" xml:space="preserve">
<path fill="#DC4A43" opacity="1.000000" stroke="none" 
	d="
M617.000000,442.000000 
	C411.333344,442.000000 206.166672,442.000000 1.000000,442.000000 
	C1.000000,295.000000 1.000000,148.000000 1.000000,1.000000 
	C269.000000,1.000000 537.000000,1.000000 805.000000,1.000000 
	C805.000000,148.000000 805.000000,295.000000 805.000000,442.000000 
	C742.500000,442.000000 680.000000,442.000000 617.000000,442.000000 
M150.596313,387.866699 
	C157.005630,398.051758 166.304489,404.404480 178.047943,405.881470 
	C200.838882,408.747986 217.335510,397.275177 223.995026,375.167206 
	C224.401993,373.816162 226.444046,372.127563 227.828018,372.028320 
	C242.921219,370.945923 242.927612,371.023712 242.450150,355.871429 
	C242.423920,355.039276 242.394669,354.205597 242.319565,353.376892 
	C241.628326,345.750824 237.000122,340.033020 229.636688,337.743622 
	C228.089935,337.262726 226.508835,336.892273 225.089386,336.510193 
	C224.916168,335.904022 224.782196,335.589691 224.739395,335.263428 
	C220.155823,300.322205 202.056793,275.601105 169.388504,261.776459 
	C168.246918,261.293335 167.222641,259.458923 166.974869,258.102478 
	C164.226227,243.055908 152.975082,233.000671 138.496460,232.852661 
	C124.016991,232.704620 112.849266,242.396210 109.602959,257.573700 
	C109.235085,259.293610 107.612549,261.402893 106.027603,262.107605 
	C74.685341,276.042603 56.587811,299.841614 51.881886,333.862549 
	C51.718498,335.043701 50.319321,336.648804 49.169559,337.006439 
	C38.067905,340.459686 34.040073,345.730957 33.997723,357.352112 
	C33.989223,359.684052 33.948528,362.017395 34.011505,364.347717 
	C34.160290,369.853210 36.046295,371.946930 41.599094,371.788055 
	C45.108677,371.687622 46.390450,372.796814 47.153328,376.281616 
	C51.841522,397.697083 76.192337,411.533356 97.176338,404.933350 
	C112.019218,400.264862 121.504814,390.529541 125.375648,375.348755 
	C125.705887,374.053650 127.100716,372.115662 128.095276,372.056305 
	C133.529831,371.731934 138.993912,371.901825 143.616852,371.901825 
	C146.033188,377.563019 148.103836,382.414276 150.596313,387.866699 
M339.480530,216.031021 
	C323.154236,207.724976 305.891418,203.845566 287.517365,203.910370 
	C231.524002,204.107895 175.529495,203.984833 119.535439,203.978668 
	C117.370132,203.978424 115.191635,204.035629 113.041695,203.830780 
	C99.001945,202.493088 89.506836,189.297821 92.689499,175.624496 
	C95.403976,163.962616 104.458733,157.634048 118.508331,157.632614 
	C187.334351,157.625626 256.160370,157.629379 324.986389,157.627686 
	C332.410797,157.627502 335.110046,155.998917 334.987732,151.612900 
	C334.876160,147.611771 332.023193,145.983932 325.080353,145.983871 
	C256.420959,145.983398 187.761597,145.985153 119.102219,145.987228 
	C117.769073,145.987259 116.435005,145.968460 115.102928,146.009399 
	C95.721886,146.605133 80.998222,161.108444 80.353470,180.229080 
	C79.757484,197.903458 93.461807,213.254150 112.090393,215.052643 
	C120.351494,215.850204 128.725815,215.589828 137.049210,215.608765 
	C190.208405,215.729660 243.384094,215.001419 296.522461,216.098770 
	C350.767029,217.218948 391.383881,271.046051 379.320587,323.972809 
	C369.609497,366.579376 334.494476,394.647888 290.326660,394.966064 
	C271.829559,395.099304 253.330688,394.967529 234.832764,395.010590 
	C232.859314,395.015198 230.424454,394.744171 229.030685,395.748596 
	C227.286484,397.005646 225.274048,399.564850 225.456375,401.349609 
	C225.638550,403.133087 228.278442,404.789856 230.067734,406.217987 
	C230.702454,406.724609 232.004547,406.440338 233.001999,406.440613 
	C252.333267,406.445679 271.665405,406.553711 290.995575,406.406219 
	C314.731659,406.225128 335.932587,398.968964 354.852814,384.312744 
	C384.522522,361.329620 399.520996,318.603729 390.306061,282.354523 
	C382.891693,253.188248 366.249542,231.223160 339.480530,216.031021 
M626.998291,104.434448 
	C625.145203,95.027443 625.223511,95.584557 616.394409,96.346886 
	C615.567261,96.418304 614.720642,96.456055 613.898865,96.365517 
	C609.706726,95.903702 608.103821,97.728607 607.649109,101.957024 
	C604.713684,129.253174 601.654663,156.537552 598.385010,183.795670 
	C596.558594,199.022400 596.819946,199.490646 612.307129,198.035233 
	C612.789673,197.989868 613.254944,197.760132 613.990723,197.536621 
	C615.880981,182.862701 617.782043,168.104950 619.683044,153.347183 
	C620.267151,153.350296 620.851257,153.353409 621.435303,153.356506 
	C622.065125,155.016418 622.840942,156.636978 623.300598,158.342743 
	C625.894653,167.968567 628.360229,177.629150 630.969604,187.250763 
	C634.607239,200.663940 631.470398,197.555664 644.685181,198.033371 
	C647.529724,198.136200 648.695618,197.160522 649.318237,194.252686 
	C651.685425,183.197647 654.351379,172.205200 657.017029,161.216354 
	C657.684082,158.466217 658.766846,155.816895 659.658508,153.121231 
	C660.192566,153.174911 660.726624,153.228592 661.260681,153.282272 
	C662.842224,164.755127 664.557678,176.211578 665.965576,187.705704 
	C667.225830,197.993225 667.076233,198.011566 677.067383,198.000366 
	C685.142334,197.991302 684.795105,198.025162 683.675232,189.821976 
	C679.940491,162.463608 676.297546,135.089508 673.015381,107.674026 
	C671.628601,96.090492 672.073059,96.245247 660.407837,96.025604 
	C656.064148,95.943802 654.663086,97.759018 653.911377,101.590492 
	C651.734924,112.683678 649.410217,123.752083 646.882874,134.770370 
	C645.464600,140.953201 643.530029,147.017578 641.828125,153.135330 
	C641.233276,153.091125 640.638489,153.046936 640.043640,153.002731 
	C633.745605,137.660110 630.977966,121.305519 626.998291,104.434448 
M758.129395,189.643341 
	C761.263000,185.397247 765.373169,181.560989 767.357422,176.832596 
	C775.050293,158.500854 775.592529,139.510315 769.479858,120.688194 
	C764.633545,105.765457 748.869263,95.352379 734.145020,96.139580 
	C719.072449,96.945396 705.013367,108.581535 701.059998,123.743141 
	C696.934875,139.563477 697.533081,155.235794 701.785645,171.067673 
	C707.743408,193.247803 734.955139,208.280228 758.129395,189.643341 
M566.074951,113.284950 
	C565.739136,111.657310 565.358398,110.037460 565.074707,108.400780 
	C562.995728,96.404388 563.001892,96.401894 550.967102,96.328590 
	C549.161499,96.317596 547.355713,96.327065 545.170105,96.327065 
	C537.805176,129.787445 530.472656,163.100357 522.960571,197.229141 
	C527.834229,197.229141 531.631348,197.029999 535.397583,197.285507 
	C539.116516,197.537796 540.672791,195.993011 541.470703,192.424088 
	C543.632324,182.755356 543.774719,182.783737 554.033813,182.994934 
	C555.197388,183.018875 556.382629,183.284592 557.518372,183.136154 
	C562.239197,182.519226 564.505310,184.604126 565.368225,189.222626 
	C565.865112,191.882111 567.022949,196.249588 568.532104,196.546127 
	C573.115601,197.446762 578.014954,196.739990 582.791260,196.659225 
	C582.550049,193.662933 582.356689,190.661636 582.043701,187.672867 
	C581.923401,186.524399 581.508545,185.409164 581.264893,184.270874 
	C576.257996,160.883881 571.256348,137.495773 566.074951,113.284950 
M404.609589,82.335686 
	C402.892609,49.979912 376.659241,30.299034 345.388763,37.906811 
	C321.254120,43.778522 305.966492,71.420456 314.514832,94.624962 
	C322.929657,117.467140 337.939026,136.250473 353.210327,154.747940 
	C356.499329,158.731781 360.341827,158.391891 363.711060,154.109360 
	C371.009796,144.832184 378.479156,135.640884 385.078796,125.873940 
	C393.914825,112.797279 402.766846,99.559196 404.609589,82.335686 
M486.198669,169.666656 
	C485.905212,159.238663 486.841949,149.106567 492.518402,139.904831 
	C494.075989,137.379974 495.026123,134.475021 496.205719,131.723343 
	C500.398468,121.942841 504.687775,112.201149 508.697601,102.345917 
	C510.578247,97.723732 509.504822,96.422623 504.480316,96.141937 
	C494.390411,95.578285 493.897125,95.864937 489.772614,104.976807 
	C488.744812,107.247444 487.821869,109.565399 486.805023,111.841171 
	C483.785889,118.598160 480.743927,125.344948 477.188538,133.258347 
	C475.831757,130.627335 474.916626,129.131210 474.259338,127.529305 
	C471.607300,121.065842 468.970795,114.594551 466.446747,108.080383 
	C461.703186,95.838135 461.737244,95.825005 448.653656,96.411476 
	C448.487335,96.418930 448.320496,96.415878 448.153900,96.416634 
	C444.062866,96.435104 443.159943,98.399612 444.835541,101.895584 
	C447.280640,106.997047 449.767456,112.078598 452.200043,117.185989 
	C468.843109,152.129761 468.840088,152.131210 468.828156,186.115540 
	C468.823608,199.076401 468.819031,198.951096 481.643494,198.486374 
	C485.263672,198.355179 486.103882,196.915085 486.051270,193.617126 
	C485.929077,185.958298 486.129395,178.294312 486.198669,169.666656 
M449.631866,319.947296 
	C451.445221,327.377533 453.257050,334.808167 455.072357,342.237915 
	C456.695526,348.881287 457.613373,349.365417 464.676392,347.352844 
	C466.298859,340.170349 467.916351,333.009796 469.533844,325.849243 
	C471.479065,327.427887 472.408722,329.098724 472.859314,330.890015 
	C473.913849,335.082489 474.943604,339.301666 475.590820,343.569550 
	C476.097443,346.910248 477.259094,348.360687 480.996582,348.309875 
	C484.615753,348.260681 485.465515,346.525879 485.991333,343.626556 
	C486.643707,340.029572 487.439453,336.450378 488.357880,332.911377 
	C491.239288,321.808289 494.062469,310.686249 497.215973,299.659546 
	C498.413422,295.472534 497.218018,294.381958 493.107361,294.285461 
	C489.198242,294.193726 487.866302,296.081696 487.105988,299.403748 
	C485.623016,305.882965 483.962708,312.322357 482.312653,318.762024 
	C482.019745,319.905182 481.421051,320.969971 480.963562,322.070953 
	C478.774994,314.196686 477.291351,306.524353 476.244080,298.792908 
	C475.784668,295.401062 474.354797,294.504150 471.087402,294.306641 
	C467.180450,294.070435 465.804657,295.604309 465.232300,299.195251 
	C464.008636,306.872498 462.468140,314.499207 461.057404,322.146637 
	C459.961670,321.405121 459.680054,320.801910 459.527893,320.167603 
	C457.744110,312.731873 455.817993,305.325043 454.266083,297.840759 
	C453.198303,292.691406 449.189392,294.114014 446.325867,294.335327 
	C442.496948,294.631256 444.332764,297.705872 444.787567,299.738159 
	C446.240417,306.229980 447.824371,312.692444 449.631866,319.947296 
M576.810181,297.602417 
	C571.179504,293.219513 564.553833,294.285065 558.122681,294.091675 
	C554.572937,293.984924 553.415222,295.753571 553.416016,298.927643 
	C553.419678,313.874420 553.347473,328.821777 553.491821,343.767059 
	C553.504150,345.048798 554.619507,347.035492 555.710815,347.470978 
	C561.319763,349.709290 575.916931,345.653961 579.953430,341.364624 
	C589.228394,331.508667 588.375671,305.277222 576.810181,297.602417 
M696.739014,221.666702 
	C690.442932,216.874069 683.137390,218.052429 676.057434,218.431824 
	C675.079529,218.484253 673.437012,220.673798 673.418823,221.893585 
	C673.188049,237.367310 673.151733,252.844910 673.244019,268.320465 
	C673.250793,269.451813 674.394165,271.215271 675.415955,271.597717 
	C681.892395,274.021729 696.462219,269.542877 700.717163,264.359131 
	C708.745239,254.578415 708.193970,229.499680 696.739014,221.666702 
M646.670410,252.923248 
	C648.954651,257.540009 651.300171,262.127686 653.508240,266.780609 
	C656.516357,273.119598 658.642822,273.964844 666.262329,271.285645 
	C663.809204,266.345703 661.658203,261.287445 658.872192,256.607086 
	C656.048950,251.864059 655.236572,248.343277 660.081177,243.906128 
	C665.121094,239.290039 664.663818,232.751450 662.094177,226.687958 
	C659.595337,220.791641 654.775635,218.338058 648.533081,218.369781 
	C646.200195,218.381638 643.853760,218.551132 641.537415,218.359283 
	C637.535645,218.027832 636.392700,219.829803 636.435547,223.652939 
	C636.601501,238.475266 636.500732,253.300491 636.531067,268.124573 
	C636.533752,269.407928 636.769775,270.690826 636.914185,272.142395 
	C639.767578,272.142395 642.331726,272.142395 645.932007,272.142395 
	C645.932007,265.581177 645.932007,259.317932 646.670410,252.923248 
M773.050049,346.613647 
	C770.323059,340.932434 767.860718,335.101959 764.771179,329.625275 
	C762.879700,326.272552 763.110840,324.327057 766.036377,321.682831 
	C771.757324,316.511963 772.413086,309.885437 769.567627,302.963745 
	C766.868469,296.397919 761.494385,294.105591 754.718689,294.370239 
	C752.726379,294.448059 750.712280,294.557007 748.737183,294.360382 
	C744.983887,293.986694 743.883484,295.563782 743.925842,299.244537 
	C744.097778,314.206451 743.984375,329.171478 744.005493,344.135345 
	C744.007263,345.403534 744.226440,346.671387 744.390625,348.432495 
	C747.383850,348.301758 750.065125,348.184631 753.142212,348.050232 
	C753.142212,341.184845 753.142212,334.988251 753.142212,328.791687 
	C756.403992,333.404327 758.800049,338.221191 761.045837,343.107147 
	C763.790710,349.079346 766.086426,349.952911 773.050049,346.613647 
M743.987854,224.716812 
	C743.987854,240.459763 743.987854,256.202728 743.987854,271.979828 
	C747.254272,271.979828 749.948120,271.979828 753.130493,271.979828 
	C753.130493,265.312744 753.130493,259.121613 753.130493,252.930481 
	C756.233948,257.150146 758.427490,261.553589 760.507874,266.009888 
	C763.928406,273.337219 764.771851,273.753967 772.947632,271.677216 
	C772.947632,271.212036 773.109802,270.654755 772.923279,270.263855 
	C770.273132,264.709167 767.833130,259.030487 764.795288,253.693115 
	C762.903137,250.368790 763.119690,248.397003 765.992676,245.714569 
	C771.542786,240.532715 772.593079,233.746094 769.599060,226.960068 
	C766.735657,220.470154 761.454407,218.110474 754.669739,218.367264 
	C752.840149,218.436508 750.983398,218.566574 749.178406,218.346481 
	C744.907776,217.825729 743.392822,219.742905 743.987854,224.716812 
M533.116821,225.713043 
	C533.355164,237.191116 533.191284,248.696960 533.980591,260.137024 
	C534.464600,267.151520 538.605164,270.947693 544.753784,272.187683 
	C555.730530,274.401337 563.178711,268.975220 563.742676,257.674042 
	C564.273621,247.034805 564.134338,236.360306 564.208313,225.700729 
	C564.261780,217.993607 562.956726,217.093140 554.982422,219.449844 
	C554.982422,229.295410 555.039612,239.271103 554.943970,249.245331 
	C554.918701,251.884842 554.634277,254.564484 554.089783,257.145691 
	C553.394592,260.440521 551.799988,263.341553 547.803162,262.896271 
	C544.063171,262.479614 543.146667,259.387482 543.030334,256.265961 
	C542.801086,250.114380 542.808472,243.953049 542.772339,237.795441 
	C542.735535,231.527405 542.764221,225.258987 542.764221,219.057175 
	C534.368103,217.424271 533.228516,218.129517 533.116821,225.713043 
M487.320221,255.949280 
	C487.523590,256.583160 487.725220,257.217651 487.930664,257.850861 
	C490.882172,266.950470 497.647583,272.412323 505.986755,272.428558 
	C514.234253,272.444611 521.752930,267.083862 523.797791,257.759705 
	C525.329529,250.774963 525.516235,243.256317 524.898315,236.096542 
	C524.029541,226.030350 515.661011,218.687103 506.344086,218.348465 
	C497.314606,218.020248 488.476807,225.276443 487.143585,235.333984 
	C486.283539,241.822189 487.078705,248.529800 487.320221,255.949280 
M592.149414,260.182953 
	C596.027649,268.432526 602.664062,272.886597 610.383423,272.420868 
	C618.287231,271.944000 625.394714,266.546448 627.200684,257.765137 
	C628.648987,250.722366 629.234131,243.185059 628.424072,236.069687 
	C627.228821,225.571045 618.540039,218.336655 609.255127,218.347061 
	C599.869568,218.357574 591.779053,226.113434 590.082153,236.784698 
	C588.858887,244.477432 589.247070,252.053650 592.149414,260.182953 
M684.271057,312.107239 
	C683.498230,308.533325 682.728455,304.958740 681.952026,301.385620 
	C680.279846,293.691101 679.717590,293.349762 670.994202,295.080444 
	C671.183716,296.478699 671.240601,297.941376 671.591919,299.329559 
	C675.383789,314.312622 679.302002,329.264374 682.983459,344.274292 
	C683.763672,347.455322 685.216675,348.445740 688.451660,348.548004 
	C692.022278,348.660889 693.338196,347.314117 694.144958,344.024902 
	C697.746765,329.340759 701.609070,314.720703 705.305969,300.059540 
	C705.814331,298.043457 707.715332,295.109131 703.905762,294.552246 
	C700.856628,294.106537 696.993103,293.154175 695.947449,298.068207 
	C695.048584,302.292572 693.935425,306.470978 692.944519,310.676208 
	C691.621216,316.291687 690.324524,321.913483 689.016296,327.532532 
	C688.630432,327.494080 688.244507,327.455658 687.858643,327.417206 
	C686.741760,322.582397 685.624878,317.747589 684.271057,312.107239 
M731.241821,218.008148 
	C726.743042,218.042191 722.241577,218.182510 717.746460,218.070190 
	C715.074707,218.003418 713.725708,218.817383 713.721313,221.704132 
	C713.697693,237.022171 713.566650,252.340012 713.520203,267.658081 
	C713.511780,270.435364 714.879211,271.943024 717.838440,271.899597 
	C722.670227,271.828674 727.504028,271.843536 732.336426,271.889435 
	C735.557190,271.920013 736.742798,270.320709 736.685974,267.214996 
	C736.629028,264.108276 736.363159,261.454865 732.266113,261.563690 
	C729.337036,261.641449 726.404236,261.578766 723.602966,261.578766 
	C721.712646,248.509979 721.796631,248.195633 732.265747,247.716492 
	C736.440979,247.525391 736.113953,244.960312 736.159241,242.288498 
	C736.205444,239.564758 735.456421,237.854202 732.087036,238.260483 
	C729.204712,238.608017 726.247253,238.332413 723.439819,238.332413 
	C722.338135,227.446457 722.338745,227.470688 731.956909,227.216736 
	C734.140747,227.159088 737.077759,227.940002 736.696899,224.032547 
	C736.414185,221.131531 737.597168,217.061401 731.241821,218.008148 
M612.179016,294.011047 
	C607.846741,294.046204 603.494934,294.350647 599.187744,294.038818 
	C595.098938,293.742798 593.624207,295.027008 593.680847,299.267151 
	C593.820984,309.757538 593.302673,320.256470 593.430969,330.747284 
	C593.683411,351.379730 590.633179,347.381317 611.526855,347.882629 
	C612.024292,347.894562 612.524353,347.829071 613.022156,347.787140 
	C616.320068,347.509460 616.940430,345.455109 616.837036,342.546143 
	C616.735535,339.689514 616.184448,337.567413 612.756226,337.592438 
	C609.658630,337.615082 606.560791,337.597260 602.797485,337.597260 
	C603.094604,332.657623 602.551941,328.260651 603.997437,324.662262 
	C604.529541,323.337738 609.755432,323.898651 612.840393,323.599884 
	C613.006287,323.583832 613.173767,323.579468 613.338257,323.554749 
	C617.153564,322.981689 616.397278,319.874847 616.013977,317.699219 
	C615.781860,316.381714 613.919678,314.609497 612.565430,314.382965 
	C609.567810,313.881592 606.428589,314.226898 603.461182,314.226898 
	C602.297668,303.432373 602.297668,303.432281 612.150391,303.233002 
	C612.316895,303.229645 612.483826,303.232819 612.650330,303.238373 
	C614.992188,303.316650 617.218994,303.137421 616.840759,299.915771 
	C616.544922,297.396332 617.878052,293.719635 612.179016,294.011047 
M731.260620,294.050751 
	C726.772156,294.071960 722.277527,294.244598 717.797363,294.062500 
	C714.678589,293.935760 713.713684,295.262878 713.748474,298.174652 
	C713.812073,303.490204 713.605713,308.808380 713.602539,314.125488 
	C713.596680,323.924500 713.732605,333.724274 713.643677,343.522217 
	C713.615845,346.584869 715.055359,347.700745 717.812744,347.731384 
	C722.630676,347.784851 727.449463,347.877441 732.266846,347.836029 
	C735.878235,347.804993 737.023499,345.842743 736.875305,342.307526 
	C736.733337,338.919464 735.461731,337.426453 732.074951,337.555206 
	C729.173462,337.665497 726.264526,337.578033 723.355469,337.578033 
	C723.355469,332.665710 722.421936,328.341095 723.792664,324.947083 
	C724.380798,323.490814 729.748047,323.845276 732.960938,323.599121 
	C736.856140,323.300720 736.118164,320.449524 736.182739,318.070312 
	C736.248840,315.635315 735.666321,313.890076 732.505066,314.179504 
	C729.462585,314.458038 726.374695,314.239746 723.413879,314.239746 
	C722.395020,303.495544 722.394287,303.462830 732.192322,303.252258 
	C734.848938,303.195160 737.246643,303.293549 736.912415,299.420502 
	C736.643677,296.305237 736.865356,293.126740 731.260620,294.050751 
M514.686890,334.428223 
	C514.837769,330.985229 514.988586,327.542267 515.160889,323.609711 
	C518.371887,323.609711 521.172791,323.571686 523.972351,323.618774 
	C527.997742,323.686401 527.826111,320.910461 527.861633,318.128723 
	C527.899353,315.174652 526.742859,313.895508 523.635498,314.186371 
	C520.887817,314.443542 518.096924,314.240234 515.125549,314.240234 
	C515.125549,310.394836 515.125549,307.160339 515.125549,303.516876 
	C519.623169,303.316833 523.701904,303.135437 527.826111,302.952026 
	C527.826111,299.779419 527.826111,297.057037 527.826111,294.138947 
	C521.113953,294.138947 514.790039,293.939362 508.500427,294.315216 
	C507.309143,294.386414 505.302277,296.727020 505.282166,298.045105 
	C505.050964,313.198547 505.179718,328.356995 505.087738,343.513367 
	C505.068939,346.613464 506.588745,347.670471 509.329865,347.714478 
	C513.658325,347.783966 517.987244,347.822296 522.315674,347.891357 
	C525.831848,347.947449 528.328674,347.397034 528.360535,342.759155 
	C528.394165,337.854980 525.829407,337.558533 522.056641,337.419342 
	C519.592163,337.328461 517.169189,336.116180 514.686890,334.428223 
M473.719849,218.382111 
	C472.022705,219.649719 469.670105,220.561920 468.753357,222.252655 
	C466.173035,227.011429 464.183380,232.090485 461.861877,237.263794 
	C461.124451,236.486176 460.642120,236.185150 460.464081,235.757431 
	C458.804749,231.771835 457.150085,227.782990 455.586792,223.759048 
	C453.311707,217.903030 450.031799,216.711334 443.653534,219.997009 
	C451.885834,236.215240 460.971039,252.356491 456.237183,272.095764 
	C460.241364,272.095764 462.956848,272.095764 466.853668,272.095764 
	C462.711151,252.629822 471.767761,236.388565 479.602386,219.175552 
	C477.291992,218.814621 475.895630,218.596481 473.719849,218.382111 
M633.175476,332.486267 
	C633.175476,319.943268 633.175476,307.400299 633.175476,294.983856 
	C624.005310,293.708923 624.002319,293.708923 623.996582,301.953491 
	C623.991089,309.930603 623.992065,317.907745 623.991211,325.884857 
	C623.990479,333.145508 623.991089,340.406189 623.991089,347.806458 
	C631.866455,347.806458 638.900452,347.806458 646.517151,347.806458 
	C646.298218,344.725372 646.107666,342.044067 645.879639,338.835266 
	C641.485168,338.835266 637.588806,338.835266 633.436096,338.835266 
	C633.332153,336.665894 633.254028,335.036346 633.175476,332.486267 
M663.485291,346.929962 
	C663.382324,330.633636 663.207458,314.337189 663.226501,298.041016 
	C663.231323,293.908630 660.653564,294.282745 657.908142,294.086487 
	C654.414734,293.836823 653.735291,295.557007 653.746765,298.591980 
	C653.775574,306.245758 653.504883,313.900116 653.452454,321.554901 
	C653.392517,330.311005 653.438599,339.067780 653.438599,348.365234 
	C657.389893,348.073151 660.162903,347.868164 663.485291,346.929962 
z"/>
<path fill="#FCF9F8" opacity="1.000000" stroke="none" 
	d="
M150.385406,387.566101 
	C148.103836,382.414276 146.033188,377.563019 143.616852,371.901825 
	C138.993912,371.901825 133.529831,371.731934 128.095276,372.056305 
	C127.100716,372.115662 125.705887,374.053650 125.375648,375.348755 
	C121.504814,390.529541 112.019218,400.264862 97.176338,404.933350 
	C76.192337,411.533356 51.841522,397.697083 47.153328,376.281616 
	C46.390450,372.796814 45.108677,371.687622 41.599094,371.788055 
	C36.046295,371.946930 34.160290,369.853210 34.011505,364.347717 
	C33.948528,362.017395 33.989223,359.684052 33.997723,357.352112 
	C34.040073,345.730957 38.067905,340.459686 49.169559,337.006439 
	C50.319321,336.648804 51.718498,335.043701 51.881886,333.862549 
	C56.587811,299.841614 74.685341,276.042603 106.027603,262.107605 
	C107.612549,261.402893 109.235085,259.293610 109.602959,257.573700 
	C112.849266,242.396210 124.016991,232.704620 138.496460,232.852661 
	C152.975082,233.000671 164.226227,243.055908 166.974869,258.102478 
	C167.222641,259.458923 168.246918,261.293335 169.388504,261.776459 
	C202.056793,275.601105 220.155823,300.322205 224.739395,335.263428 
	C224.782196,335.589691 224.916168,335.904022 225.089386,336.510193 
	C226.508835,336.892273 228.089935,337.262726 229.636688,337.743622 
	C237.000122,340.033020 241.628326,345.750824 242.319565,353.376892 
	C242.394669,354.205597 242.423920,355.039276 242.450150,355.871429 
	C242.927612,371.023712 242.921219,370.945923 227.828018,372.028320 
	C226.444046,372.127563 224.401993,373.816162 223.995026,375.167206 
	C217.335510,397.275177 200.838882,408.747986 178.047943,405.881470 
	C166.304489,404.404480 157.005630,398.051758 150.385406,387.566101 
M77.286598,298.850677 
	C69.354691,310.207642 64.403610,322.629333 63.410141,336.597107 
	C113.474236,336.597107 163.145920,336.597107 213.186249,336.597107 
	C210.818192,314.902710 201.485077,297.504578 184.975342,284.018646 
	C155.014069,259.544952 104.789909,261.592834 77.286598,298.850677 
M109.499947,360.131409 
	C149.912399,360.131409 190.324844,360.131409 230.687897,360.131409 
	C231.248505,350.326233 229.803787,348.800171 220.797424,348.800903 
	C165.653961,348.805481 110.510506,348.803619 55.367050,348.810120 
	C46.553959,348.811188 44.786736,350.891052 46.240669,360.131409 
	C66.932289,360.131409 87.716118,360.131409 109.499947,360.131409 
M158.650177,378.779205 
	C165.251526,390.826691 176.815842,396.739166 189.234253,394.415833 
	C201.725143,392.078949 210.830658,383.332581 212.262329,372.296143 
	C207.353867,371.644745 207.360001,371.647766 205.235519,375.958740 
	C200.994949,384.563629 193.846451,389.015625 184.482285,388.994965 
	C175.113495,388.974274 167.811066,384.531708 163.901596,375.803314 
	C162.292664,372.211121 160.439651,370.907684 156.463760,372.480743 
	C157.077988,374.397003 157.677475,376.267365 158.650177,378.779205 
M106.811203,376.044220 
	C102.279938,384.619232 95.156593,389.276001 85.470039,388.956482 
	C75.853783,388.639282 68.664940,383.906189 65.026054,374.835083 
	C63.484859,370.993103 61.095253,371.678406 58.287155,372.251862 
	C60.489155,385.145752 72.547554,394.969666 86.036034,394.977264 
	C99.623611,394.984894 111.709778,385.212982 113.875114,372.324127 
	C110.751358,371.420685 107.990929,371.145599 106.811203,376.044220 
M152.881134,252.627014 
	C147.157455,245.448135 140.481339,243.045273 132.909073,245.438690 
	C126.856316,247.351822 122.943695,251.713593 122.571632,256.720764 
	C133.176849,256.720764 143.800186,256.720764 154.691818,256.720764 
	C154.203125,255.612000 153.687332,254.441757 152.881134,252.627014 
M87.945000,377.522430 
	C90.464012,376.120178 92.983032,374.717926 95.502052,373.315643 
	C95.271378,372.951813 95.040703,372.587952 94.810036,372.224121 
	C88.974838,372.224121 83.139648,372.224121 76.560188,372.224121 
	C79.602348,376.263702 82.981049,377.777496 87.945000,377.522430 
M185.427856,371.851349 
	C182.142426,371.851349 178.856995,371.851349 174.632660,371.851349 
	C181.811798,379.655334 189.595459,379.350983 193.401718,371.847107 
	C190.925644,371.847107 188.639709,371.847107 185.427856,371.851349 
z"/>
<path fill="#FCF8F7" opacity="1.000000" stroke="none" 
	d="
M339.809937,216.196716 
	C366.249542,231.223160 382.891693,253.188248 390.306061,282.354523 
	C399.520996,318.603729 384.522522,361.329620 354.852814,384.312744 
	C335.932587,398.968964 314.731659,406.225128 290.995575,406.406219 
	C271.665405,406.553711 252.333267,406.445679 233.001999,406.440613 
	C232.004547,406.440338 230.702454,406.724609 230.067734,406.217987 
	C228.278442,404.789856 225.638550,403.133087 225.456375,401.349609 
	C225.274048,399.564850 227.286484,397.005646 229.030685,395.748596 
	C230.424454,394.744171 232.859314,395.015198 234.832764,395.010590 
	C253.330688,394.967529 271.829559,395.099304 290.326660,394.966064 
	C334.494476,394.647888 369.609497,366.579376 379.320587,323.972809 
	C391.383881,271.046051 350.767029,217.218948 296.522461,216.098770 
	C243.384094,215.001419 190.208405,215.729660 137.049210,215.608765 
	C128.725815,215.589828 120.351494,215.850204 112.090393,215.052643 
	C93.461807,213.254150 79.757484,197.903458 80.353470,180.229080 
	C80.998222,161.108444 95.721886,146.605133 115.102928,146.009399 
	C116.435005,145.968460 117.769073,145.987259 119.102219,145.987228 
	C187.761597,145.985153 256.420959,145.983398 325.080353,145.983871 
	C332.023193,145.983932 334.876160,147.611771 334.987732,151.612900 
	C335.110046,155.998917 332.410797,157.627502 324.986389,157.627686 
	C256.160370,157.629379 187.334351,157.625626 118.508331,157.632614 
	C104.458733,157.634048 95.403976,163.962616 92.689499,175.624496 
	C89.506836,189.297821 99.001945,202.493088 113.041695,203.830780 
	C115.191635,204.035629 117.370132,203.978424 119.535439,203.978668 
	C175.529495,203.984833 231.524002,204.107895 287.517365,203.910370 
	C305.891418,203.845566 323.154236,207.724976 339.809937,216.196716 
z"/>
<path fill="#FDFBFB" opacity="1.000000" stroke="none" 
	d="
M627.061401,104.848312 
	C630.977966,121.305519 633.745605,137.660110 640.043640,153.002731 
	C640.638489,153.046936 641.233276,153.091125 641.828125,153.135330 
	C643.530029,147.017578 645.464600,140.953201 646.882874,134.770370 
	C649.410217,123.752083 651.734924,112.683678 653.911377,101.590492 
	C654.663086,97.759018 656.064148,95.943802 660.407837,96.025604 
	C672.073059,96.245247 671.628601,96.090492 673.015381,107.674026 
	C676.297546,135.089508 679.940491,162.463608 683.675232,189.821976 
	C684.795105,198.025162 685.142334,197.991302 677.067383,198.000366 
	C667.076233,198.011566 667.225830,197.993225 665.965576,187.705704 
	C664.557678,176.211578 662.842224,164.755127 661.260681,153.282272 
	C660.726624,153.228592 660.192566,153.174911 659.658508,153.121231 
	C658.766846,155.816895 657.684082,158.466217 657.017029,161.216354 
	C654.351379,172.205200 651.685425,183.197647 649.318237,194.252686 
	C648.695618,197.160522 647.529724,198.136200 644.685181,198.033371 
	C631.470398,197.555664 634.607239,200.663940 630.969604,187.250763 
	C628.360229,177.629150 625.894653,167.968567 623.300598,158.342743 
	C622.840942,156.636978 622.065125,155.016418 621.435303,153.356506 
	C620.851257,153.353409 620.267151,153.350296 619.683044,153.347183 
	C617.782043,168.104950 615.880981,182.862701 613.990723,197.536621 
	C613.254944,197.760132 612.789673,197.989868 612.307129,198.035233 
	C596.819946,199.490646 596.558594,199.022400 598.385010,183.795670 
	C601.654663,156.537552 604.713684,129.253174 607.649109,101.957024 
	C608.103821,97.728607 609.706726,95.903702 613.898865,96.365517 
	C614.720642,96.456055 615.567261,96.418304 616.394409,96.346886 
	C625.223511,95.584557 625.145203,95.027443 627.061401,104.848312 
z"/>
<path fill="#FDFAF9" opacity="1.000000" stroke="none" 
	d="
M757.833496,189.849869 
	C734.955139,208.280228 707.743408,193.247803 701.785645,171.067673 
	C697.533081,155.235794 696.934875,139.563477 701.059998,123.743141 
	C705.013367,108.581535 719.072449,96.945396 734.145020,96.139580 
	C748.869263,95.352379 764.633545,105.765457 769.479858,120.688194 
	C775.592529,139.510315 775.050293,158.500854 767.357422,176.832596 
	C765.373169,181.560989 761.263000,185.397247 757.833496,189.849869 
M716.117432,163.139191 
	C716.618591,164.723297 717.041687,166.337265 717.633850,167.886597 
	C721.040039,176.798309 727.742004,181.977341 735.742798,181.937820 
	C743.883484,181.897598 750.708252,176.893280 753.872070,167.991882 
	C758.845337,153.999588 758.674011,139.820862 753.694946,125.923737 
	C750.694153,117.548187 745.466797,110.792145 735.506470,110.480667 
	C728.108459,110.249321 720.369385,117.261803 717.388672,126.844398 
	C713.766357,138.489624 713.053528,150.361847 716.117432,163.139191 
z"/>
<path fill="#FDFBFA" opacity="1.000000" stroke="none" 
	d="
M566.164307,113.696411 
	C571.256348,137.495773 576.257996,160.883881 581.264893,184.270874 
	C581.508545,185.409164 581.923401,186.524399 582.043701,187.672867 
	C582.356689,190.661636 582.550049,193.662933 582.791260,196.659225 
	C578.014954,196.739990 573.115601,197.446762 568.532104,196.546127 
	C567.022949,196.249588 565.865112,191.882111 565.368225,189.222626 
	C564.505310,184.604126 562.239197,182.519226 557.518372,183.136154 
	C556.382629,183.284592 555.197388,183.018875 554.033813,182.994934 
	C543.774719,182.783737 543.632324,182.755356 541.470703,192.424088 
	C540.672791,195.993011 539.116516,197.537796 535.397583,197.285507 
	C531.631348,197.029999 527.834229,197.229141 522.960571,197.229141 
	C530.472656,163.100357 537.805176,129.787445 545.170105,96.327065 
	C547.355713,96.327065 549.161499,96.317596 550.967102,96.328590 
	C563.001892,96.401894 562.995728,96.404388 565.074707,108.400780 
	C565.358398,110.037460 565.739136,111.657310 566.164307,113.696411 
M551.481812,166.147827 
	C554.173157,166.147827 556.864502,166.147827 560.092041,166.147827 
	C558.003662,156.568436 556.119995,147.927917 554.236328,139.287415 
	C551.200256,147.430496 549.265869,155.572037 547.625916,163.772400 
	C547.512573,164.339218 549.591980,165.344543 551.481812,166.147827 
z"/>
<path fill="#FCF9F7" opacity="1.000000" stroke="none" 
	d="
M404.582855,82.764618 
	C402.766846,99.559196 393.914825,112.797279 385.078796,125.873940 
	C378.479156,135.640884 371.009796,144.832184 363.711060,154.109360 
	C360.341827,158.391891 356.499329,158.731781 353.210327,154.747940 
	C337.939026,136.250473 322.929657,117.467140 314.514832,94.624962 
	C305.966492,71.420456 321.254120,43.778522 345.388763,37.906811 
	C376.659241,30.299034 402.892609,49.979912 404.582855,82.764618 
M328.246094,98.161499 
	C336.227173,114.144287 346.752136,128.380478 358.214508,142.605728 
	C370.393646,126.920998 382.103333,111.702324 390.121063,93.945236 
	C396.818176,79.112946 390.034729,64.714195 382.230682,57.403114 
	C371.313843,47.175919 355.473633,44.936020 342.929474,51.273876 
	C328.190979,58.720390 317.407684,77.770058 328.246094,98.161499 
z"/>
<path fill="#FDFBFA" opacity="1.000000" stroke="none" 
	d="
M486.198853,170.149536 
	C486.129395,178.294312 485.929077,185.958298 486.051270,193.617126 
	C486.103882,196.915085 485.263672,198.355179 481.643494,198.486374 
	C468.819031,198.951096 468.823608,199.076401 468.828156,186.115540 
	C468.840088,152.131210 468.843109,152.129761 452.200043,117.185989 
	C449.767456,112.078598 447.280640,106.997047 444.835541,101.895584 
	C443.159943,98.399612 444.062866,96.435104 448.153900,96.416634 
	C448.320496,96.415878 448.487335,96.418930 448.653656,96.411476 
	C461.737244,95.825005 461.703186,95.838135 466.446747,108.080383 
	C468.970795,114.594551 471.607300,121.065842 474.259338,127.529305 
	C474.916626,129.131210 475.831757,130.627335 477.188538,133.258347 
	C480.743927,125.344948 483.785889,118.598160 486.805023,111.841171 
	C487.821869,109.565399 488.744812,107.247444 489.772614,104.976807 
	C493.897125,95.864937 494.390411,95.578285 504.480316,96.141937 
	C509.504822,96.422623 510.578247,97.723732 508.697601,102.345917 
	C504.687775,112.201149 500.398468,121.942841 496.205719,131.723343 
	C495.026123,134.475021 494.075989,137.379974 492.518402,139.904831 
	C486.841949,149.106567 485.905212,159.238663 486.198853,170.149536 
z"/>
<path fill="#FCF8F7" opacity="1.000000" stroke="none" 
	d="
M449.494812,319.556763 
	C447.824371,312.692444 446.240417,306.229980 444.787567,299.738159 
	C444.332764,297.705872 442.496948,294.631256 446.325867,294.335327 
	C449.189392,294.114014 453.198303,292.691406 454.266083,297.840759 
	C455.817993,305.325043 457.744110,312.731873 459.527893,320.167603 
	C459.680054,320.801910 459.961670,321.405121 461.057404,322.146637 
	C462.468140,314.499207 464.008636,306.872498 465.232300,299.195251 
	C465.804657,295.604309 467.180450,294.070435 471.087402,294.306641 
	C474.354797,294.504150 475.784668,295.401062 476.244080,298.792908 
	C477.291351,306.524353 478.774994,314.196686 480.963562,322.070953 
	C481.421051,320.969971 482.019745,319.905182 482.312653,318.762024 
	C483.962708,312.322357 485.623016,305.882965 487.105988,299.403748 
	C487.866302,296.081696 489.198242,294.193726 493.107361,294.285461 
	C497.218018,294.381958 498.413422,295.472534 497.215973,299.659546 
	C494.062469,310.686249 491.239288,321.808289 488.357880,332.911377 
	C487.439453,336.450378 486.643707,340.029572 485.991333,343.626556 
	C485.465515,346.525879 484.615753,348.260681 480.996582,348.309875 
	C477.259094,348.360687 476.097443,346.910248 475.590820,343.569550 
	C474.943604,339.301666 473.913849,335.082489 472.859314,330.890015 
	C472.408722,329.098724 471.479065,327.427887 469.533844,325.849243 
	C467.916351,333.009796 466.298859,340.170349 464.676392,347.352844 
	C457.613373,349.365417 456.695526,348.881287 455.072357,342.237915 
	C453.257050,334.808167 451.445221,327.377533 449.494812,319.556763 
z"/>
<path fill="#FBF5F4" opacity="1.000000" stroke="none" 
	d="
M577.105957,297.817322 
	C588.375671,305.277222 589.228394,331.508667 579.953430,341.364624 
	C575.916931,345.653961 561.319763,349.709290 555.710815,347.470978 
	C554.619507,347.035492 553.504150,345.048798 553.491821,343.767059 
	C553.347473,328.821777 553.419678,313.874420 553.416016,298.927643 
	C553.415222,295.753571 554.572937,293.984924 558.122681,294.091675 
	C564.553833,294.285065 571.179504,293.219513 577.105957,297.817322 
M566.934082,338.870728 
	C569.560791,336.532928 573.350037,334.686951 574.587708,331.761475 
	C577.793030,324.185486 577.498474,316.177307 573.981079,308.575500 
	C571.916443,304.113312 568.201294,302.589966 562.899963,303.401794 
	C562.899963,314.481201 562.824951,325.409821 563.038940,336.332794 
	C563.056458,337.230347 565.039429,338.089386 566.934082,338.870728 
z"/>
<path fill="#FBF5F3" opacity="1.000000" stroke="none" 
	d="
M697.043945,221.869843 
	C708.193970,229.499680 708.745239,254.578415 700.717163,264.359131 
	C696.462219,269.542877 681.892395,274.021729 675.415955,271.597717 
	C674.394165,271.215271 673.250793,269.451813 673.244019,268.320465 
	C673.151733,252.844910 673.188049,237.367310 673.418823,221.893585 
	C673.437012,220.673798 675.079529,218.484253 676.057434,218.431824 
	C683.137390,218.052429 690.442932,216.874069 697.043945,221.869843 
M682.886292,242.504105 
	C682.886292,249.252594 682.886292,256.001068 682.886292,262.693115 
	C688.985474,263.024658 691.807312,261.807129 693.940186,257.024567 
	C697.640320,248.727631 697.479980,240.249527 693.510864,232.048599 
	C691.453003,227.796707 687.698669,226.669388 682.885925,227.365524 
	C682.885925,232.270233 682.885925,236.888229 682.886292,242.504105 
z"/>
<path fill="#FCFAF8" opacity="1.000000" stroke="none" 
	d="
M646.301208,252.988968 
	C645.932007,259.317932 645.932007,265.581177 645.932007,272.142395 
	C642.331726,272.142395 639.767578,272.142395 636.914185,272.142395 
	C636.769775,270.690826 636.533752,269.407928 636.531067,268.124573 
	C636.500732,253.300491 636.601501,238.475266 636.435547,223.652939 
	C636.392700,219.829803 637.535645,218.027832 641.537415,218.359283 
	C643.853760,218.551132 646.200195,218.381638 648.533081,218.369781 
	C654.775635,218.338058 659.595337,220.791641 662.094177,226.687958 
	C664.663818,232.751450 665.121094,239.290039 660.081177,243.906128 
	C655.236572,248.343277 656.048950,251.864059 658.872192,256.607086 
	C661.658203,261.287445 663.809204,266.345703 666.262329,271.285645 
	C658.642822,273.964844 656.516357,273.119598 653.508240,266.780609 
	C651.300171,262.127686 648.954651,257.540009 646.301208,252.988968 
M647.407471,243.720856 
	C652.171936,243.038254 654.655212,239.831757 654.261108,235.497711 
	C654.018921,232.834839 651.812744,230.211609 650.017761,227.942963 
	C649.646484,227.473633 645.897522,228.652649 645.898010,229.069565 
	C645.903320,233.903305 646.330200,238.736572 647.407471,243.720856 
z"/>
<path fill="#FCF8F7" opacity="1.000000" stroke="none" 
	d="
M773.035645,347.015198 
	C766.086426,349.952911 763.790710,349.079346 761.045837,343.107147 
	C758.800049,338.221191 756.403992,333.404327 753.142212,328.791687 
	C753.142212,334.988251 753.142212,341.184845 753.142212,348.050232 
	C750.065125,348.184631 747.383850,348.301758 744.390625,348.432495 
	C744.226440,346.671387 744.007263,345.403534 744.005493,344.135345 
	C743.984375,329.171478 744.097778,314.206451 743.925842,299.244537 
	C743.883484,295.563782 744.983887,293.986694 748.737183,294.360382 
	C750.712280,294.557007 752.726379,294.448059 754.718689,294.370239 
	C761.494385,294.105591 766.868469,296.397919 769.567627,302.963745 
	C772.413086,309.885437 771.757324,316.511963 766.036377,321.682831 
	C763.110840,324.327057 762.879700,326.272552 764.771179,329.625275 
	C767.860718,335.101959 770.323059,340.932434 773.035645,347.015198 
M761.106018,307.567230 
	C759.898682,306.324860 758.885437,304.527618 757.422546,304.015930 
	C756.255371,303.607574 753.305237,304.674194 753.262939,305.243408 
	C752.917053,309.897339 753.068054,314.588226 753.068054,319.303528 
	C760.162476,318.747925 762.309814,315.586273 761.106018,307.567230 
z"/>
<path fill="#FCF7F6" opacity="1.000000" stroke="none" 
	d="
M743.984924,224.245438 
	C743.392822,219.742905 744.907776,217.825729 749.178406,218.346481 
	C750.983398,218.566574 752.840149,218.436508 754.669739,218.367264 
	C761.454407,218.110474 766.735657,220.470154 769.599060,226.960068 
	C772.593079,233.746094 771.542786,240.532715 765.992676,245.714569 
	C763.119690,248.397003 762.903137,250.368790 764.795288,253.693115 
	C767.833130,259.030487 770.273132,264.709167 772.923279,270.263855 
	C773.109802,270.654755 772.947632,271.212036 772.947632,271.677216 
	C764.771851,273.753967 763.928406,273.337219 760.507874,266.009888 
	C758.427490,261.553589 756.233948,257.150146 753.130493,252.930481 
	C753.130493,259.121613 753.130493,265.312744 753.130493,271.979828 
	C749.948120,271.979828 747.254272,271.979828 743.987854,271.979828 
	C743.987854,256.202728 743.987854,240.459763 743.984924,224.245438 
M753.096741,242.567993 
	C757.203979,245.101135 759.229553,242.072739 760.763977,239.261383 
	C762.952759,235.251221 761.534668,229.886658 758.328674,228.154129 
	C754.922607,226.313477 753.000122,227.358719 752.886108,231.276901 
	C752.784790,234.760300 752.905579,238.250183 753.096741,242.567993 
z"/>
<path fill="#FCF7F6" opacity="1.000000" stroke="none" 
	d="
M533.111938,225.245880 
	C533.228516,218.129517 534.368103,217.424271 542.764221,219.057175 
	C542.764221,225.258987 542.735535,231.527405 542.772339,237.795441 
	C542.808472,243.953049 542.801086,250.114380 543.030334,256.265961 
	C543.146667,259.387482 544.063171,262.479614 547.803162,262.896271 
	C551.799988,263.341553 553.394592,260.440521 554.089783,257.145691 
	C554.634277,254.564484 554.918701,251.884842 554.943970,249.245331 
	C555.039612,239.271103 554.982422,229.295410 554.982422,219.449844 
	C562.956726,217.093140 564.261780,217.993607 564.208313,225.700729 
	C564.134338,236.360306 564.273621,247.034805 563.742676,257.674042 
	C563.178711,268.975220 555.730530,274.401337 544.753784,272.187683 
	C538.605164,270.947693 534.464600,267.151520 533.980591,260.137024 
	C533.191284,248.696960 533.355164,237.191116 533.111938,225.245880 
z"/>
<path fill="#FBF6F5" opacity="1.000000" stroke="none" 
	d="
M487.226135,255.544189 
	C487.078705,248.529800 486.283539,241.822189 487.143585,235.333984 
	C488.476807,225.276443 497.314606,218.020248 506.344086,218.348465 
	C515.661011,218.687103 524.029541,226.030350 524.898315,236.096542 
	C525.516235,243.256317 525.329529,250.774963 523.797791,257.759705 
	C521.752930,267.083862 514.234253,272.444611 505.986755,272.428558 
	C497.647583,272.412323 490.882172,266.950470 487.930664,257.850861 
	C487.725220,257.217651 487.523590,256.583160 487.226135,255.544189 
M512.867249,229.661728 
	C507.775635,223.284164 500.369904,225.480560 497.101837,232.790527 
	C493.725891,240.341949 493.815613,248.270035 496.296295,256.122070 
	C497.807312,260.904785 501.205353,263.759674 506.211212,263.738281 
	C511.087219,263.717438 514.259888,260.633087 515.609802,256.147888 
	C518.279480,247.277939 518.458618,238.514633 512.867249,229.661728 
z"/>
<path fill="#FCF7F6" opacity="1.000000" stroke="none" 
	d="
M592.031494,259.810822 
	C589.247070,252.053650 588.858887,244.477432 590.082153,236.784698 
	C591.779053,226.113434 599.869568,218.357574 609.255127,218.347061 
	C618.540039,218.336655 627.228821,225.571045 628.424072,236.069687 
	C629.234131,243.185059 628.648987,250.722366 627.200684,257.765137 
	C625.394714,266.546448 618.287231,271.944000 610.383423,272.420868 
	C602.664062,272.886597 596.027649,268.432526 592.031494,259.810822 
M619.831177,237.010513 
	C619.462646,235.909729 619.212097,234.750946 618.704651,233.718414 
	C616.741394,229.723526 614.355652,225.960419 609.258789,226.074188 
	C604.250244,226.185974 601.574646,229.763245 600.013489,233.942139 
	C597.255432,241.324554 597.202637,248.861923 599.793274,256.362213 
	C601.449402,261.156708 604.928467,263.883850 609.873718,263.722015 
	C614.635620,263.566162 618.294006,260.638092 618.994629,255.957520 
	C619.887329,249.993835 619.715576,243.870804 619.831177,237.010513 
z"/>
<path fill="#FCF7F6" opacity="1.000000" stroke="none" 
	d="
M684.389526,312.510010 
	C685.624878,317.747589 686.741760,322.582397 687.858643,327.417206 
	C688.244507,327.455658 688.630432,327.494080 689.016296,327.532532 
	C690.324524,321.913483 691.621216,316.291687 692.944519,310.676208 
	C693.935425,306.470978 695.048584,302.292572 695.947449,298.068207 
	C696.993103,293.154175 700.856628,294.106537 703.905762,294.552246 
	C707.715332,295.109131 705.814331,298.043457 705.305969,300.059540 
	C701.609070,314.720703 697.746765,329.340759 694.144958,344.024902 
	C693.338196,347.314117 692.022278,348.660889 688.451660,348.548004 
	C685.216675,348.445740 683.763672,347.455322 682.983459,344.274292 
	C679.302002,329.264374 675.383789,314.312622 671.591919,299.329559 
	C671.240601,297.941376 671.183716,296.478699 670.994202,295.080444 
	C679.717590,293.349762 680.279846,293.691101 681.952026,301.385620 
	C682.728455,304.958740 683.498230,308.533325 684.389526,312.510010 
z"/>
<path fill="#FAF4F2" opacity="1.000000" stroke="none" 
	d="
M731.705750,217.994995 
	C737.597168,217.061401 736.414185,221.131531 736.696899,224.032547 
	C737.077759,227.940002 734.140747,227.159088 731.956909,227.216736 
	C722.338745,227.470688 722.338135,227.446457 723.439819,238.332413 
	C726.247253,238.332413 729.204712,238.608017 732.087036,238.260483 
	C735.456421,237.854202 736.205444,239.564758 736.159241,242.288498 
	C736.113953,244.960312 736.440979,247.525391 732.265747,247.716492 
	C721.796631,248.195633 721.712646,248.509979 723.602966,261.578766 
	C726.404236,261.578766 729.337036,261.641449 732.266113,261.563690 
	C736.363159,261.454865 736.629028,264.108276 736.685974,267.214996 
	C736.742798,270.320709 735.557190,271.920013 732.336426,271.889435 
	C727.504028,271.843536 722.670227,271.828674 717.838440,271.899597 
	C714.879211,271.943024 713.511780,270.435364 713.520203,267.658081 
	C713.566650,252.340012 713.697693,237.022171 713.721313,221.704132 
	C713.725708,218.817383 715.074707,218.003418 717.746460,218.070190 
	C722.241577,218.182510 726.743042,218.042191 731.705750,217.994995 
z"/>
<path fill="#FAF5F4" opacity="1.000000" stroke="none" 
	d="
M612.638000,293.998352 
	C617.878052,293.719635 616.544922,297.396332 616.840759,299.915771 
	C617.218994,303.137421 614.992188,303.316650 612.650330,303.238373 
	C612.483826,303.232819 612.316895,303.229645 612.150391,303.233002 
	C602.297668,303.432281 602.297668,303.432373 603.461182,314.226898 
	C606.428589,314.226898 609.567810,313.881592 612.565430,314.382965 
	C613.919678,314.609497 615.781860,316.381714 616.013977,317.699219 
	C616.397278,319.874847 617.153564,322.981689 613.338257,323.554749 
	C613.173767,323.579468 613.006287,323.583832 612.840393,323.599884 
	C609.755432,323.898651 604.529541,323.337738 603.997437,324.662262 
	C602.551941,328.260651 603.094604,332.657623 602.797485,337.597260 
	C606.560791,337.597260 609.658630,337.615082 612.756226,337.592438 
	C616.184448,337.567413 616.735535,339.689514 616.837036,342.546143 
	C616.940430,345.455109 616.320068,347.509460 613.022156,347.787140 
	C612.524353,347.829071 612.024292,347.894562 611.526855,347.882629 
	C590.633179,347.381317 593.683411,351.379730 593.430969,330.747284 
	C593.302673,320.256470 593.820984,309.757538 593.680847,299.267151 
	C593.624207,295.027008 595.098938,293.742798 599.187744,294.038818 
	C603.494934,294.350647 607.846741,294.046204 612.638000,293.998352 
z"/>
<path fill="#FAF5F4" opacity="1.000000" stroke="none" 
	d="
M731.726562,294.025879 
	C736.865356,293.126740 736.643677,296.305237 736.912415,299.420502 
	C737.246643,303.293549 734.848938,303.195160 732.192322,303.252258 
	C722.394287,303.462830 722.395020,303.495544 723.413879,314.239746 
	C726.374695,314.239746 729.462585,314.458038 732.505066,314.179504 
	C735.666321,313.890076 736.248840,315.635315 736.182739,318.070312 
	C736.118164,320.449524 736.856140,323.300720 732.960938,323.599121 
	C729.748047,323.845276 724.380798,323.490814 723.792664,324.947083 
	C722.421936,328.341095 723.355469,332.665710 723.355469,337.578033 
	C726.264526,337.578033 729.173462,337.665497 732.074951,337.555206 
	C735.461731,337.426453 736.733337,338.919464 736.875305,342.307526 
	C737.023499,345.842743 735.878235,347.804993 732.266846,347.836029 
	C727.449463,347.877441 722.630676,347.784851 717.812744,347.731384 
	C715.055359,347.700745 713.615845,346.584869 713.643677,343.522217 
	C713.732605,333.724274 713.596680,323.924500 713.602539,314.125488 
	C713.605713,308.808380 713.812073,303.490204 713.748474,298.174652 
	C713.713684,295.262878 714.678589,293.935760 717.797363,294.062500 
	C722.277527,294.244598 726.772156,294.071960 731.726562,294.025879 
z"/>
<path fill="#FAF5F4" opacity="1.000000" stroke="none" 
	d="
M514.707275,334.917206 
	C517.169189,336.116180 519.592163,337.328461 522.056641,337.419342 
	C525.829407,337.558533 528.394165,337.854980 528.360535,342.759155 
	C528.328674,347.397034 525.831848,347.947449 522.315674,347.891357 
	C517.987244,347.822296 513.658325,347.783966 509.329865,347.714478 
	C506.588745,347.670471 505.068939,346.613464 505.087738,343.513367 
	C505.179718,328.356995 505.050964,313.198547 505.282166,298.045105 
	C505.302277,296.727020 507.309143,294.386414 508.500427,294.315216 
	C514.790039,293.939362 521.113953,294.138947 527.826111,294.138947 
	C527.826111,297.057037 527.826111,299.779419 527.826111,302.952026 
	C523.701904,303.135437 519.623169,303.316833 515.125549,303.516876 
	C515.125549,307.160339 515.125549,310.394836 515.125549,314.240234 
	C518.096924,314.240234 520.887817,314.443542 523.635498,314.186371 
	C526.742859,313.895508 527.899353,315.174652 527.861633,318.128723 
	C527.826111,320.910461 527.997742,323.686401 523.972351,323.618774 
	C521.172791,323.571686 518.371887,323.609711 515.160889,323.609711 
	C514.988586,327.542267 514.837769,330.985229 514.707275,334.917206 
z"/>
<path fill="#FBF6F5" opacity="1.000000" stroke="none" 
	d="
M474.109558,218.380219 
	C475.895630,218.596481 477.291992,218.814621 479.602386,219.175552 
	C471.767761,236.388565 462.711151,252.629822 466.853668,272.095764 
	C462.956848,272.095764 460.241364,272.095764 456.237183,272.095764 
	C460.971039,252.356491 451.885834,236.215240 443.653534,219.997009 
	C450.031799,216.711334 453.311707,217.903030 455.586792,223.759048 
	C457.150085,227.782990 458.804749,231.771835 460.464081,235.757431 
	C460.642120,236.185150 461.124451,236.486176 461.861877,237.263794 
	C464.183380,232.090485 466.173035,227.011429 468.753357,222.252655 
	C469.670105,220.561920 472.022705,219.649719 474.109558,218.380219 
z"/>
<path fill="#FCFAF8" opacity="1.000000" stroke="none" 
	d="
M633.175720,332.946533 
	C633.254028,335.036346 633.332153,336.665894 633.436096,338.835266 
	C637.588806,338.835266 641.485168,338.835266 645.879639,338.835266 
	C646.107666,342.044067 646.298218,344.725372 646.517151,347.806458 
	C638.900452,347.806458 631.866455,347.806458 623.991089,347.806458 
	C623.991089,340.406189 623.990479,333.145508 623.991211,325.884857 
	C623.992065,317.907745 623.991089,309.930603 623.996582,301.953491 
	C624.002319,293.708923 624.005310,293.708923 633.175476,294.983856 
	C633.175476,307.400299 633.175476,319.943268 633.175720,332.946533 
z"/>
<path fill="#FDFBFA" opacity="1.000000" stroke="none" 
	d="
M663.210571,347.296570 
	C660.162903,347.868164 657.389893,348.073151 653.438599,348.365234 
	C653.438599,339.067780 653.392517,330.311005 653.452454,321.554901 
	C653.504883,313.900116 653.775574,306.245758 653.746765,298.591980 
	C653.735291,295.557007 654.414734,293.836823 657.908142,294.086487 
	C660.653564,294.282745 663.231323,293.908630 663.226501,298.041016 
	C663.207458,314.337189 663.382324,330.633636 663.210571,347.296570 
z"/>
<path fill="#DA4B45" opacity="1.000000" stroke="none" 
	d="
M77.503067,298.561584 
	C104.789909,261.592834 155.014069,259.544952 184.975342,284.018646 
	C201.485077,297.504578 210.818192,314.902710 213.186249,336.597107 
	C163.145920,336.597107 113.474236,336.597107 63.410141,336.597107 
	C64.403610,322.629333 69.354691,310.207642 77.503067,298.561584 
M120.597427,287.906616 
	C125.997429,286.974182 131.382202,285.938354 136.801910,285.139801 
	C141.726791,284.414215 144.381180,282.165375 143.855743,278.523071 
	C143.180084,273.839508 139.651382,273.589111 135.936127,273.691132 
	C120.419495,274.117279 106.623283,279.171143 94.572495,288.973907 
	C83.537636,297.950256 75.972542,309.248047 71.740234,322.823242 
	C70.618492,326.421265 71.514183,329.247711 74.951271,330.657104 
	C78.572807,332.142120 80.997185,330.232208 82.489838,326.928284 
	C82.831764,326.171448 83.126839,325.391754 83.410645,324.610626 
	C89.885773,306.789185 101.954269,294.540436 120.597427,287.906616 
z"/>
<path fill="#D84B45" opacity="1.000000" stroke="none" 
	d="
M108.999939,360.131409 
	C87.716118,360.131409 66.932289,360.131409 46.240669,360.131409 
	C44.786736,350.891052 46.553959,348.811188 55.367050,348.810120 
	C110.510506,348.803619 165.653961,348.805481 220.797424,348.800903 
	C229.803787,348.800171 231.248505,350.326233 230.687897,360.131409 
	C190.324844,360.131409 149.912399,360.131409 108.999939,360.131409 
z"/>
<path fill="#D7534E" opacity="1.000000" stroke="none" 
	d="
M158.463577,378.458435 
	C157.677475,376.267365 157.077988,374.397003 156.463760,372.480743 
	C160.439651,370.907684 162.292664,372.211121 163.901596,375.803314 
	C167.811066,384.531708 175.113495,388.974274 184.482285,388.994965 
	C193.846451,389.015625 200.994949,384.563629 205.235519,375.958740 
	C207.360001,371.647766 207.353867,371.644745 212.262329,372.296143 
	C210.830658,383.332581 201.725143,392.078949 189.234253,394.415833 
	C176.815842,396.739166 165.251526,390.826691 158.463577,378.458435 
z"/>
<path fill="#D7534E" opacity="1.000000" stroke="none" 
	d="
M106.959946,375.686951 
	C107.990929,371.145599 110.751358,371.420685 113.875114,372.324127 
	C111.709778,385.212982 99.623611,394.984894 86.036034,394.977264 
	C72.547554,394.969666 60.489155,385.145752 58.287155,372.251862 
	C61.095253,371.678406 63.484859,370.993103 65.026054,374.835083 
	C68.664940,383.906189 75.853783,388.639282 85.470039,388.956482 
	C95.156593,389.276001 102.279938,384.619232 106.959946,375.686951 
z"/>
<path fill="#D9504B" opacity="1.000000" stroke="none" 
	d="
M153.026337,252.949249 
	C153.687332,254.441757 154.203125,255.612000 154.691818,256.720764 
	C143.800186,256.720764 133.176849,256.720764 122.571632,256.720764 
	C122.943695,251.713593 126.856316,247.351822 132.909073,245.438690 
	C140.481339,243.045273 147.157455,245.448135 153.026337,252.949249 
z"/>
<path fill="#D7534E" opacity="1.000000" stroke="none" 
	d="
M87.566818,377.598572 
	C82.981049,377.777496 79.602348,376.263702 76.560188,372.224121 
	C83.139648,372.224121 88.974838,372.224121 94.810036,372.224121 
	C95.040703,372.587952 95.271378,372.951813 95.502052,373.315643 
	C92.983032,374.717926 90.464012,376.120178 87.566818,377.598572 
z"/>
<path fill="#D7534E" opacity="1.000000" stroke="none" 
	d="
M185.890808,371.849243 
	C188.639709,371.847107 190.925644,371.847107 193.401718,371.847107 
	C189.595459,379.350983 181.811798,379.655334 174.632660,371.851349 
	C178.856995,371.851349 182.142426,371.851349 185.890808,371.849243 
z"/>
<path fill="#DB4B44" opacity="1.000000" stroke="none" 
	d="
M716.036133,162.732056 
	C713.053528,150.361847 713.766357,138.489624 717.388672,126.844398 
	C720.369385,117.261803 728.108459,110.249321 735.506470,110.480667 
	C745.466797,110.792145 750.694153,117.548187 753.694946,125.923737 
	C758.674011,139.820862 758.845337,153.999588 753.872070,167.991882 
	C750.708252,176.893280 743.883484,181.897598 735.742798,181.937820 
	C727.742004,181.977341 721.040039,176.798309 717.633850,167.886597 
	C717.041687,166.337265 716.618591,164.723297 716.036133,162.732056 
z"/>
<path fill="#D9504B" opacity="1.000000" stroke="none" 
	d="
M551.066711,166.146881 
	C549.591980,165.344543 547.512573,164.339218 547.625916,163.772400 
	C549.265869,155.572037 551.200256,147.430496 554.236328,139.287415 
	C556.119995,147.927917 558.003662,156.568436 560.092041,166.147827 
	C556.864502,166.147827 554.173157,166.147827 551.066711,166.146881 
z"/>
<path fill="#DA4D47" opacity="1.000000" stroke="none" 
	d="
M328.094116,97.814598 
	C317.407684,77.770058 328.190979,58.720390 342.929474,51.273876 
	C355.473633,44.936020 371.313843,47.175919 382.230682,57.403114 
	C390.034729,64.714195 396.818176,79.112946 390.121063,93.945236 
	C382.103333,111.702324 370.393646,126.920998 358.214508,142.605728 
	C346.752136,128.380478 336.227173,114.144287 328.094116,97.814598 
M365.488098,104.139801 
	C378.397003,99.719048 384.616028,86.214050 379.574371,73.550682 
	C374.857361,61.702785 360.642792,56.089878 348.798035,61.398029 
	C337.714417,66.365074 332.581116,78.417931 336.565765,90.119057 
	C340.493713,101.653664 351.755554,107.348297 365.488098,104.139801 
z"/>
<path fill="#DA4D47" opacity="1.000000" stroke="none" 
	d="
M566.521606,338.918518 
	C565.039429,338.089386 563.056458,337.230347 563.038940,336.332794 
	C562.824951,325.409821 562.899963,314.481201 562.899963,303.401794 
	C568.201294,302.589966 571.916443,304.113312 573.981079,308.575500 
	C577.498474,316.177307 577.793030,324.185486 574.587708,331.761475 
	C573.350037,334.686951 569.560791,336.532928 566.521606,338.918518 
z"/>
<path fill="#DB4C46" opacity="1.000000" stroke="none" 
	d="
M682.886108,242.005157 
	C682.885925,236.888229 682.885925,232.270233 682.885925,227.365524 
	C687.698669,226.669388 691.453003,227.796707 693.510864,232.048599 
	C697.479980,240.249527 697.640320,248.727631 693.940186,257.024567 
	C691.807312,261.807129 688.985474,263.024658 682.886292,262.693115 
	C682.886292,256.001068 682.886292,249.252594 682.886108,242.005157 
z"/>
<path fill="#DB5954" opacity="1.000000" stroke="none" 
	d="
M647.026367,243.645416 
	C646.330200,238.736572 645.903320,233.903305 645.898010,229.069565 
	C645.897522,228.652649 649.646484,227.473633 650.017761,227.942963 
	C651.812744,230.211609 654.018921,232.834839 654.261108,235.497711 
	C654.655212,239.831757 652.171936,243.038254 647.026367,243.645416 
z"/>
<path fill="#D9504B" opacity="1.000000" stroke="none" 
	d="
M761.215454,307.934204 
	C762.309814,315.586273 760.162476,318.747925 753.068054,319.303528 
	C753.068054,314.588226 752.917053,309.897339 753.262939,305.243408 
	C753.305237,304.674194 756.255371,303.607574 757.422546,304.015930 
	C758.885437,304.527618 759.898682,306.324860 761.215454,307.934204 
z"/>
<path fill="#D9504B" opacity="1.000000" stroke="none" 
	d="
M753.012512,242.152588 
	C752.905579,238.250183 752.784790,234.760300 752.886108,231.276901 
	C753.000122,227.358719 754.922607,226.313477 758.328674,228.154129 
	C761.534668,229.886658 762.952759,235.251221 760.763977,239.261383 
	C759.229553,242.072739 757.203979,245.101135 753.012512,242.152588 
z"/>
<path fill="#DB4C46" opacity="1.000000" stroke="none" 
	d="
M513.069336,229.980316 
	C518.458618,238.514633 518.279480,247.277939 515.609802,256.147888 
	C514.259888,260.633087 511.087219,263.717438 506.211212,263.738281 
	C501.205353,263.759674 497.807312,260.904785 496.296295,256.122070 
	C493.815613,248.270035 493.725891,240.341949 497.101837,232.790527 
	C500.369904,225.480560 507.775635,223.284164 513.069336,229.980316 
z"/>
<path fill="#DA4D47" opacity="1.000000" stroke="none" 
	d="
M619.916870,237.413483 
	C619.715576,243.870804 619.887329,249.993835 618.994629,255.957520 
	C618.294006,260.638092 614.635620,263.566162 609.873718,263.722015 
	C604.928467,263.883850 601.449402,261.156708 599.793274,256.362213 
	C597.202637,248.861923 597.255432,241.324554 600.013489,233.942139 
	C601.574646,229.763245 604.250244,226.185974 609.258789,226.074188 
	C614.355652,225.960419 616.741394,229.723526 618.704651,233.718414 
	C619.212097,234.750946 619.462646,235.909729 619.916870,237.413483 
z"/>
<path fill="#FCF9F7" opacity="1.000000" stroke="none" 
	d="
M120.205467,287.982056 
	C101.954269,294.540436 89.885773,306.789185 83.410645,324.610626 
	C83.126839,325.391754 82.831764,326.171448 82.489838,326.928284 
	C80.997185,330.232208 78.572807,332.142120 74.951271,330.657104 
	C71.514183,329.247711 70.618492,326.421265 71.740234,322.823242 
	C75.972542,309.248047 83.537636,297.950256 94.572495,288.973907 
	C106.623283,279.171143 120.419495,274.117279 135.936127,273.691132 
	C139.651382,273.589111 143.180084,273.839508 143.855743,278.523071 
	C144.381180,282.165375 141.726791,284.414215 136.801910,285.139801 
	C131.382202,285.938354 125.997429,286.974182 120.205467,287.982056 
z"/>
<path fill="#FCF9F7" opacity="1.000000" stroke="none" 
	d="
M365.108887,104.250092 
	C351.755554,107.348297 340.493713,101.653664 336.565765,90.119057 
	C332.581116,78.417931 337.714417,66.365074 348.798035,61.398029 
	C360.642792,56.089878 374.857361,61.702785 379.574371,73.550682 
	C384.616028,86.214050 378.397003,99.719048 365.108887,104.250092 
M348.477112,76.295929 
	C345.937347,81.190109 345.957611,85.937752 349.841125,90.084991 
	C352.986908,93.444397 356.905212,94.951508 361.540894,93.382584 
	C366.433441,91.726723 369.798981,87.516876 369.775391,82.676186 
	C369.750549,77.573601 367.300476,73.806450 362.616943,71.709709 
	C357.796661,69.551765 353.574066,70.845955 348.477112,76.295929 
z"/>
<path fill="#DA4D47" opacity="1.000000" stroke="none" 
	d="
M348.711212,75.983788 
	C353.574066,70.845955 357.796661,69.551765 362.616943,71.709709 
	C367.300476,73.806450 369.750549,77.573601 369.775391,82.676186 
	C369.798981,87.516876 366.433441,91.726723 361.540894,93.382584 
	C356.905212,94.951508 352.986908,93.444397 349.841125,90.084991 
	C345.957611,85.937752 345.937347,81.190109 348.711212,75.983788 
z"/>
</svg>