<?xml version="1.0" encoding="utf-8"?>
<!-- Generator: Adobe Illustrator 24.0.0, SVG Export Plug-In . SVG Version: 6.00 Build 0)  -->
<svg version="1.1" xmlns="http://www.w3.org/2000/svg" xmlns:xlink="http://www.w3.org/1999/xlink" x="0px" y="0px"
	 viewBox="0 0 612 441" style="enable-background:new 0 0 612 441;" xml:space="preserve">
<style type="text/css">
	.st0{fill:#DC4A43;}
	.st1{fill:#FCF9F8;}
	.st2{fill:#FCF8F7;}
	.st3{fill:#FDFBFB;}
	.st4{fill:#FDFBFA;}
	.st5{fill:#FCF9F7;}
	.st6{fill:#FBF5F4;}
	.st7{fill:#FBF5F3;}
	.st8{fill:#FCFAF8;}
	.st9{fill:#FCF7F6;}
	.st10{fill:#FBF6F5;}
	.st11{fill:#FAF4F2;}
	.st12{fill:#FAF5F4;}
	.st13{fill:#DA4B45;}
	.st14{fill:#D84B45;}
	.st15{fill:#D7534E;}
	.st16{fill:#D9504B;}
	.st17{fill:#DA4D47;}
	.st18{fill:#DB4C46;}
	.st19{fill:#DB5954;}
</style>
<g id="Layer_1">
	<path class="st0" d="M469.7,389.1c-156.6,0-312.7,0-468.9,0c0-111.9,0-223.8,0-335.7c204,0,408,0,612,0c0,111.9,0,223.8,0,335.7
		C565.2,389.1,517.6,389.1,469.7,389.1 M114.6,347.9c4.9,7.8,12,12.6,20.9,13.7c17.3,2.2,29.9-6.6,35-23.4c0.3-1,1.9-2.3,2.9-2.4
		c11.5-0.8,11.5-0.8,11.1-12.3c0-0.6,0-1.3-0.1-1.9c-0.5-5.8-4-10.2-9.7-11.9c-1.2-0.4-2.4-0.6-3.5-0.9c-0.1-0.5-0.2-0.7-0.3-0.9
		c-3.5-26.6-17.3-45.4-42.1-55.9c-0.9-0.4-1.6-1.8-1.8-2.8c-2.1-11.5-10.7-19.1-21.7-19.2c-11-0.1-19.5,7.3-22,18.8
		c-0.3,1.3-1.5,2.9-2.7,3.5c-23.9,10.6-37.6,28.7-41.2,54.6c-0.1,0.9-1.2,2.1-2.1,2.4c-8.5,2.6-11.5,6.6-11.5,15.5
		c0,1.8,0,3.6,0,5.3c0.1,4.2,1.5,5.8,5.8,5.7c2.7-0.1,3.6,0.8,4.2,3.4c3.6,16.3,22.1,26.8,38.1,21.8c11.3-3.6,18.5-11,21.5-22.5
		c0.3-1,1.3-2.5,2.1-2.5c4.1-0.2,8.3-0.1,11.8-0.1C111.2,340.1,112.7,343.7,114.6,347.9 M258.4,217.1c-12.4-6.3-25.6-9.3-39.6-9.2
		c-42.6,0.2-85.2,0.1-127.9,0.1c-1.6,0-3.3,0-4.9-0.1c-10.7-1-17.9-11.1-15.5-21.5c2.1-8.9,9-13.7,19.7-13.7c52.4,0,104.8,0,157.2,0
		c5.7,0,7.7-1.2,7.6-4.6c-0.1-3-2.3-4.3-7.5-4.3c-52.3,0-104.5,0-156.8,0c-1,0-2,0-3,0c-14.8,0.5-26,11.5-26.5,26
		c-0.5,13.5,10,25.1,24.2,26.5c6.3,0.6,12.7,0.4,19,0.4c40.5,0.1,80.9-0.5,121.4,0.4c41.3,0.9,72.2,41.8,63,82.1
		c-7.4,32.4-34.1,53.8-67.7,54c-14.1,0.1-28.2,0-42.2,0c-1.5,0-3.4-0.2-4.4,0.6c-1.3,1-2.9,2.9-2.7,4.3c0.1,1.4,2.1,2.6,3.5,3.7
		c0.5,0.4,1.5,0.2,2.2,0.2c14.7,0,29.4,0.1,44.1,0c18.1-0.1,34.2-5.7,48.6-16.8c22.6-17.5,34-50,27-77.6
		C291.5,245.4,278.8,228.7,258.4,217.1 M308,115.3c-1.3-24.6-21.3-39.6-45.1-33.8c-18.4,4.5-30,25.5-23.5,43.2
		c6.4,17.4,17.8,31.7,29.5,45.8c2.5,3,5.4,2.8,8-0.5c5.6-7.1,11.2-14.1,16.3-21.5C299.8,138.5,306.6,128.4,308,115.3 M342.3,250.2
		c1.4,5.7,2.8,11.3,4.1,17c1.2,5.1,1.9,5.4,7.3,3.9c1.2-5.5,2.5-10.9,3.7-16.4c1.5,1.2,2.2,2.5,2.5,3.8c0.8,3.2,1.6,6.4,2.1,9.7
		c0.4,2.5,1.3,3.6,4.1,3.6c2.8,0,3.4-1.4,3.8-3.6c0.5-2.7,1.1-5.5,1.8-8.2c2.2-8.5,4.3-16.9,6.7-25.3c0.9-3.2,0-4-3.1-4.1
		c-3-0.1-4,1.4-4.6,3.9c-1.1,4.9-2.4,9.8-3.6,14.7c-0.2,0.9-0.7,1.7-1,2.5c-1.7-6-2.8-11.8-3.6-17.7c-0.3-2.6-1.4-3.3-3.9-3.4
		c-3-0.2-4,1-4.5,3.7c-0.9,5.8-2.1,11.6-3.2,17.5c-0.8-0.6-1-1-1.2-1.5c-1.4-5.7-2.8-11.3-4-17c-0.8-3.9-3.9-2.8-6-2.7
		c-2.9,0.2-1.5,2.6-1.2,4.1C339.7,239.8,340.9,244.7,342.3,250.2 M439.1,233.2c-4.3-3.3-9.3-2.5-14.2-2.7c-2.7-0.1-3.6,1.3-3.6,3.7
		c0,11.4-0.1,22.8,0.1,34.1c0,1,0.9,2.5,1.7,2.8c4.3,1.7,15.4-1.4,18.5-4.6C448.5,259,447.9,239,439.1,233.2 M530.4,175.4
		c-4.8-3.6-10.4-2.8-15.7-2.5c-0.7,0-2,1.7-2,2.6c-0.2,11.8-0.2,23.6-0.1,35.3c0,0.9,0.9,2.2,1.7,2.5c4.9,1.8,16-1.6,19.3-5.5
		C539.5,200.4,539.1,181.4,530.4,175.4 M492.2,199.2c1.7,3.5,3.5,7,5.2,10.5c2.3,4.8,3.9,5.5,9.7,3.4c-1.9-3.8-3.5-7.6-5.6-11.2
		c-2.1-3.6-2.8-6.3,0.9-9.7c3.8-3.5,3.5-8.5,1.5-13.1c-1.9-4.5-5.6-6.4-10.3-6.3c-1.8,0-3.6,0.1-5.3,0c-3-0.3-3.9,1.1-3.9,4
		c0.1,11.3,0,22.6,0.1,33.9c0,1,0.2,2,0.3,3.1c2.2,0,4.1,0,6.9,0C491.7,208.8,491.7,204,492.2,199.2 M588.4,270.5
		c-2.1-4.3-4-8.8-6.3-12.9c-1.4-2.6-1.3-4,1-6c4.4-3.9,4.9-9,2.7-14.2c-2.1-5-6.1-6.7-11.3-6.5c-1.5,0.1-3,0.1-4.6,0
		c-2.9-0.3-3.7,0.9-3.7,3.7c0.1,11.4,0,22.8,0.1,34.2c0,1,0.2,1.9,0.3,3.3c2.3-0.1,4.3-0.2,6.7-0.3c0-5.2,0-9.9,0-14.7
		c2.5,3.5,4.3,7.2,6,10.9C581.4,272.4,583.1,273,588.4,270.5 M566.3,177.7c0,12,0,24,0,36c2.5,0,4.5,0,7,0c0-5.1,0-9.8,0-14.5
		c2.4,3.2,4,6.6,5.6,10c2.6,5.6,3.2,5.9,9.5,4.3c0-0.4,0.1-0.8,0-1.1c-2-4.2-3.9-8.6-6.2-12.6c-1.4-2.5-1.3-4,0.9-6.1
		c4.2-3.9,5-9.1,2.7-14.3c-2.2-4.9-6.2-6.7-11.4-6.5c-1.4,0.1-2.8,0.2-4.2,0C567,172.5,565.9,173.9,566.3,177.7 M405.8,178.5
		c0.2,8.7,0.1,17.5,0.7,26.2c0.4,5.3,3.5,8.2,8.2,9.2c8.4,1.7,14-2.4,14.5-11c0.4-8.1,0.3-16.2,0.4-24.3c0-5.9-1-6.6-7-4.8
		c0,7.5,0,15.1,0,22.7c0,2-0.2,4-0.7,6c-0.5,2.5-1.7,4.7-4.8,4.4c-2.8-0.3-3.5-2.7-3.6-5c-0.2-4.7-0.2-9.4-0.2-14.1
		c0-4.8,0-9.5,0-14.3C406.8,172.2,405.9,172.7,405.8,178.5 M370.9,201.5c0.2,0.5,0.3,1,0.5,1.4c2.2,6.9,7.4,11.1,13.7,11.1
		c6.3,0,12-4.1,13.6-11.2c1.2-5.3,1.3-11,0.8-16.5c-0.7-7.7-7-13.3-14.1-13.5c-6.9-0.2-13.6,5.3-14.6,12.9
		C370.2,190.7,370.8,195.8,370.9,201.5 M450.7,204.7c3,6.3,8,9.7,13.9,9.3c6-0.4,11.4-4.5,12.8-11.2c1.1-5.4,1.5-11.1,0.9-16.5
		c-0.9-8-7.5-13.5-14.6-13.5c-7.1,0-13.3,5.9-14.6,14C448.2,192.8,448.5,198.5,450.7,204.7 M520.9,244.2c-0.6-2.7-1.2-5.4-1.8-8.2
		c-1.3-5.9-1.7-6.1-8.3-4.8c0.1,1.1,0.2,2.2,0.5,3.2c2.9,11.4,5.9,22.8,8.7,34.2c0.6,2.4,1.7,3.2,4.2,3.3c2.7,0.1,3.7-0.9,4.3-3.4
		c2.7-11.2,5.7-22.3,8.5-33.5c0.4-1.5,1.8-3.8-1.1-4.2c-2.3-0.3-5.3-1.1-6.1,2.7c-0.7,3.2-1.5,6.4-2.3,9.6c-1,4.3-2,8.6-3,12.8
		c-0.3,0-0.6-0.1-0.9-0.1C522.7,252.2,521.9,248.5,520.9,244.2 M556.6,172.6c-3.4,0-6.9,0.1-10.3,0c-2-0.1-3.1,0.6-3.1,2.8
		c0,11.7-0.1,23.3-0.2,35c0,2.1,1,3.3,3.3,3.2c3.7-0.1,7.4,0,11,0c2.5,0,3.4-1.2,3.3-3.6c0-2.4-0.2-4.4-3.4-4.3
		c-2.2,0.1-4.5,0-6.6,0c-1.4-9.9-1.4-10.2,6.6-10.6c3.2-0.1,2.9-2.1,3-4.1c0-2.1-0.5-3.4-3.1-3.1c-2.2,0.3-4.4,0.1-6.6,0.1
		c-0.8-8.3-0.8-8.3,6.5-8.5c1.7,0,3.9,0.6,3.6-2.4C560.6,175,561.5,171.9,556.6,172.6 M466,230.5c-3.3,0-6.6,0.3-9.9,0
		c-3.1-0.2-4.2,0.8-4.2,4c0.1,8-0.3,16-0.2,24c0.2,15.7-2.1,12.7,13.8,13c0.4,0,0.8,0,1.1-0.1c2.5-0.2,3-1.8,2.9-4
		c-0.1-2.2-0.5-3.8-3.1-3.8c-2.4,0-4.7,0-7.6,0c0.2-3.8-0.2-7.1,0.9-9.8c0.4-1,4.4-0.6,6.7-0.8c0.1,0,0.3,0,0.4,0
		c2.9-0.4,2.3-2.8,2-4.5c-0.2-1-1.6-2.4-2.6-2.5c-2.3-0.4-4.7-0.1-6.9-0.1c-0.9-8.2-0.9-8.2,6.6-8.4c0.1,0,0.3,0,0.4,0
		c1.8,0.1,3.5-0.1,3.2-2.5C469.3,233,470.3,230.2,466,230.5 M556.6,230.5c-3.4,0-6.8,0.1-10.2,0c-2.4-0.1-3.1,0.9-3.1,3.1
		c0,4-0.1,8.1-0.1,12.1c0,7.5,0.1,14.9,0,22.4c0,2.3,1.1,3.2,3.2,3.2c3.7,0,7.3,0.1,11,0.1c2.7,0,3.6-1.5,3.5-4.2
		c-0.1-2.6-1.1-3.7-3.7-3.6c-2.2,0.1-4.4,0-6.6,0c0-3.7-0.7-7,0.3-9.6c0.4-1.1,4.5-0.8,7-1c3-0.2,2.4-2.4,2.5-4.2
		c0.1-1.9-0.4-3.2-2.8-3c-2.3,0.2-4.7,0-6.9,0c-0.8-8.2-0.8-8.2,6.7-8.4c2,0,3.8,0,3.6-2.9C560.7,232.2,560.9,229.8,556.6,230.5
		 M391.8,261.2c0.1-2.6,0.2-5.2,0.4-8.2c2.4,0,4.6,0,6.7,0c3.1,0.1,2.9-2.1,3-4.2c0-2.2-0.9-3.2-3.2-3c-2.1,0.2-4.2,0-6.5,0
		c0-2.9,0-5.4,0-8.2c3.4-0.2,6.5-0.3,9.7-0.4c0-2.4,0-4.5,0-6.7c-5.1,0-9.9-0.2-14.7,0.1c-0.9,0.1-2.4,1.8-2.4,2.8
		c-0.2,11.5-0.1,23.1-0.1,34.6c0,2.4,1.1,3.2,3.2,3.2c3.3,0.1,6.6,0.1,9.9,0.1c2.7,0,4.6-0.4,4.6-3.9c0-3.7-1.9-4-4.8-4.1
		C395.5,263.4,393.7,262.5,391.8,261.2 M360.6,172.9c-1.3,1-3.1,1.7-3.8,2.9c-2,3.6-3.5,7.5-5.2,11.4c-0.6-0.6-0.9-0.8-1.1-1.1
		c-1.3-3-2.5-6.1-3.7-9.1c-1.7-4.5-4.2-5.4-9.1-2.9c6.3,12.3,13.2,24.6,9.6,39.7c3,0,5.1,0,8.1,0c-3.2-14.8,3.7-27.2,9.7-40.3
		C363.3,173.2,362.2,173.1,360.6,172.9 M482,259.7c0-9.5,0-19.1,0-28.5c-7-1-7-1-7,5.3c0,6.1,0,12.1,0,18.2c0,5.5,0,11.1,0,16.7
		c6,0,11.3,0,17.1,0c-0.2-2.3-0.3-4.4-0.5-6.8c-3.3,0-6.3,0-9.5,0C482.1,262.9,482,261.7,482,259.7 M505,270.7
		c-0.1-12.4-0.2-24.8-0.2-37.2c0-3.1-2-2.9-4-3c-2.7-0.2-3.2,1.1-3.2,3.4c0,5.8-0.2,11.7-0.2,17.5c0,6.7,0,13.3,0,20.4
		C500.4,271.6,502.5,271.5,505,270.7z"/>
	<path class="st1" d="M114.5,347.7c-1.7-3.9-3.3-7.6-5.2-11.9c-3.5,0-7.7-0.1-11.8,0.1c-0.8,0-1.8,1.5-2.1,2.5
		c-2.9,11.6-10.2,19-21.5,22.5c-16,5-34.5-5.5-38.1-21.8c-0.6-2.7-1.6-3.5-4.2-3.4c-4.2,0.1-5.7-1.5-5.8-5.7c0-1.8,0-3.5,0-5.3
		c0-8.8,3.1-12.9,11.5-15.5c0.9-0.3,1.9-1.5,2.1-2.4c3.6-25.9,17.4-44,41.2-54.6c1.2-0.5,2.4-2.1,2.7-3.5c2.5-11.6,11-18.9,22-18.8
		c11,0.1,19.6,7.8,21.7,19.2c0.2,1,1,2.4,1.8,2.8c24.9,10.5,38.6,29.3,42.1,55.9c0,0.2,0.1,0.5,0.3,0.9c1.1,0.3,2.3,0.6,3.5,0.9
		c5.6,1.7,9.1,6.1,9.7,11.9c0.1,0.6,0.1,1.3,0.1,1.9c0.4,11.5,0.4,11.5-11.1,12.3c-1.1,0.1-2.6,1.4-2.9,2.4
		c-5.1,16.8-17.6,25.6-35,23.4C126.6,360.5,119.5,355.7,114.5,347.7 M58.8,280.1c-6,8.6-9.8,18.1-10.6,28.7c38.1,0,75.9,0,114,0
		c-1.8-16.5-8.9-29.8-21.5-40C118,250.2,79.8,251.8,58.8,280.1 M83.4,326.8c30.8,0,61.5,0,92.2,0c0.4-7.5-0.7-8.6-7.5-8.6
		c-42,0-83.9,0-125.9,0c-6.7,0-8.1,1.6-6.9,8.6C50.9,326.8,66.8,326.8,83.4,326.8 M120.8,341c5,9.2,13.8,13.7,23.3,11.9
		c9.5-1.8,16.4-8.4,17.5-16.8c-3.7-0.5-3.7-0.5-5.3,2.8c-3.2,6.5-8.7,9.9-15.8,9.9c-7.1,0-12.7-3.4-15.7-10
		c-1.2-2.7-2.6-3.7-5.7-2.5C119.6,337.6,120,339.1,120.8,341 M81.3,338.9c-3.4,6.5-8.9,10.1-16.2,9.8c-7.3-0.2-12.8-3.8-15.6-10.7
		c-1.2-2.9-3-2.4-5.1-2c1.7,9.8,10.9,17.3,21.1,17.3c10.3,0,19.5-7.4,21.2-17.2C84.3,335.4,82.2,335.2,81.3,338.9 M116.4,245
		c-4.4-5.5-9.4-7.3-15.2-5.5c-4.6,1.5-7.6,4.8-7.9,8.6c8.1,0,16.2,0,24.4,0C117.4,247.2,117,246.3,116.4,245 M66.9,340
		c1.9-1.1,3.8-2.1,5.8-3.2c-0.2-0.3-0.4-0.6-0.5-0.8c-4.4,0-8.9,0-13.9,0C60.6,339.1,63.2,340.2,66.9,340 M141.1,335.7
		c-2.5,0-5,0-8.2,0c5.5,5.9,11.4,5.7,14.3,0C145.3,335.7,143.6,335.7,141.1,335.7z"/>
	<path class="st2" d="M258.7,217.2c20.1,11.4,32.8,28.2,38.4,50.4c7,27.6-4.4,60.1-27,77.6c-14.4,11.2-30.5,16.7-48.6,16.8
		c-14.7,0.1-29.4,0-44.1,0c-0.8,0-1.8,0.2-2.2-0.2c-1.4-1.1-3.4-2.3-3.5-3.7c-0.1-1.4,1.4-3.3,2.7-4.3c1.1-0.8,2.9-0.6,4.4-0.6
		c14.1,0,28.2,0.1,42.2,0c33.6-0.2,60.3-21.6,67.7-54c9.2-40.3-21.7-81.3-63-82.1c-40.4-0.8-80.9-0.3-121.4-0.4
		c-6.3,0-12.7,0.2-19-0.4c-14.2-1.4-24.6-13.1-24.2-26.5c0.5-14.6,11.7-25.6,26.5-26c1,0,2,0,3,0c52.3,0,104.5,0,156.8,0
		c5.3,0,7.5,1.2,7.5,4.3c0.1,3.3-2,4.6-7.6,4.6c-52.4,0-104.8,0-157.2,0c-10.7,0-17.6,4.8-19.7,13.7c-2.4,10.4,4.8,20.5,15.5,21.5
		c1.6,0.2,3.3,0.1,4.9,0.1c42.6,0,85.2,0.1,127.9-0.1C232.8,207.8,246,210.8,258.7,217.2z"/>
	<path class="st3" d="M193,87c3,12.5,5.1,25,9.9,36.7c0.5,0,0.9,0.1,1.4,0.1c1.3-4.7,2.8-9.3,3.8-14c1.9-8.4,3.7-16.8,5.4-25.3
		c0.6-2.9,1.6-4.3,4.9-4.2c8.9,0.2,8.5,0,9.6,8.9c2.5,20.9,5.3,41.7,8.1,62.5c0.9,6.2,1.1,6.2-5,6.2c-7.6,0-7.5,0-8.5-7.8
		c-1.1-8.7-2.4-17.5-3.6-26.2c-0.4,0-0.8-0.1-1.2-0.1c-0.7,2.1-1.5,4.1-2,6.2c-2,8.4-4.1,16.7-5.9,25.1c-0.5,2.2-1.4,3-3.5,2.9
		c-10.1-0.4-7.7,2-10.4-8.2c-2-7.3-3.9-14.7-5.8-22c-0.3-1.3-0.9-2.5-1.4-3.8c-0.4,0-0.9,0-1.3,0c-1.4,11.2-2.9,22.5-4.3,33.6
		c-0.6,0.2-0.9,0.3-1.3,0.4c-11.8,1.1-12,0.8-10.6-10.8c2.5-20.7,4.8-41.5,7.1-62.3c0.3-3.2,1.6-4.6,4.8-4.3c0.6,0.1,1.3,0,1.9,0
		C191.6,80,191.6,79.6,193,87z"/>
	<path class="st4" d="M146.7,93.8c3.9,18.1,7.7,35.9,11.5,53.7c0.2,0.9,0.5,1.7,0.6,2.6c0.2,2.3,0.4,4.6,0.6,6.8
		c-3.6,0.1-7.4,0.6-10.9-0.1c-1.1-0.2-2-3.6-2.4-5.6c-0.7-3.5-2.4-5.1-6-4.6c-0.9,0.1-1.8-0.1-2.7-0.1c-7.8-0.2-7.9-0.2-9.6,7.2
		c-0.6,2.7-1.8,3.9-4.6,3.7c-2.9-0.2-5.8,0-9.5,0c5.7-26,11.3-51.3,16.9-76.8c1.7,0,3,0,4.4,0c9.2,0.1,9.2,0.1,10.7,9.2
		C146.1,91,146.4,92.2,146.7,93.8 M135.5,133.7c2,0,4.1,0,6.6,0c-1.6-7.3-3-13.9-4.5-20.4c-2.3,6.2-3.8,12.4-5,18.6
		C132.5,132.3,134.1,133.1,135.5,133.7z"/>
	<path class="st5" d="M308,115.7c-1.4,12.8-8.1,22.9-14.8,32.8c-5,7.4-10.7,14.4-16.3,21.5c-2.6,3.3-5.5,3.5-8,0.5
		c-11.6-14.1-23-28.4-29.5-45.8c-6.5-17.7,5.1-38.7,23.5-43.2C286.7,75.7,306.7,90.7,308,115.7 M249.9,127.4
		c6.1,12.2,14.1,23,22.8,33.8c9.3-11.9,18.2-23.5,24.3-37c5.1-11.3-0.1-22.3-6-27.8c-8.3-7.8-20.4-9.5-29.9-4.7
		C249.8,97.4,241.6,111.9,249.9,127.4z"/>
	<path class="st4" d="M85.8,136.7c-0.1,6.2-0.2,12-0.1,17.9c0,2.5-0.6,3.6-3.4,3.7c-9.8,0.4-9.8,0.4-9.8-9.4
		c0-25.9,0-25.9-12.7-52.5c-1.9-3.9-3.7-7.8-5.6-11.6c-1.3-2.7-0.6-4.2,2.5-4.2c0.1,0,0.3,0,0.4,0c10-0.4,9.9-0.4,13.5,8.9
		c1.9,5,3.9,9.9,5.9,14.8c0.5,1.2,1.2,2.4,2.2,4.4c2.7-6,5-11.2,7.3-16.3c0.8-1.7,1.5-3.5,2.3-5.2c3.1-6.9,3.5-7.2,11.2-6.7
		c3.8,0.2,4.6,1.2,3.2,4.7c-3.1,7.5-6.3,14.9-9.5,22.4c-0.9,2.1-1.6,4.3-2.8,6.2C86.3,120.7,85.6,128.4,85.8,136.7z"/>
	<path class="st2" d="M342.2,249.9c-1.3-5.2-2.5-10.1-3.6-15.1c-0.3-1.5-1.7-3.9,1.2-4.1c2.2-0.2,5.2-1.3,6,2.7
		c1.2,5.7,2.6,11.3,4,17c0.1,0.5,0.3,0.9,1.2,1.5c1.1-5.8,2.2-11.6,3.2-17.5c0.4-2.7,1.5-3.9,4.5-3.7c2.5,0.2,3.6,0.8,3.9,3.4
		c0.8,5.9,1.9,11.7,3.6,17.7c0.3-0.8,0.8-1.6,1-2.5c1.3-4.9,2.5-9.8,3.6-14.7c0.6-2.5,1.6-4,4.6-3.9c3.1,0.1,4,0.9,3.1,4.1
		c-2.4,8.4-4.5,16.9-6.7,25.3c-0.7,2.7-1.3,5.4-1.8,8.2c-0.4,2.2-1,3.5-3.8,3.6c-2.8,0-3.7-1.1-4.1-3.6c-0.5-3.2-1.3-6.5-2.1-9.7
		c-0.3-1.4-1.1-2.6-2.5-3.8c-1.2,5.5-2.5,10.9-3.7,16.4c-5.4,1.5-6.1,1.2-7.3-3.9C345,261.5,343.6,255.9,342.2,249.9z"/>
	<path class="st6" d="M439.3,233.4c8.6,5.7,9.2,25.6,2.2,33.1c-3.1,3.3-14.2,6.4-18.5,4.6c-0.8-0.3-1.7-1.8-1.7-2.8
		c-0.1-11.4-0.1-22.8-0.1-34.1c0-2.4,0.9-3.8,3.6-3.7C429.7,230.7,434.8,229.9,439.3,233.4 M431.5,264.6c2-1.8,4.9-3.2,5.8-5.4
		c2.4-5.8,2.2-11.9-0.5-17.6c-1.6-3.4-4.4-4.6-8.4-3.9c0,8.4-0.1,16.8,0.1,25.1C428.6,263.4,430.1,264,431.5,264.6z"/>
	<path class="st7" d="M530.6,175.5c8.5,5.8,8.9,24.9,2.8,32.3c-3.2,3.9-14.3,7.4-19.3,5.5c-0.8-0.3-1.6-1.6-1.7-2.5
		c-0.1-11.8,0-23.6,0.1-35.3c0-0.9,1.3-2.6,2-2.6C520,172.6,525.6,171.7,530.6,175.5 M519.8,191.2c0,5.1,0,10.3,0,15.4
		c4.6,0.3,6.8-0.7,8.4-4.3c2.8-6.3,2.7-12.8-0.3-19c-1.6-3.2-4.4-4.1-8.1-3.6C519.8,183.5,519.8,187,519.8,191.2z"/>
	<path class="st8" d="M492,199.2c-0.3,4.8-0.3,9.6-0.3,14.6c-2.7,0-4.7,0-6.9,0c-0.1-1.1-0.3-2.1-0.3-3.1c0-11.3,0.1-22.6-0.1-33.9
		c0-2.9,0.8-4.3,3.9-4c1.8,0.1,3.5,0,5.3,0c4.8,0,8.4,1.8,10.3,6.3c2,4.6,2.3,9.6-1.5,13.1c-3.7,3.4-3.1,6.1-0.9,9.7
		c2.1,3.6,3.8,7.4,5.6,11.2c-5.8,2-7.4,1.4-9.7-3.4C495.8,206.2,494,202.7,492,199.2 M492.8,192.2c3.6-0.5,5.5-3,5.2-6.3
		c-0.2-2-1.9-4-3.2-5.8c-0.3-0.4-3.1,0.5-3.1,0.9C491.7,184.7,492,188.4,492.8,192.2z"/>
	<path class="st2" d="M588.4,270.8c-5.3,2.2-7,1.6-9.1-3c-1.7-3.7-3.5-7.4-6-10.9c0,4.7,0,9.4,0,14.7c-2.3,0.1-4.4,0.2-6.7,0.3
		c-0.1-1.3-0.3-2.3-0.3-3.3c0-11.4,0.1-22.8-0.1-34.2c0-2.8,0.8-4,3.7-3.7c1.5,0.1,3,0.1,4.6,0c5.2-0.2,9.2,1.5,11.3,6.5
		c2.2,5.3,1.7,10.3-2.7,14.2c-2.2,2-2.4,3.5-1,6C584.5,261.7,586.4,266.2,588.4,270.8 M579.3,240.8c-0.9-0.9-1.7-2.3-2.8-2.7
		c-0.9-0.3-3.1,0.5-3.2,0.9c-0.3,3.5-0.1,7.1-0.1,10.7C578.6,249.3,580.3,246.9,579.3,240.8z"/>
	<path class="st9" d="M567.2,177.4c-0.5-3.4,0.7-4.9,4-4.5c1.4,0.2,2.8,0.1,4.2,0c5.2-0.2,9.2,1.6,11.4,6.5
		c2.3,5.2,1.5,10.3-2.7,14.3c-2.2,2-2.4,3.5-0.9,6.1c2.3,4.1,4.2,8.4,6.2,12.6c0.1,0.3,0,0.7,0,1.1c-6.2,1.6-6.9,1.3-9.5-4.3
		c-1.6-3.4-3.3-6.7-5.6-10c0,4.7,0,9.4,0,14.5c-2.4,0-4.5,0-7,0C567.2,201.7,567.2,189.7,567.2,177.4 M574.1,191.3
		c3.1,1.9,4.7-0.4,5.8-2.5c1.7-3.1,0.6-7.1-1.9-8.5c-2.6-1.4-4.1-0.6-4.1,2.4C573.9,185.4,574,188,574.1,191.3z"/>
	<path class="st9" d="M405.8,178.1c0.1-5.4,1-6,7.3-4.7c0,4.7,0,9.5,0,14.3c0,4.7,0,9.4,0.2,14.1c0.1,2.4,0.8,4.7,3.6,5
		c3,0.3,4.3-1.9,4.8-4.4c0.4-2,0.6-4,0.7-6c0.1-7.6,0-15.2,0-22.7c6.1-1.8,7.1-1.1,7,4.8c-0.1,8.1,0,16.2-0.4,24.3
		c-0.4,8.6-6.1,12.7-14.5,11c-4.7-0.9-7.8-3.8-8.2-9.2C405.9,196,406,187.2,405.8,178.1z"/>
	<path class="st10" d="M370.9,201.2c-0.1-5.3-0.7-10.4-0.1-15.4c1-7.7,7.7-13.2,14.6-12.9c7.1,0.3,13.5,5.8,14.1,13.5
		c0.5,5.4,0.3,11.2-0.8,16.5c-1.6,7.1-7.3,11.2-13.6,11.2c-6.3,0-11.5-4.2-13.7-11.1C371.3,202.4,371.1,202,370.9,201.2
		 M390.4,181.5c-3.9-4.9-9.5-3.2-12,2.4c-2.6,5.7-2.5,11.8-0.6,17.8c1.2,3.6,3.7,5.8,7.5,5.8c3.7,0,6.1-2.4,7.2-5.8
		C394.5,194.9,394.6,188.2,390.4,181.5z"/>
	<path class="st9" d="M450.7,204.4c-2.1-5.9-2.4-11.7-1.5-17.5c1.3-8.1,7.5-14,14.6-14c7.1,0,13.7,5.5,14.6,13.5
		c0.6,5.4,0.2,11.2-0.9,16.5c-1.4,6.7-6.8,10.8-12.8,11.2C458.7,214.4,453.7,211,450.7,204.4 M471.8,187.1c-0.3-0.8-0.5-1.7-0.9-2.5
		c-1.5-3-3.3-5.9-7.2-5.8c-3.8,0.1-5.8,2.8-7,6c-2.1,5.6-2.1,11.4-0.2,17.1c1.3,3.6,3.9,5.7,7.7,5.6c3.6-0.1,6.4-2.3,6.9-5.9
		C471.9,197,471.7,192.3,471.8,187.1z"/>
	<path class="st9" d="M521,244.5c0.9,4,1.8,7.7,2.6,11.3c0.3,0,0.6,0.1,0.9,0.1c1-4.3,2-8.6,3-12.8c0.8-3.2,1.6-6.4,2.3-9.6
		c0.8-3.7,3.7-3,6.1-2.7c2.9,0.4,1.5,2.7,1.1,4.2c-2.8,11.2-5.8,22.3-8.5,33.5c-0.6,2.5-1.6,3.5-4.3,3.4c-2.5-0.1-3.6-0.8-4.2-3.3
		c-2.8-11.4-5.8-22.8-8.7-34.2c-0.3-1.1-0.3-2.2-0.5-3.2c6.6-1.3,7.1-1.1,8.3,4.8C519.7,238.8,520.3,241.5,521,244.5z"/>
	<path class="st11" d="M557,172.6c4.5-0.7,3.6,2.4,3.8,4.6c0.3,3-1.9,2.4-3.6,2.4c-7.3,0.2-7.3,0.2-6.5,8.5c2.1,0,4.4,0.2,6.6-0.1
		c2.6-0.3,3.1,1,3.1,3.1c0,2,0.2,4-3,4.1c-8,0.4-8,0.6-6.6,10.6c2.1,0,4.4,0,6.6,0c3.1-0.1,3.3,1.9,3.4,4.3c0,2.4-0.9,3.6-3.3,3.6
		c-3.7,0-7.4,0-11,0c-2.3,0-3.3-1.1-3.3-3.2c0-11.7,0.1-23.3,0.2-35c0-2.2,1-2.8,3.1-2.8C549.8,172.7,553.2,172.6,557,172.6z"/>
	<path class="st12" d="M466.3,230.4c4-0.2,3,2.6,3.2,4.5c0.3,2.5-1.4,2.6-3.2,2.5c-0.1,0-0.3,0-0.4,0c-7.5,0.2-7.5,0.2-6.6,8.4
		c2.3,0,4.6-0.3,6.9,0.1c1,0.2,2.4,1.5,2.6,2.5c0.3,1.7,0.9,4-2,4.5c-0.1,0-0.3,0-0.4,0c-2.3,0.2-6.3-0.2-6.7,0.8
		c-1.1,2.7-0.7,6.1-0.9,9.8c2.9,0,5.2,0,7.6,0c2.6,0,3,1.6,3.1,3.8c0.1,2.2-0.4,3.8-2.9,4c-0.4,0-0.8,0.1-1.1,0.1
		c-15.9-0.4-13.6,2.7-13.8-13c-0.1-8,0.3-16,0.2-24c0-3.2,1.1-4.2,4.2-4C459.4,230.7,462.7,230.5,466.3,230.4z"/>
	<path class="st12" d="M557,230.5c3.9-0.7,3.7,1.7,3.9,4.1c0.3,2.9-1.6,2.9-3.6,2.9c-7.5,0.2-7.5,0.2-6.7,8.4c2.3,0,4.6,0.2,6.9,0
		c2.4-0.2,2.8,1.1,2.8,3c0,1.8,0.5,4-2.5,4.2c-2.4,0.2-6.5-0.1-7,1c-1,2.6-0.3,5.9-0.3,9.6c2.2,0,4.4,0.1,6.6,0
		c2.6-0.1,3.5,1,3.7,3.6c0.1,2.7-0.8,4.2-3.5,4.2c-3.7,0-7.3,0-11-0.1c-2.1,0-3.2-0.9-3.2-3.2c0.1-7.5,0-14.9,0-22.4
		c0-4,0.2-8.1,0.1-12.1c0-2.2,0.7-3.2,3.1-3.1C549.8,230.6,553.2,230.5,557,230.5z"/>
	<path class="st12" d="M391.8,261.6c1.9,0.9,3.7,1.8,5.6,1.9c2.9,0.1,4.8,0.3,4.8,4.1c0,3.5-1.9,3.9-4.6,3.9
		c-3.3-0.1-6.6-0.1-9.9-0.1c-2.1,0-3.2-0.8-3.2-3.2c0.1-11.5,0-23.1,0.1-34.6c0-1,1.5-2.8,2.4-2.8c4.8-0.3,9.6-0.1,14.7-0.1
		c0,2.2,0,4.3,0,6.7c-3.1,0.1-6.2,0.3-9.7,0.4c0,2.8,0,5.2,0,8.2c2.3,0,4.4,0.2,6.5,0c2.4-0.2,3.2,0.8,3.2,3c0,2.1,0.1,4.2-3,4.2
		c-2.1,0-4.3,0-6.7,0C392,256,391.9,258.6,391.8,261.6z"/>
	<path class="st10" d="M360.9,172.9c1.4,0.2,2.4,0.3,4.2,0.6c-6,13.1-12.9,25.5-9.7,40.3c-3,0-5,0-8.1,0c3.6-15-3.3-27.3-9.6-39.7
		c4.9-2.5,7.4-1.6,9.1,2.9c1.2,3.1,2.4,6.1,3.7,9.1c0.1,0.3,0.5,0.6,1.1,1.1c1.8-3.9,3.3-7.8,5.2-11.4
		C357.5,174.5,359.3,173.9,360.9,172.9z"/>
	<path class="st8" d="M482,260.1c0.1,1.6,0.1,2.8,0.2,4.5c3.2,0,6.1,0,9.5,0c0.2,2.4,0.3,4.5,0.5,6.8c-5.8,0-11.2,0-17.1,0
		c0-5.6,0-11.2,0-16.7c0-6.1,0-12.1,0-18.2c0-6.3,0-6.3,7-5.3C482,240.6,482,250.2,482,260.1z"/>
	<path class="st4" d="M504.8,271c-2.3,0.4-4.4,0.6-7.4,0.8c0-7.1,0-13.7,0-20.4c0-5.8,0.2-11.7,0.2-17.5c0-2.3,0.5-3.6,3.2-3.4
		c2.1,0.1,4.1-0.1,4,3C504.8,245.9,505,258.3,504.8,271z"/>
	<path class="st13" d="M59,279.9c20.8-28.1,59-29.7,81.8-11.1c12.6,10.3,19.7,23.5,21.5,40c-38.1,0-75.9,0-114,0
		C49,298.2,52.8,288.8,59,279.9 M91.8,271.8c4.1-0.7,8.2-1.5,12.3-2.1c3.7-0.6,5.8-2.3,5.4-5c-0.5-3.6-3.2-3.8-6-3.7
		c-11.8,0.3-22.3,4.2-31.5,11.6c-8.4,6.8-14.2,15.4-17.4,25.8c-0.9,2.7-0.2,4.9,2.4,6c2.8,1.1,4.6-0.3,5.7-2.8
		c0.3-0.6,0.5-1.2,0.7-1.8C68.4,286.2,77.6,276.9,91.8,271.8z"/>
	<path class="st14" d="M83,326.8c-16.2,0-32,0-47.8,0c-1.1-7,0.2-8.6,6.9-8.6c42,0,83.9,0,125.9,0c6.9,0,8,1.2,7.5,8.6
		C144.9,326.8,114.1,326.8,83,326.8z"/>
	<path class="st15" d="M120.6,340.7c-0.6-1.7-1.1-3.1-1.5-4.6c3-1.2,4.4-0.2,5.7,2.5c3,6.6,8.5,10,15.7,10c7.1,0,12.6-3.4,15.8-9.9
		c1.6-3.3,1.6-3.3,5.3-2.8c-1.1,8.4-8,15.1-17.5,16.8C134.6,354.7,125.8,350.2,120.6,340.7z"/>
	<path class="st15" d="M81.4,338.6c0.8-3.5,2.9-3.2,5.3-2.6c-1.6,9.8-10.8,17.2-21.2,17.2c-10.3,0-19.4-7.5-21.1-17.3
		c2.1-0.4,4-1,5.1,2c2.8,6.9,8.2,10.5,15.6,10.7C72.4,349,77.9,345.4,81.4,338.6z"/>
	<path class="st16" d="M116.5,245.2c0.5,1.1,0.9,2,1.3,2.9c-8.3,0-16.4,0-24.4,0c0.3-3.8,3.3-7.1,7.9-8.6
		C106.9,237.7,112,239.5,116.5,245.2z"/>
	<path class="st15" d="M66.7,340.1c-3.5,0.1-6.1-1-8.4-4.1c5,0,9.4,0,13.9,0c0.2,0.3,0.4,0.6,0.5,0.8
		C70.8,337.9,68.9,339,66.7,340.1z"/>
	<path class="st15" d="M141.5,335.7c2.1,0,3.8,0,5.7,0c-2.9,5.7-8.8,5.9-14.3,0C136.1,335.7,138.6,335.7,141.5,335.7z"/>
	<path class="st17" d="M249.7,127.1c-8.1-15.3,0.1-29.8,11.3-35.4c9.5-4.8,21.6-3.1,29.9,4.7c5.9,5.6,11.1,16.5,6,27.8
		c-6.1,13.5-15,25.1-24.3,37C263.9,150.4,255.9,139.5,249.7,127.1 M278.2,131.9c9.8-3.4,14.6-13.6,10.7-23.3
		c-3.6-9-14.4-13.3-23.4-9.3c-8.4,3.8-12.3,13-9.3,21.9C259.2,130,267.8,134.4,278.2,131.9z"/>
	<path class="st17" d="M431.2,264.6c-1.1-0.6-2.6-1.3-2.7-2c-0.2-8.3-0.1-16.6-0.1-25.1c4-0.6,6.9,0.5,8.4,3.9
		c2.7,5.8,2.9,11.9,0.5,17.6C436.4,261.4,433.5,262.8,431.2,264.6z"/>
	<path class="st18" d="M519.8,190.9c0-3.9,0-7.4,0-11.1c3.7-0.5,6.5,0.3,8.1,3.6c3,6.2,3.1,12.7,0.3,19c-1.6,3.6-3.8,4.6-8.4,4.3
		C519.8,201.5,519.8,196.4,519.8,190.9z"/>
	<path class="st19" d="M492.5,192.1c-0.5-3.7-0.9-7.4-0.9-11.1c0-0.3,2.9-1.2,3.1-0.9c1.4,1.7,3,3.7,3.2,5.8
		C498.3,189.2,496.4,191.7,492.5,192.1z"/>
	<path class="st16" d="M579.4,241.1c0.8,5.8-0.8,8.2-6.2,8.7c0-3.6-0.1-7.2,0.1-10.7c0-0.4,2.3-1.2,3.2-0.9
		C577.7,238.5,578.4,239.8,579.4,241.1z"/>
	<path class="st16" d="M573.2,191c-0.1-3-0.2-5.6-0.1-8.3c0.1-3,1.6-3.8,4.1-2.4c2.4,1.3,3.5,5.4,1.9,8.5
		C577.9,190.9,576.4,193.2,573.2,191z"/>
	<path class="st18" d="M390.5,181.7c4.1,6.5,4,13.2,1.9,19.9c-1,3.4-3.4,5.8-7.2,5.8c-3.8,0-6.4-2.2-7.5-5.8c-1.9-6-2-12,0.6-17.8
		C380.9,178.3,386.5,176.6,390.5,181.7z"/>
	<path class="st17" d="M471.9,187.4c-0.2,4.9,0,9.6-0.7,14.1c-0.5,3.6-3.3,5.8-6.9,5.9c-3.8,0.1-6.4-2-7.7-5.6
		c-2-5.7-1.9-11.4,0.2-17.1c1.2-3.2,3.2-5.9,7-6c3.9-0.1,5.7,2.8,7.2,5.8C471.3,185.3,471.5,186.2,471.9,187.4z"/>
	<path class="st5" d="M91.5,271.9c-13.9,5-23.1,14.3-28,27.9c-0.2,0.6-0.4,1.2-0.7,1.8c-1.1,2.5-3,4-5.7,2.8c-2.6-1.1-3.3-3.2-2.4-6
		c3.2-10.3,9-18.9,17.4-25.8c9.2-7.5,19.7-11.3,31.5-11.6c2.8-0.1,5.5,0.1,6,3.7c0.4,2.8-1.6,4.5-5.4,5
		C100,270.3,95.9,271.1,91.5,271.9z"/>
	<path class="st5" d="M277.9,132c-10.2,2.4-18.7-2-21.7-10.8c-3-8.9,0.9-18.1,9.3-21.9c9-4,19.8,0.2,23.4,9.3
		C292.8,118.3,288,128.6,277.9,132 M265.3,110.7c-1.9,3.7-1.9,7.3,1,10.5c2.4,2.6,5.4,3.7,8.9,2.5c3.7-1.3,6.3-4.5,6.3-8.1
		c0-3.9-1.9-6.8-5.4-8.3C272.4,105.6,269.1,106.6,265.3,110.7z"/>
	<path class="st17" d="M265.4,110.5c3.7-3.9,6.9-4.9,10.6-3.3c3.6,1.6,5.4,4.5,5.4,8.3c0,3.7-2.5,6.9-6.3,8.1
		c-3.5,1.2-6.5,0-8.9-2.5C263.3,118.1,263.3,114.5,265.4,110.5z"/>
</g>
<g id="Calque_2">
</g>
</svg>
