<?xml version="1.0" encoding="utf-8"?>
<!-- Generator: Adobe Illustrator 24.0.0, SVG Export Plug-In . SVG Version: 6.00 Build 0)  -->
<svg version="1.1" id="Calque_1" xmlns="http://www.w3.org/2000/svg" xmlns:xlink="http://www.w3.org/1999/xlink" x="0px" y="0px"
	 viewBox="0 0 88 88" style="enable-background:new 0 0 88 88;" xml:space="preserve">
<style type="text/css">
	.st0{clip-path:url(#SVGID_2_);}
	.st1{fill:#ECA4A4;}
	.st2{fill:#262626;}
	.st3{fill:#606262;}
	.st4{fill:#FFFFFF;}
	.st5{opacity:0.9;}
	.st6{opacity:0.9;fill:none;stroke:#3B5648;stroke-width:3.300000e-03;stroke-miterlimit:10;enable-background:new    ;}
	.st7{fill:none;stroke:#3B5648;stroke-width:3.300000e-03;stroke-miterlimit:10;}
	.st8{fill:#DC4A43;}
	.st9{fill:#FCF9F8;}
	.st10{fill:#FCF8F7;}
	.st11{fill:#FDFBFB;}
	.st12{fill:#FDFBFA;}
	.st13{fill:#FCF9F7;}
	.st14{fill:#FBF5F4;}
	.st15{fill:#FBF5F3;}
	.st16{fill:#FCFAF8;}
	.st17{fill:#FCF7F6;}
	.st18{fill:#FBF6F5;}
	.st19{fill:#FAF4F2;}
	.st20{fill:#FAF5F4;}
	.st21{fill:#DA4B45;}
	.st22{fill:#D84B45;}
	.st23{fill:#D7534E;}
	.st24{fill:#D9504B;}
	.st25{fill:#DA4D47;}
	.st26{fill:#DB4C46;}
	.st27{fill:#DB5954;}
</style>
<g>
	<defs>
		<rect id="SVGID_1_" width="88" height="88"/>
	</defs>
	<clipPath id="SVGID_2_">
		<use xlink:href="#SVGID_1_"  style="overflow:visible;"/>
	</clipPath>
	<g class="st0">
		<path class="st1" d="M6.5,48.8c-13.4-14.7,0-35.5,17.2-25.6c5.8,3.6,20.6-7.6,28.2,5.4c4.6,8,9.1,5.2,21.6,5.3
			c14.9,0.8,18.8,34.4-9,37.8c-13.9,0.5-17.8,12.6-35,7.2C12.5,73.5,19.9,63.5,6.5,48.8z"/>
		<path class="st2" d="M55.4,36.9c0,6.1-0.1,12.2,0,18.3c0.1,5.6,0.2,11.2,0.1,16.8c-0.1,3.7-0.9,7.6-7.6,7.7
			c-2.9,0.1-5.6,0-8.5-0.1c-1.6-0.1-3.8,0.1-5.9-0.1c-4.1-0.4-6.2-3.3-6.3-7.6c-0.1-6.9-0.3-38.8-0.2-45.8c0-1.9,0-3.5,0.4-5.4
			c0.4-1.8,2.3-3.1,4-3.1c4.5-0.2,9-0.2,13.5-0.2c2,0,4.4,0,6.3,0.2c1.8,0.2,3.4,0.8,3.6,3.1c0.3,3,0.4,6.3,0.5,9.3
			C55.4,32.4,55.4,34.7,55.4,36.9z"/>
		<path class="st3" d="M38.2,22.6c-0.1-0.2,0-0.4,0.1-0.5c0,0,0,0,0.1,0c1.6,0,3.2-0.1,4.8-0.1c0.2,0,0.3,0,0.5,0
			c0.2,0,0.3,0.1,0.2,0.3c0,0.2,0,0.4-0.3,0.4c-1.5-0.2-3.1,0-4.6,0C38.7,22.6,38.5,22.6,38.2,22.6C38.2,22.7,38.2,22.6,38.2,22.6z"
			/>
		<path class="st3" d="M41.4,20.1c0,0.1-0.1,0.2-0.3,0.3c0,0,0,0-0.1,0c-0.1,0-0.1,0-0.2,0c-0.2,0-0.3-0.1-0.3-0.3c0,0,0,0,0-0.1
			c0-0.3,0-0.5,0.3-0.6c0,0,0,0,0.1,0c0.1,0,0.2,0,0.3,0.1c0,0,0,0,0.1,0.1c0,0,0,0,0,0c0,0,0,0,0,0.1c0,0,0,0,0,0.1
			C41.4,19.9,41.4,20,41.4,20.1C41.4,20.1,41.4,20.1,41.4,20.1z"/>
		<path class="st3" d="M35.1,22.7c-0.2,0.1-0.4,0-0.5-0.1c0,0,0,0-0.1,0c-0.1-0.1-0.1-0.1-0.1-0.2c-0.1-0.2,0-0.4,0.1-0.5
			c0,0,0,0,0.1-0.1c0.3-0.2,0.6-0.3,0.9-0.1c0,0,0,0,0.1,0.1c0.1,0.1,0.1,0.2,0.1,0.4c0,0,0,0.1,0,0.1c0,0,0,0,0,0.1
			c0,0,0,0.1-0.1,0.1c0,0,0,0-0.1,0.1C35.3,22.5,35.2,22.6,35.1,22.7C35.1,22.7,35.1,22.7,35.1,22.7z"/>
		<path class="st4" d="M54.1,68.1c-0.6-10.8,0.1-21.6-0.4-32.4c-0.1-2.7-0.1-4.3-0.2-7c0-1.8-0.2-2.4-0.2-3.2
			c-0.1-1-7.9-0.2-8.6-0.2c-4.4-0.1-10,0.2-14.9,0.3c-0.2,0-0.4,0.1-0.5,0.4c-0.2,1-0.2,3-0.2,3.8c-0.2,5.3,0,10.5-0.2,15.9
			c-0.2,6.7,0.6,11.3,0.5,18.1c0,2,0,4,0.2,6.8c0,0.6,1.3,0.6,1.6,0.6c7-0.3,15.6,0.5,22.6-0.3c0.1,0,0.2-0.1,0.2-0.3
			c0-1,0-0.8,0-1.7L54.1,68.1z"/>
		<path class="st3" d="M43.5,75.7c0,0.5-0.1,1-0.5,1.5c-0.3,0.5-0.8,0.8-1.4,0.7c-1,0-1.8-0.4-2.4-1.3c-0.2-0.3-0.3-0.7-0.3-1.1
			c0-0.2,0.1-0.4,0.2-0.6c0.3-0.5,0.6-1,1.1-1.3c0.4-0.3,0.8-0.3,1.3-0.3c1,0.2,1.8,0.9,2,1.9C43.5,75.4,43.5,75.5,43.5,75.7z"/>
		<g class="st5">
			<g class="st5">
				<g class="st5">
					<g class="st5">
						<path class="st6" d="M81.6,52.3l-2,0"/>
					</g>
					<g class="st5">
						<path class="st6" d="M75.7,40l1.7-1"/>
					</g>
					<g class="st5">
						<path class="st6" d="M49.9,62.2l1.7-1"/>
					</g>
					<g class="st5">
						<path class="st6" d="M45.3,49.6l2,0"/>
					</g>
					<g class="st5">
						<path class="st6" d="M50.3,38l1.5,1.3"/>
					</g>
					<g class="st5">
						<path class="st6" d="M72.8,61l1.5,1.3"/>
					</g>
				</g>
			</g>
		</g>
		<path class="st7" d="M64.1,31.9l0.1,2"/>
	</g>
</g>
<g>
	<g id="Layer_1_1_">
		<path class="st8" d="M46.4,52.3c-4.7,0-9.4,0-14,0c0-3.3,0-6.7,0-10c6.1,0,12.2,0,18.3,0c0,3.3,0,6.7,0,10
			C49.3,52.3,47.8,52.3,46.4,52.3 M35.8,51c0.1,0.2,0.4,0.4,0.6,0.4c0.5,0.1,0.9-0.2,1-0.7c0,0,0.1-0.1,0.1-0.1c0.3,0,0.3,0,0.3-0.4
			c0,0,0,0,0-0.1c0-0.2-0.1-0.3-0.3-0.4c0,0-0.1,0-0.1,0c0,0,0,0,0,0c-0.1-0.8-0.5-1.4-1.3-1.7c0,0,0-0.1-0.1-0.1
			c-0.1-0.3-0.3-0.6-0.6-0.6c-0.3,0-0.6,0.2-0.7,0.6c0,0,0,0.1-0.1,0.1c-0.7,0.3-1.1,0.9-1.2,1.6c0,0,0,0.1-0.1,0.1
			c-0.3,0.1-0.3,0.2-0.3,0.5c0,0.1,0,0.1,0,0.2c0,0.1,0,0.2,0.2,0.2c0.1,0,0.1,0,0.1,0.1c0.1,0.5,0.7,0.8,1.1,0.7
			c0.3-0.1,0.6-0.3,0.6-0.7c0,0,0-0.1,0.1-0.1c0.1,0,0.2,0,0.4,0C35.7,50.8,35.7,50.9,35.8,51 M40.1,47.1c-0.4-0.2-0.8-0.3-1.2-0.3
			c-1.3,0-2.5,0-3.8,0c0,0-0.1,0-0.1,0c-0.3,0-0.5-0.3-0.5-0.6c0.1-0.3,0.3-0.4,0.6-0.4c1.6,0,3.1,0,4.7,0c0.2,0,0.2,0,0.2-0.1
			c0-0.1-0.1-0.1-0.2-0.1c-1.6,0-3.1,0-4.7,0c0,0-0.1,0-0.1,0c-0.4,0-0.8,0.3-0.8,0.8c0,0.4,0.3,0.8,0.7,0.8c0.2,0,0.4,0,0.6,0
			c1.2,0,2.4,0,3.6,0c1.2,0,2.2,1.3,1.9,2.5c-0.2,1-1,1.6-2,1.6c-0.4,0-0.8,0-1.3,0c0,0-0.1,0-0.1,0c0,0-0.1,0.1-0.1,0.1
			c0,0,0.1,0.1,0.1,0.1c0,0,0,0,0.1,0c0.4,0,0.9,0,1.3,0c0.5,0,1-0.2,1.5-0.5c0.7-0.5,1-1.5,0.8-2.3C41.1,48,40.7,47.5,40.1,47.1
			 M41.6,44.1c0-0.7-0.6-1.2-1.3-1c-0.6,0.1-0.9,0.8-0.7,1.3c0.2,0.5,0.5,0.9,0.9,1.4c0.1,0.1,0.2,0.1,0.2,0
			c0.2-0.2,0.3-0.4,0.5-0.6C41.3,44.8,41.5,44.5,41.6,44.1 M42.6,48.1c0,0.2,0.1,0.3,0.1,0.5c0,0.2,0.1,0.2,0.2,0.1
			c0-0.2,0.1-0.3,0.1-0.5c0,0,0.1,0.1,0.1,0.1c0,0.1,0,0.2,0.1,0.3c0,0.1,0,0.1,0.1,0.1c0.1,0,0.1,0,0.1-0.1c0-0.1,0-0.2,0.1-0.2
			c0.1-0.3,0.1-0.5,0.2-0.8c0-0.1,0-0.1-0.1-0.1c-0.1,0-0.1,0-0.1,0.1c0,0.1-0.1,0.3-0.1,0.4c0,0,0,0.1,0,0.1
			c-0.1-0.2-0.1-0.4-0.1-0.5c0-0.1,0-0.1-0.1-0.1c-0.1,0-0.1,0-0.1,0.1c0,0.2-0.1,0.3-0.1,0.5c0,0,0,0,0,0c0-0.2-0.1-0.3-0.1-0.5
			c0-0.1-0.1-0.1-0.2-0.1c-0.1,0,0,0.1,0,0.1C42.5,47.8,42.5,47.9,42.6,48.1 M45.5,47.6c-0.1-0.1-0.3-0.1-0.4-0.1
			c-0.1,0-0.1,0-0.1,0.1c0,0.3,0,0.7,0,1c0,0,0,0.1,0.1,0.1c0.1,0.1,0.5,0,0.6-0.1C45.8,48.4,45.7,47.8,45.5,47.6 M48.2,45.9
			c-0.1-0.1-0.3-0.1-0.5-0.1c0,0-0.1,0.1-0.1,0.1c0,0.4,0,0.7,0,1.1c0,0,0,0.1,0.1,0.1c0.1,0.1,0.5,0,0.6-0.2
			C48.5,46.6,48.5,46,48.2,45.9 M47.1,46.6c0.1,0.1,0.1,0.2,0.2,0.3c0.1,0.1,0.1,0.2,0.3,0.1c-0.1-0.1-0.1-0.2-0.2-0.3
			c-0.1-0.1-0.1-0.2,0-0.3c0.1-0.1,0.1-0.3,0-0.4c-0.1-0.1-0.2-0.2-0.3-0.2c-0.1,0-0.1,0-0.2,0c-0.1,0-0.1,0-0.1,0.1
			c0,0.3,0,0.7,0,1c0,0,0,0.1,0,0.1c0.1,0,0.1,0,0.2,0C47.1,46.9,47.1,46.7,47.1,46.6 M50,48.7c-0.1-0.1-0.1-0.3-0.2-0.4
			c0-0.1,0-0.1,0-0.2c0.1-0.1,0.1-0.3,0.1-0.4c-0.1-0.1-0.2-0.2-0.3-0.2c0,0-0.1,0-0.1,0c-0.1,0-0.1,0-0.1,0.1c0,0.3,0,0.7,0,1
			c0,0,0,0.1,0,0.1c0.1,0,0.1,0,0.2,0c0-0.2,0-0.3,0-0.4c0.1,0.1,0.1,0.2,0.2,0.3C49.7,48.8,49.8,48.8,50,48.7 M49.3,45.9
			c0,0.4,0,0.7,0,1.1c0.1,0,0.1,0,0.2,0c0-0.2,0-0.3,0-0.4c0.1,0.1,0.1,0.2,0.2,0.3c0.1,0.2,0.1,0.2,0.3,0.1c0,0,0,0,0,0
			c-0.1-0.1-0.1-0.3-0.2-0.4c0-0.1,0-0.1,0-0.2c0.1-0.1,0.1-0.3,0.1-0.4c-0.1-0.1-0.2-0.2-0.3-0.2c0,0-0.1,0-0.1,0
			C49.3,45.8,49.3,45.8,49.3,45.9 M44.5,46c0,0.3,0,0.5,0,0.8c0,0.2,0.1,0.2,0.2,0.3c0.3,0.1,0.4-0.1,0.4-0.3c0-0.2,0-0.5,0-0.7
			c0-0.2,0-0.2-0.2-0.1c0,0.2,0,0.5,0,0.7c0,0.1,0,0.1,0,0.2c0,0.1-0.1,0.1-0.1,0.1c-0.1,0-0.1-0.1-0.1-0.1c0-0.1,0-0.3,0-0.4
			c0-0.1,0-0.3,0-0.4C44.5,45.8,44.5,45.8,44.5,46 M43.4,46.6C43.4,46.7,43.5,46.7,43.4,46.6c0.1,0.2,0.2,0.4,0.4,0.4
			s0.4-0.1,0.4-0.3c0-0.2,0-0.3,0-0.5c0-0.2-0.2-0.4-0.4-0.4c-0.2,0-0.4,0.2-0.4,0.4C43.4,46.3,43.4,46.5,43.4,46.6 M45.8,46.7
			c0.1,0.2,0.2,0.3,0.4,0.3c0.2,0,0.3-0.1,0.4-0.3c0-0.2,0-0.3,0-0.5c0-0.2-0.2-0.4-0.4-0.4s-0.4,0.2-0.4,0.4
			C45.8,46.4,45.8,46.6,45.8,46.7 M47.9,47.9c0-0.1,0-0.2-0.1-0.2c0-0.2-0.1-0.2-0.2-0.1c0,0,0,0.1,0,0.1c0.1,0.3,0.2,0.7,0.3,1
			c0,0.1,0.1,0.1,0.1,0.1c0.1,0,0.1,0,0.1-0.1c0.1-0.3,0.2-0.7,0.3-1c0,0,0.1-0.1,0-0.1c-0.1,0-0.2,0-0.2,0.1c0,0.1,0,0.2-0.1,0.3
			c0,0.1-0.1,0.3-0.1,0.4c0,0,0,0,0,0C48,48.2,48,48.1,47.9,47.9 M49,45.8c-0.1,0-0.2,0-0.3,0c-0.1,0-0.1,0-0.1,0.1c0,0.4,0,0.7,0,1
			c0,0.1,0,0.1,0.1,0.1c0.1,0,0.2,0,0.3,0c0.1,0,0.1,0,0.1-0.1c0-0.1,0-0.1-0.1-0.1c-0.1,0-0.1,0-0.2,0c0-0.3,0-0.3,0.2-0.3
			c0.1,0,0.1-0.1,0.1-0.1c0-0.1,0-0.1-0.1-0.1c-0.1,0-0.1,0-0.2,0c0-0.2,0-0.2,0.2-0.3c0.1,0,0.1,0,0.1-0.1
			C49.1,45.9,49.1,45.8,49,45.8 M46.3,47.5c-0.1,0-0.2,0-0.3,0c-0.1,0-0.1,0-0.1,0.1c0,0.2,0,0.5,0,0.7c0,0.5-0.1,0.4,0.4,0.4
			c0,0,0,0,0,0c0.1,0,0.1-0.1,0.1-0.1c0-0.1,0-0.1-0.1-0.1c-0.1,0-0.1,0-0.2,0c0-0.1,0-0.2,0-0.3c0,0,0.1,0,0.2,0c0,0,0,0,0,0
			c0.1,0,0.1-0.1,0.1-0.1c0,0,0-0.1-0.1-0.1c-0.1,0-0.1,0-0.2,0c0-0.2,0-0.2,0.2-0.3c0,0,0,0,0,0c0.1,0,0.1,0,0.1-0.1
			C46.4,47.6,46.4,47.5,46.3,47.5 M49,47.5c-0.1,0-0.2,0-0.3,0c-0.1,0-0.1,0-0.1,0.1c0,0.1,0,0.2,0,0.4c0,0.2,0,0.4,0,0.7
			c0,0.1,0,0.1,0.1,0.1c0.1,0,0.2,0,0.3,0c0.1,0,0.1,0,0.1-0.1c0-0.1,0-0.1-0.1-0.1c-0.1,0-0.1,0-0.2,0c0-0.1,0-0.2,0-0.3
			c0,0,0.1,0,0.2,0c0.1,0,0.1-0.1,0.1-0.1c0-0.1,0-0.1-0.1-0.1c-0.1,0-0.1,0-0.2,0c0-0.2,0-0.2,0.2-0.3c0.1,0,0.1,0,0.1-0.1
			C49.1,47.6,49.1,47.5,49,47.5 M44.1,48.4c0-0.1,0-0.2,0-0.2c0.1,0,0.1,0,0.2,0c0.1,0,0.1-0.1,0.1-0.1c0-0.1,0-0.1-0.1-0.1
			c-0.1,0-0.1,0-0.2,0c0-0.1,0-0.2,0-0.2c0.1,0,0.2,0,0.3,0c0-0.1,0-0.1,0-0.2c-0.2,0-0.3,0-0.4,0c0,0-0.1,0.1-0.1,0.1
			c0,0.3,0,0.7,0,1c0,0.1,0,0.1,0.1,0.1c0.1,0,0.2,0,0.3,0c0.1,0,0.1,0,0.1-0.1c0-0.1-0.1-0.1-0.1-0.1
			C44.2,48.5,44.1,48.5,44.1,48.4 M43.1,45.8c0,0-0.1,0.1-0.1,0.1c-0.1,0.1-0.1,0.2-0.2,0.3c0,0,0,0,0,0c0-0.1-0.1-0.2-0.1-0.3
			c-0.1-0.1-0.1-0.2-0.3-0.1c0.2,0.4,0.4,0.7,0.3,1.2c0.1,0,0.2,0,0.2,0c-0.1-0.4,0.1-0.8,0.3-1.2C43.2,45.8,43.2,45.8,43.1,45.8
			 M46.8,48.4c0-0.3,0-0.6,0-0.9c-0.2,0-0.2,0-0.2,0.2c0,0.2,0,0.4,0,0.5c0,0.2,0,0.3,0,0.5c0.2,0,0.3,0,0.5,0c0-0.1,0-0.1,0-0.2
			c-0.1,0-0.2,0-0.3,0C46.8,48.5,46.8,48.4,46.8,48.4 M47.5,48.7c0-0.4,0-0.7,0-1.1c0-0.1-0.1-0.1-0.1-0.1c-0.1,0-0.1,0-0.1,0.1
			c0,0.2,0,0.4,0,0.5c0,0.2,0,0.4,0,0.6C47.3,48.7,47.4,48.7,47.5,48.7z"/>
		<path class="st9" d="M35.8,51c-0.1-0.1-0.1-0.2-0.2-0.4c-0.1,0-0.2,0-0.4,0c0,0-0.1,0-0.1,0.1c-0.1,0.3-0.3,0.6-0.6,0.7
			c-0.5,0.1-1-0.2-1.1-0.7c0-0.1,0-0.1-0.1-0.1c-0.1,0-0.2,0-0.2-0.2c0-0.1,0-0.1,0-0.2c0-0.3,0.1-0.4,0.3-0.5c0,0,0.1,0,0.1-0.1
			c0.1-0.8,0.5-1.3,1.2-1.6c0,0,0.1-0.1,0.1-0.1c0.1-0.3,0.3-0.6,0.7-0.6c0.3,0,0.6,0.2,0.6,0.6c0,0,0,0.1,0.1,0.1
			c0.7,0.3,1.2,0.9,1.3,1.7c0,0,0,0,0,0c0,0,0.1,0,0.1,0c0.2,0.1,0.3,0.2,0.3,0.4c0,0,0,0,0,0.1c0,0.3,0,0.3-0.3,0.4
			c0,0-0.1,0-0.1,0.1c-0.2,0.5-0.5,0.8-1,0.7C36.1,51.4,35.9,51.3,35.8,51 M34.1,49c-0.2,0.3-0.3,0.5-0.3,0.9c1.1,0,2.3,0,3.4,0
			c-0.1-0.5-0.3-0.9-0.6-1.2C35.9,48.1,34.7,48.1,34.1,49 M34.8,50.4c0.9,0,1.8,0,2.8,0c0-0.2,0-0.3-0.2-0.3c-1.3,0-2.5,0-3.8,0
			c-0.2,0-0.2,0-0.2,0.3C33.9,50.4,34.3,50.4,34.8,50.4 M36,50.8c0.1,0.3,0.4,0.4,0.7,0.4c0.3-0.1,0.5-0.3,0.5-0.5
			c-0.1,0-0.1,0-0.2,0.1c-0.1,0.2-0.3,0.3-0.5,0.3s-0.4-0.1-0.5-0.3c0-0.1-0.1-0.1-0.2-0.1C35.9,50.7,35.9,50.8,36,50.8 M34.8,50.8
			c-0.1,0.2-0.3,0.3-0.5,0.3c-0.2,0-0.4-0.1-0.5-0.3c0-0.1-0.1-0.1-0.2-0.1c0.1,0.3,0.3,0.5,0.6,0.5c0.3,0,0.6-0.2,0.6-0.5
			C34.9,50.7,34.8,50.6,34.8,50.8 M35.8,47.9c-0.1-0.2-0.3-0.2-0.5-0.2c-0.1,0-0.2,0.1-0.2,0.3C35.4,48,35.6,48,35.8,47.9
			C35.9,48,35.8,48,35.8,47.9 M34.3,50.8c0.1,0,0.1-0.1,0.2-0.1c0,0,0,0,0,0c-0.1,0-0.3,0-0.4,0C34.2,50.8,34.2,50.8,34.3,50.8
			 M36.6,50.7c-0.1,0-0.1,0-0.2,0c0.2,0.2,0.3,0.2,0.4,0C36.7,50.7,36.6,50.7,36.6,50.7z"/>
		<path class="st10" d="M40.1,47.1c0.6,0.3,1,0.8,1.1,1.5c0.2,0.8-0.1,1.8-0.8,2.3c-0.4,0.3-0.9,0.5-1.5,0.5c-0.4,0-0.9,0-1.3,0
			c0,0-0.1,0-0.1,0c0,0-0.1-0.1-0.1-0.1c0,0,0-0.1,0.1-0.1c0,0,0.1,0,0.1,0c0.4,0,0.8,0,1.3,0c1,0,1.8-0.6,2-1.6
			c0.3-1.2-0.6-2.4-1.9-2.5c-1.2,0-2.4,0-3.6,0c-0.2,0-0.4,0-0.6,0c-0.4,0-0.7-0.4-0.7-0.8c0-0.4,0.4-0.8,0.8-0.8c0,0,0.1,0,0.1,0
			c1.6,0,3.1,0,4.7,0c0.2,0,0.2,0,0.2,0.1c0,0.1-0.1,0.1-0.2,0.1c-1.6,0-3.1,0-4.7,0c-0.3,0-0.5,0.1-0.6,0.4
			c-0.1,0.3,0.1,0.6,0.5,0.6c0,0,0.1,0,0.1,0c1.3,0,2.5,0,3.8,0C39.3,46.8,39.7,46.9,40.1,47.1z"/>
		<path class="st11" d="M38.1,43.2c0.1,0.4,0.2,0.7,0.3,1.1c0,0,0,0,0,0c0-0.1,0.1-0.3,0.1-0.4c0.1-0.3,0.1-0.5,0.2-0.8
			c0-0.1,0-0.1,0.1-0.1c0.3,0,0.3,0,0.3,0.3c0.1,0.6,0.2,1.2,0.2,1.9c0,0.2,0,0.2-0.1,0.2c-0.2,0-0.2,0-0.3-0.2
			c0-0.3-0.1-0.5-0.1-0.8c0,0,0,0,0,0c0,0.1,0,0.1-0.1,0.2c-0.1,0.3-0.1,0.5-0.2,0.8c0,0.1,0,0.1-0.1,0.1c-0.3,0-0.2,0.1-0.3-0.2
			c-0.1-0.2-0.1-0.4-0.2-0.7c0,0,0-0.1,0-0.1c0,0,0,0,0,0c0,0.3-0.1,0.7-0.1,1c0,0,0,0,0,0c-0.4,0-0.4,0-0.3-0.3
			c0.1-0.6,0.1-1.2,0.2-1.9c0-0.1,0-0.1,0.1-0.1c0,0,0,0,0.1,0C38.1,43,38.1,43,38.1,43.2z"/>
		<path class="st12" d="M36.7,43.4c0.1,0.5,0.2,1.1,0.3,1.6c0,0,0,0.1,0,0.1c0,0.1,0,0.1,0,0.2c-0.1,0-0.2,0-0.3,0
			c0,0-0.1-0.1-0.1-0.2c0-0.1-0.1-0.2-0.2-0.1c0,0-0.1,0-0.1,0c-0.2,0-0.2,0-0.3,0.2c0,0.1-0.1,0.1-0.1,0.1c-0.1,0-0.2,0-0.3,0
			c0.2-0.8,0.3-1.5,0.5-2.3c0.1,0,0.1,0,0.1,0c0.3,0,0.3,0,0.3,0.3C36.7,43.3,36.7,43.4,36.7,43.4 M36.4,44.6c0.1,0,0.1,0,0.2,0
			c0-0.2-0.1-0.4-0.1-0.6C36.4,44.2,36.3,44.4,36.4,44.6C36.3,44.6,36.4,44.6,36.4,44.6z"/>
		<path class="st13" d="M41.6,44.1c0,0.4-0.2,0.7-0.4,1c-0.1,0.2-0.3,0.4-0.5,0.6c-0.1,0.1-0.2,0.1-0.2,0c-0.3-0.4-0.7-0.8-0.9-1.4
			c-0.2-0.5,0.2-1.2,0.7-1.3C40.9,42.9,41.5,43.3,41.6,44.1 M39.8,44.4c0.2,0.4,0.4,0.7,0.7,1c0.3-0.4,0.5-0.7,0.7-1.1
			c0.2-0.3,0-0.7-0.2-0.8c-0.2-0.2-0.6-0.3-0.9-0.1C39.8,43.5,39.6,44,39.8,44.4z"/>
		<path class="st12" d="M34.9,44.7c0,0.2,0,0.4,0,0.5c0,0.1,0,0.1-0.1,0.1c-0.3,0-0.3,0-0.3-0.3c0-0.8,0-0.8-0.4-1.6
			c-0.1-0.1-0.1-0.2-0.2-0.3c0-0.1,0-0.1,0.1-0.1c0,0,0,0,0,0c0.3,0,0.3,0,0.4,0.3c0.1,0.1,0.1,0.3,0.2,0.4c0,0,0,0.1,0.1,0.1
			c0.1-0.2,0.1-0.3,0.2-0.5c0-0.1,0-0.1,0.1-0.2c0.1-0.2,0.1-0.2,0.3-0.2c0.1,0,0.1,0,0.1,0.1c-0.1,0.2-0.2,0.4-0.3,0.7
			c0,0.1,0,0.1-0.1,0.2C34.9,44.2,34.9,44.5,34.9,44.7z"/>
		<path class="st10" d="M42.6,48.1c0-0.2-0.1-0.3-0.1-0.5c0,0-0.1-0.1,0-0.1c0.1,0,0.2,0,0.2,0.1c0,0.2,0.1,0.3,0.1,0.5c0,0,0,0,0,0
			c0-0.2,0.1-0.3,0.1-0.5c0-0.1,0-0.1,0.1-0.1c0.1,0,0.1,0,0.1,0.1c0,0.2,0.1,0.4,0.1,0.5c0,0,0,0,0-0.1c0-0.1,0.1-0.3,0.1-0.4
			c0-0.1,0-0.1,0.1-0.1c0.1,0,0.1,0,0.1,0.1c-0.1,0.3-0.1,0.5-0.2,0.8c0,0.1,0,0.2-0.1,0.2c0,0.1,0,0.1-0.1,0.1
			c-0.1,0-0.1,0-0.1-0.1c0-0.1,0-0.2-0.1-0.3c0,0,0-0.1-0.1-0.1c0,0.2-0.1,0.3-0.1,0.5c-0.2,0-0.2,0-0.2-0.1
			C42.7,48.4,42.6,48.3,42.6,48.1z"/>
		<path class="st14" d="M45.5,47.6c0.3,0.2,0.3,0.8,0.1,1c-0.1,0.1-0.4,0.2-0.6,0.1c0,0-0.1-0.1-0.1-0.1c0-0.3,0-0.7,0-1
			c0-0.1,0-0.1,0.1-0.1C45.2,47.5,45.4,47.5,45.5,47.6 M45.3,48.5c0.1-0.1,0.1-0.1,0.2-0.2c0.1-0.2,0.1-0.4,0-0.5
			c0-0.1-0.1-0.1-0.3-0.1C45.2,48,45.2,48.2,45.3,48.5C45.2,48.5,45.2,48.5,45.3,48.5z"/>
		<path class="st15" d="M48.2,45.9c0.3,0.2,0.3,0.7,0.1,1c-0.1,0.1-0.4,0.2-0.6,0.2c0,0,0,0-0.1-0.1c0-0.4,0-0.7,0-1.1
			c0,0,0-0.1,0.1-0.1C47.9,45.8,48.1,45.8,48.2,45.9 M47.9,46.3c0,0.2,0,0.3,0,0.5c0.1,0,0.2,0,0.3-0.1c0.1-0.2,0.1-0.4,0-0.6
			c0-0.1-0.1-0.1-0.2-0.1C47.9,46.1,47.9,46.2,47.9,46.3z"/>
		<path class="st16" d="M47.1,46.6c0,0.1,0,0.3,0,0.4c-0.1,0-0.1,0-0.2,0c0,0,0-0.1,0-0.1c0-0.3,0-0.7,0-1c0-0.1,0-0.1,0.1-0.1
			c0.1,0,0.1,0,0.2,0c0.1,0,0.3,0.1,0.3,0.2c0.1,0.1,0.1,0.3,0,0.4c-0.1,0.1-0.1,0.2,0,0.3c0.1,0.1,0.1,0.2,0.2,0.3
			c-0.2,0.1-0.2,0-0.3-0.1C47.2,46.8,47.1,46.7,47.1,46.6 M47.1,46.4c0.1,0,0.2-0.1,0.2-0.2c0-0.1-0.1-0.1-0.1-0.2c0,0-0.1,0-0.1,0
			C47.1,46.1,47.1,46.3,47.1,46.4z"/>
		<path class="st10" d="M50,48.7c-0.2,0.1-0.2,0-0.3-0.1c-0.1-0.1-0.1-0.2-0.2-0.3c0,0.1,0,0.3,0,0.4c-0.1,0-0.1,0-0.2,0
			c0,0,0-0.1,0-0.1c0-0.3,0-0.7,0-1c0-0.1,0-0.1,0.1-0.1c0,0,0.1,0,0.1,0c0.2,0,0.3,0,0.3,0.2c0.1,0.2,0.1,0.3-0.1,0.4
			c-0.1,0.1-0.1,0.1,0,0.2C49.8,48.4,49.9,48.6,50,48.7 M49.7,47.8C49.7,47.8,49.6,47.8,49.7,47.8c-0.1-0.1-0.2-0.1-0.2-0.1
			c0,0.1,0,0.2,0,0.3C49.7,48.1,49.7,48,49.7,47.8z"/>
		<path class="st17" d="M49.3,45.9c0-0.1,0-0.1,0.1-0.1c0,0,0.1,0,0.1,0c0.2,0,0.3,0,0.3,0.2c0.1,0.2,0,0.3-0.1,0.4
			c-0.1,0.1-0.1,0.1,0,0.2c0.1,0.1,0.1,0.3,0.2,0.4c0,0,0,0,0,0c-0.2,0-0.2,0-0.3-0.1c0-0.1-0.1-0.2-0.2-0.3c0,0.1,0,0.3,0,0.4
			c-0.1,0-0.1,0-0.2,0C49.3,46.7,49.3,46.3,49.3,45.9 M49.5,46.3c0.1,0.1,0.1,0,0.2-0.1c0.1-0.1,0-0.2-0.1-0.3c-0.1,0-0.1,0-0.1,0.1
			C49.5,46.2,49.5,46.2,49.5,46.3z"/>
		<path class="st17" d="M44.5,45.9c0-0.2,0-0.2,0.2-0.1c0,0.1,0,0.3,0,0.4c0,0.1,0,0.3,0,0.4c0,0.1,0,0.1,0.1,0.1
			c0.1,0,0.1-0.1,0.1-0.1c0-0.1,0-0.1,0-0.2c0-0.2,0-0.5,0-0.7c0.2-0.1,0.2,0,0.2,0.1c0,0.2,0,0.5,0,0.7c0,0.3-0.2,0.4-0.4,0.3
			c-0.1,0-0.2-0.1-0.2-0.3C44.5,46.5,44.5,46.2,44.5,45.9z"/>
		<path class="st18" d="M43.4,46.6c0-0.2,0-0.3,0-0.5c0-0.2,0.2-0.4,0.4-0.4c0.2,0,0.4,0.2,0.4,0.4c0,0.2,0,0.3,0,0.5
			c0,0.2-0.2,0.3-0.4,0.3S43.5,46.9,43.4,46.6C43.5,46.7,43.4,46.7,43.4,46.6 M44,46c-0.1-0.1-0.3-0.1-0.4,0.1
			c-0.1,0.2-0.1,0.4,0,0.5c0,0.1,0.1,0.2,0.2,0.2c0.1,0,0.2-0.1,0.2-0.2C44.1,46.4,44.2,46.2,44,46z"/>
		<path class="st17" d="M45.8,46.7c-0.1-0.2-0.1-0.4,0-0.5c0-0.2,0.2-0.4,0.4-0.4c0.2,0,0.4,0.2,0.4,0.4c0,0.2,0,0.3,0,0.5
			c0,0.2-0.2,0.3-0.4,0.3C46.1,47,45.9,46.9,45.8,46.7 M46.5,46.2C46.5,46.2,46.4,46.2,46.5,46.2C46.4,46,46.3,46,46.2,46
			C46.1,46,46,46,46,46.1c-0.1,0.2-0.1,0.3,0,0.5c0,0.1,0.1,0.2,0.2,0.2c0.1,0,0.2-0.1,0.2-0.2C46.5,46.5,46.5,46.4,46.5,46.2z"/>
		<path class="st17" d="M47.9,47.9c0,0.1,0.1,0.2,0.1,0.3c0,0,0,0,0,0c0-0.1,0.1-0.3,0.1-0.4c0-0.1,0-0.2,0.1-0.3
			c0-0.1,0.1-0.1,0.2-0.1c0.1,0,0,0.1,0,0.1c-0.1,0.3-0.2,0.7-0.3,1c0,0.1,0,0.1-0.1,0.1c-0.1,0-0.1,0-0.1-0.1
			c-0.1-0.3-0.2-0.7-0.3-1c0,0,0-0.1,0-0.1c0.2,0,0.2,0,0.2,0.1C47.9,47.8,47.9,47.8,47.9,47.9z"/>
		<path class="st19" d="M49,45.8c0.1,0,0.1,0.1,0.1,0.1c0,0.1-0.1,0.1-0.1,0.1c-0.2,0-0.2,0-0.2,0.3c0.1,0,0.1,0,0.2,0
			c0.1,0,0.1,0,0.1,0.1c0,0.1,0,0.1-0.1,0.1c-0.2,0-0.2,0-0.2,0.3c0.1,0,0.1,0,0.2,0c0.1,0,0.1,0.1,0.1,0.1c0,0.1,0,0.1-0.1,0.1
			c-0.1,0-0.2,0-0.3,0c-0.1,0-0.1,0-0.1-0.1c0-0.4,0-0.7,0-1c0-0.1,0-0.1,0.1-0.1C48.8,45.8,48.9,45.8,49,45.8z"/>
		<path class="st20" d="M46.3,47.5c0.1,0,0.1,0.1,0.1,0.1c0,0.1,0,0.1-0.1,0.1c0,0,0,0,0,0c-0.2,0-0.2,0-0.2,0.3c0.1,0,0.1,0,0.2,0
			c0,0,0.1,0,0.1,0.1c0,0.1,0,0.1-0.1,0.1c0,0,0,0,0,0c-0.1,0-0.2,0-0.2,0c0,0.1,0,0.2,0,0.3c0.1,0,0.2,0,0.2,0c0.1,0,0.1,0,0.1,0.1
			c0,0.1,0,0.1-0.1,0.1c0,0,0,0,0,0c-0.5,0-0.4,0.1-0.4-0.4c0-0.2,0-0.5,0-0.7c0-0.1,0-0.1,0.1-0.1C46.1,47.5,46.2,47.5,46.3,47.5z"
			/>
		<path class="st20" d="M49,47.5c0.1,0,0.1,0.1,0.1,0.1c0,0.1,0,0.1-0.1,0.1c-0.2,0-0.2,0-0.2,0.3c0.1,0,0.1,0,0.2,0
			c0.1,0,0.1,0,0.1,0.1c0,0.1,0,0.1-0.1,0.1c-0.1,0-0.2,0-0.2,0c0,0.1,0,0.2,0,0.3c0.1,0,0.1,0,0.2,0c0.1,0,0.1,0,0.1,0.1
			c0,0.1,0,0.1-0.1,0.1c-0.1,0-0.2,0-0.3,0c-0.1,0-0.1,0-0.1-0.1c0-0.2,0-0.4,0-0.7c0-0.1,0-0.2,0-0.4c0-0.1,0-0.1,0.1-0.1
			C48.8,47.5,48.9,47.5,49,47.5z"/>
		<path class="st20" d="M44.1,48.4c0.1,0,0.1,0.1,0.2,0.1c0.1,0,0.1,0,0.1,0.1c0,0.1-0.1,0.1-0.1,0.1c-0.1,0-0.2,0-0.3,0
			c-0.1,0-0.1,0-0.1-0.1c0-0.3,0-0.7,0-1c0,0,0-0.1,0.1-0.1c0.1,0,0.3,0,0.4,0c0,0.1,0,0.1,0,0.2c-0.1,0-0.2,0-0.3,0
			c0,0.1,0,0.2,0,0.2c0.1,0,0.1,0,0.2,0c0.1,0,0.1,0,0.1,0.1c0,0.1,0,0.1-0.1,0.1c-0.1,0-0.1,0-0.2,0C44.1,48.3,44.1,48.4,44.1,48.4
			z"/>
		<path class="st18" d="M43.1,45.8c0,0,0.1,0,0.1,0c-0.2,0.4-0.4,0.8-0.3,1.2c-0.1,0-0.1,0-0.2,0c0.1-0.4-0.1-0.8-0.3-1.2
			c0.1-0.1,0.2,0,0.3,0.1c0,0.1,0.1,0.2,0.1,0.3c0,0,0,0,0,0c0.1-0.1,0.1-0.2,0.2-0.3C43,45.8,43.1,45.8,43.1,45.8z"/>
		<path class="st16" d="M46.8,48.4c0,0,0,0.1,0,0.1c0.1,0,0.2,0,0.3,0c0,0.1,0,0.1,0,0.2c-0.2,0-0.3,0-0.5,0c0-0.2,0-0.3,0-0.5
			c0-0.2,0-0.4,0-0.5c0-0.2,0-0.2,0.2-0.2C46.8,47.8,46.8,48.1,46.8,48.4z"/>
		<path class="st12" d="M47.5,48.7c-0.1,0-0.1,0-0.2,0c0-0.2,0-0.4,0-0.6c0-0.2,0-0.4,0-0.5c0-0.1,0-0.1,0.1-0.1
			c0.1,0,0.1,0,0.1,0.1C47.5,48,47.5,48.3,47.5,48.7z"/>
		<path class="st21" d="M34.1,49c0.6-0.8,1.8-0.9,2.4-0.3c0.4,0.3,0.6,0.7,0.6,1.2c-1.1,0-2.3,0-3.4,0C33.8,49.5,33.9,49.3,34.1,49
			 M35.1,48.7c0.1,0,0.2,0,0.4-0.1c0.1,0,0.2-0.1,0.2-0.1c0-0.1-0.1-0.1-0.2-0.1c-0.4,0-0.7,0.1-0.9,0.3c-0.3,0.2-0.4,0.5-0.5,0.8
			c0,0.1,0,0.1,0.1,0.2c0.1,0,0.1,0,0.2-0.1c0,0,0,0,0-0.1C34.4,49.2,34.7,48.9,35.1,48.7z"/>
		<path class="st22" d="M34.8,50.4c-0.5,0-1,0-1.4,0c0-0.2,0-0.3,0.2-0.3c1.3,0,2.5,0,3.8,0c0.2,0,0.2,0,0.2,0.3
			C36.7,50.4,35.8,50.4,34.8,50.4z"/>
		<path class="st23" d="M36,50.8c0-0.1,0-0.1,0-0.1c0.1,0,0.1,0,0.2,0.1c0.1,0.2,0.3,0.3,0.5,0.3c0.2,0,0.4-0.1,0.5-0.3
			c0-0.1,0-0.1,0.2-0.1c0,0.3-0.2,0.5-0.5,0.5C36.4,51.2,36.1,51.1,36,50.8z"/>
		<path class="st23" d="M34.8,50.7c0-0.1,0.1-0.1,0.2-0.1c0,0.3-0.3,0.5-0.6,0.5c-0.3,0-0.6-0.2-0.6-0.5c0.1,0,0.1,0,0.2,0.1
			c0.1,0.2,0.2,0.3,0.5,0.3C34.5,51.1,34.7,51,34.8,50.7z"/>
		<path class="st24" d="M35.8,48C35.8,48,35.9,48,35.8,48C35.6,48,35.4,48,35.1,48c0-0.1,0.1-0.2,0.2-0.3
			C35.5,47.7,35.7,47.8,35.8,48z"/>
		<path class="st23" d="M34.3,50.8c-0.1,0-0.2,0-0.3-0.1c0.1,0,0.3,0,0.4,0c0,0,0,0,0,0C34.5,50.7,34.4,50.8,34.3,50.8z"/>
		<path class="st23" d="M36.6,50.7c0.1,0,0.1,0,0.2,0c-0.1,0.2-0.3,0.2-0.4,0C36.4,50.7,36.5,50.7,36.6,50.7z"/>
		<path class="st25" d="M39.8,44.4c-0.2-0.5,0-0.9,0.3-1.1c0.3-0.1,0.6-0.1,0.9,0.1c0.2,0.2,0.3,0.5,0.2,0.8
			c-0.2,0.4-0.4,0.8-0.7,1.1C40.2,45.1,40,44.8,39.8,44.4 M40.7,44.6c0.3-0.1,0.4-0.4,0.3-0.7c-0.1-0.3-0.4-0.4-0.7-0.3
			C40,43.7,39.9,44,40,44.2C40.1,44.5,40.4,44.6,40.7,44.6z"/>
		<path class="st25" d="M45.2,48.5C45.2,48.5,45.2,48.5,45.2,48.5c-0.1-0.3-0.1-0.6-0.1-0.8c0.1,0,0.2,0,0.3,0.1
			c0.1,0.2,0.1,0.4,0,0.5C45.4,48.4,45.3,48.5,45.2,48.5z"/>
		<path class="st26" d="M47.9,46.3c0-0.1,0-0.2,0-0.3c0.1,0,0.2,0,0.2,0.1c0.1,0.2,0.1,0.4,0,0.6c0,0.1-0.1,0.1-0.3,0.1
			C47.9,46.6,47.9,46.5,47.9,46.3z"/>
		<path class="st27" d="M47.1,46.4c0-0.1,0-0.2,0-0.3c0,0,0.1,0,0.1,0c0,0.1,0.1,0.1,0.1,0.2C47.3,46.3,47.2,46.4,47.1,46.4z"/>
		<path class="st24" d="M49.7,47.8c0,0.2,0,0.2-0.2,0.3c0-0.1,0-0.2,0-0.3C49.5,47.8,49.6,47.7,49.7,47.8
			C49.6,47.8,49.7,47.8,49.7,47.8z"/>
		<path class="st24" d="M49.5,46.3c0-0.1,0-0.2,0-0.2c0-0.1,0-0.1,0.1-0.1c0.1,0,0.1,0.2,0.1,0.3C49.6,46.3,49.6,46.4,49.5,46.3z"/>
		<path class="st26" d="M44,46.1c0.1,0.2,0.1,0.4,0.1,0.6c0,0.1-0.1,0.2-0.2,0.2c-0.1,0-0.2-0.1-0.2-0.2c-0.1-0.2-0.1-0.4,0-0.5
			C43.7,46,43.9,45.9,44,46.1z"/>
		<path class="st25" d="M46.5,46.2c0,0.1,0,0.3,0,0.4c0,0.1-0.1,0.2-0.2,0.2c-0.1,0-0.2-0.1-0.2-0.2c-0.1-0.2-0.1-0.3,0-0.5
			c0-0.1,0.1-0.2,0.2-0.2C46.3,46,46.4,46,46.5,46.2C46.4,46.2,46.5,46.2,46.5,46.2z"/>
		<path class="st13" d="M35.1,48.8c-0.4,0.1-0.7,0.4-0.8,0.8c0,0,0,0,0,0.1c0,0.1-0.1,0.1-0.2,0.1c-0.1,0-0.1-0.1-0.1-0.2
			c0.1-0.3,0.3-0.6,0.5-0.8c0.3-0.2,0.6-0.3,0.9-0.3c0.1,0,0.2,0,0.2,0.1c0,0.1,0,0.1-0.2,0.1C35.3,48.7,35.2,48.7,35.1,48.8z"/>
		<path class="st13" d="M40.7,44.6c-0.3,0.1-0.6-0.1-0.6-0.3c-0.1-0.3,0-0.5,0.3-0.7c0.3-0.1,0.6,0,0.7,0.3
			C41.1,44.2,41,44.5,40.7,44.6 M40.3,43.9c-0.1,0.1-0.1,0.2,0,0.3c0.1,0.1,0.2,0.1,0.3,0.1c0.1,0,0.2-0.1,0.2-0.2
			c0-0.1-0.1-0.2-0.2-0.2C40.5,43.8,40.4,43.8,40.3,43.9z"/>
		<path class="st25" d="M40.3,43.9c0.1-0.1,0.2-0.1,0.3-0.1c0.1,0,0.2,0.1,0.2,0.2c0,0.1-0.1,0.2-0.2,0.2c-0.1,0-0.2,0-0.3-0.1
			C40.2,44.1,40.2,44,40.3,43.9z"/>
	</g>
	<g id="Calque_2_2_">
	</g>
</g>
</svg>
