<?xml version="1.0" encoding="utf-8"?>
<!-- Generator: Adobe Illustrator 24.0.0, SVG Export Plug-In . SVG Version: 6.00 Build 0)  -->
<svg version="1.1" id="Calque_1" xmlns="http://www.w3.org/2000/svg" xmlns:xlink="http://www.w3.org/1999/xlink" x="0px" y="0px"
	 viewBox="0 0 154 154" style="enable-background:new 0 0 154 154;" xml:space="preserve">
<style type="text/css">
	.st0{clip-path:url(#SVGID_2_);}
	.st1{clip-path:url(#SVGID_4_);}
	.st2{fill-rule:evenodd;clip-rule:evenodd;fill:#ECA4A4;}
	.st3{fill-rule:evenodd;clip-rule:evenodd;fill:#FF3008;}
	.st4{fill-rule:evenodd;clip-rule:evenodd;fill:#FF4F2D;}
	.st5{fill-rule:evenodd;clip-rule:evenodd;fill:#FF5E3E;}
	.st6{fill:none;stroke:#C7C6B5;stroke-width:0.4;}
	.st7{fill-rule:evenodd;clip-rule:evenodd;fill:#C7C6B5;}
	.st8{fill-rule:evenodd;clip-rule:evenodd;fill:#FDF88D;}
	.st9{fill-rule:evenodd;clip-rule:evenodd;fill:#9CD9E2;}
	.st10{display:none;fill-rule:evenodd;clip-rule:evenodd;fill:#FFFFFF;}
	.st11{fill-rule:evenodd;clip-rule:evenodd;fill:#FF431E;}
	.st12{fill-rule:evenodd;clip-rule:evenodd;fill:#D2EEF2;}
	.st13{fill-rule:evenodd;clip-rule:evenodd;fill:#325847;}
	.st14{fill-rule:evenodd;clip-rule:evenodd;fill:#DA260D;}
	.st15{fill-rule:evenodd;clip-rule:evenodd;fill:#C65E35;}
	.st16{fill:none;stroke:#DB4C44;stroke-width:0.25;}
	.st17{fill-rule:evenodd;clip-rule:evenodd;fill:#DB4C44;}
	.st18{display:none;fill-rule:evenodd;clip-rule:evenodd;fill:#22464C;}
	.st19{fill-rule:evenodd;clip-rule:evenodd;fill:#22464C;}
	.st20{fill-rule:evenodd;clip-rule:evenodd;fill:#E7E5D5;}
	.st21{fill:none;stroke:#EDB9B6;stroke-width:0.5;}
	.st22{fill-rule:evenodd;clip-rule:evenodd;fill:#FFFFFF;}
	.st23{fill-rule:evenodd;clip-rule:evenodd;fill:#EBEADE;}
	.st24{display:none;fill-rule:evenodd;clip-rule:evenodd;fill:#C7C6B5;}
	.st25{fill-rule:evenodd;clip-rule:evenodd;fill:#EDB9B6;}
	.st26{fill:#DC4A43;}
	.st27{fill:#FCF9F8;}
	.st28{fill:#FCF8F7;}
	.st29{fill:#FDFBFB;}
	.st30{fill:#FDFBFA;}
	.st31{fill:#FCF9F7;}
	.st32{fill:#FBF5F4;}
	.st33{fill:#FBF5F3;}
	.st34{fill:#FCFAF8;}
	.st35{fill:#FCF7F6;}
	.st36{fill:#FBF6F5;}
	.st37{fill:#FAF4F2;}
	.st38{fill:#FAF5F4;}
	.st39{fill:#DA4B45;}
	.st40{fill:#D84B45;}
	.st41{fill:#D7534E;}
	.st42{fill:#D9504B;}
	.st43{fill:#DA4D47;}
	.st44{fill:#DB4C46;}
	.st45{fill:#DB5954;}
</style>
<g>
	<defs>
		<rect id="SVGID_1_" width="154" height="154"/>
	</defs>
	<clipPath id="SVGID_2_">
		<use xlink:href="#SVGID_1_"  style="overflow:visible;"/>
	</clipPath>
	<g class="st0">
		<g>
			<defs>
				<rect id="SVGID_3_" x="-2" y="7" width="161" height="139"/>
			</defs>
			<clipPath id="SVGID_4_">
				<use xlink:href="#SVGID_3_"  style="overflow:visible;"/>
			</clipPath>
			<g class="st1">
				<path class="st2" d="M58.5,8.3C25.8,10,10.8,31.6,4.6,49.5c-5.6,16.3-4.1,26.9,9.1,31c13.3,4.2,8.1,12.8,5.6,20.7
					c-2.4,7.9-6,15.8-1.6,27.1c5.3,13.6,24.9,22.4,44.9,3.7c19.9-18.7,31.9-14.1,46.1-8.8c7.4,2.8,21.9,10.9,32.7-2.5
					c21.7-26.9-15-81.8-15-81.8S107.4,5.8,58.5,8.3z"/>
				<path class="st3" d="M40.2,32.8c-0.1,0.3-6.7,30-6.1,30.3c0.9,0.5,4.2,1.5,8,2.3c4.1,0.8,8.4,1.3,8.6,1.1c0.4-0.4,7-30.6,7-30.6
					L40.2,32.8z"/>
				<path class="st4" d="M37,57.5c0.3,0.2,11.9,2.6,12.2,2.2c0.3-0.4,3.1-16,3.1-16s-12.2-1.6-12.2-1.4C40.1,42.6,36.8,57.3,37,57.5
					z"/>
				<path class="st5" d="M40.5,40.1c-0.1,0.5-1.9,4.2-0.3,5c1.6,0.8,9.3,2,10.2,1.9c0.9-0.1,1.5,0,1.9-1.1c0.4-1.2,0.9-3.3,0.9-3.3
					L40.5,40.1L40.5,40.1z"/>
				<path class="st4" d="M40.2,31.7c-0.2,0.2-0.9,2-0.5,3.2c0.2,0.7,0.9,1.1,2,1.4c2.9,0.8,13.1,2.3,14.6,2.8c1.6,0.4,2.7-1.8,3-2.7
					l0.2-0.9C59.5,35.5,40.6,31.3,40.2,31.7z"/>
				<path class="st6" d="M96.1,49.7c0,0,2.6-0.2,3.4,1.9c0.8,2.1,3.4,7.5,3.4,7.5"/>
				<path class="st7" d="M94.6,44.8c0.6-0.9,2,1.4,2,3c0.1,1.6-0.1,2.5-1.1,3.7c-0.7,0.9-0.9,0.8-1.1,0.9
					C93.6,52.5,94,45.7,94.6,44.8z"/>
				<path class="st8" d="M108.5,57.7c0,0,1.4,0.8,1.8,3.2c0.4,3.1-1.3,4.7-1.3,4.7L108.5,57.7L108.5,57.7z"/>
				<path class="st9" d="M87.3,103.8c-0.4-0.6-1-1.3-1.2-1.1c-0.3,0.2-0.8,1.2-0.9,1.7c0,0.4,0.9,0.1,1.3-0.1
					C86.9,104.2,87.3,103.8,87.3,103.8z M97.7,110.3c0.1,0.5,0,1-0.5,1.2c-0.3,0.1-3.5,0.3-6,0.3c-2.5-0.1-9.5-0.2-10.3-0.2
					c-0.9-0.1-1.9-0.1-2.1-0.4c-0.4-0.5,0.4-2.6,0.4-2.6s5.3,0.7,8.4,0.9c3.1,0.2,7.4,0.6,8.4,0.5c1-0.1,1.2-0.2,1.2-0.2
					S97.7,109.9,97.7,110.3L97.7,110.3z M88.5,104.2c0,0-0.1,0.5-0.6,0.8L88.5,104.2z M89.6,104.8c0,0-0.1,0.7-0.4,1L89.6,104.8z
					 M90.6,105.4c0,0,0,0.7-0.4,1.1L90.6,105.4z M91.7,106.1c0,0,0,0.7-0.4,1.1L91.7,106.1z M92.7,107c0,0,0.1,0.4-0.3,0.8L92.7,107
					z"/>
				<path class="st10" d="M26.1,94.5c-1,0-6.4-0.6-7.1,1.3c-0.6,1.9,0,6.4,1.3,7.4C21.6,104.2,26.1,94.5,26.1,94.5z"/>
				<path class="st11" d="M115.3,95.4c-2.3,3.2-6,10.1-9.4,13.6c-3.5,3.7-8.5,8.2-13.5,8.4c-3.7,0.1-12.2,0.1-17.7-0.1
					c-2-0.1-11.2-0.5-14.2-3.1c-3-2.7,6.7-12.7-2.7-18.8c-9.2-6-14.1-7.3-14.1-7.3l6.2-3.1L78.4,88c0,0-7.4,9.1-3.1,15.1
					c2.8,3.9,5.2,3.4,9.4,4.4c4.2,1,8.1,1.3,11.3-1.6c3.2-2.9,8.9-11,9.9-14.6"/>
				<path class="st12" d="M49,106.3l-9.1-1.6l0.2-0.6l9.7,1.1L49,106.3z"/>
				<path class="st13" d="M47.6,86.4c0,0-0.4-4.2,0.6-5.5c1-1.3,2.1-1.9,4.1-1.9s14.6,0.2,16.3,0c2.7-0.4,8.6,1,9.8,1.5
					c1.1,0.5,2.1,5.4,1.8,6C79.9,87,78.4,88,78.4,88L47.6,86.4z"/>
				<path class="st14" d="M47.6,86.4c0,0-0.4-4.2,0.6-5.5c1-1.3,2.1-1.9,4.1-1.9s14.6,0.2,16.3,0c2.7-0.4,8.6,1,9.8,1.5
					c1.1,0.5,2.1,5.4,1.8,6C79.9,87,78.4,88,78.4,88L47.6,86.4z"/>
				<path class="st15" d="M51.9,65.2c-1.4,1.8-3,5.4-2.5,7.4c0.5,2.1,1.9,5.7,3.7,5.9c22.8,1.7,29.2-1.3,30.1-0.2
					c0.3,0.4-1,3,0.1,7.8c2.6,10.5,2.2,16.7,2.3,17.9c0,0.6,5.4,1.3,4.6-0.1c-0.8-1.4,0.4-19.4,0.5-23.3c0.2-7.3-1.3-9.6-4.2-10.5
					c-2.1-0.7-17.1-1.5-20.3-2C63.1,67.7,51.9,65.2,51.9,65.2L51.9,65.2z M68.9,28.9c-0.8,1-0.8,2.7-0.9,3.5
					C68,34.9,69.5,37,69.5,37s0-0.2-1.9-0.7c-1.9-0.4-5.5-1.6-5.5-1.6s1.1-2.7,1.5-3.8c1.5-3.8,0.2-7.4,0.3-7.7
					c0.1-0.3,2.9,1.3,2.9,1.3l1.2,4.2L68.9,28.9L68.9,28.9z"/>
				<path class="st15" d="M73.6,17.8c0.5,0.5,1.1,2.5,0.7,4.6c-0.3,1.9,0.9,3.2,1,3.6c0.2,0.5-1,0.4-1,0.4S74,28,73.8,28.7
					c-0.2,0.7-0.5,1.6-1.6,1.6c-0.8,0-3.9,0-4.8-2.1c-0.9-2.1-1.6-5.4-0.5-7C68,19.7,72.9,17.1,73.6,17.8z"/>
				<path class="st16" d="M66.4,23l7.4,0.5 M74.9,23.8c-0.1,1-0.5,1.7-0.8,1.7c-0.3,0-0.4-0.9-0.3-1.8c0.1-1,0.5-1.7,0.8-1.7
					C74.9,22,75,22.8,74.9,23.8L74.9,23.8z"/>
				<path class="st17" d="M68.6,34.9c0,0,1.8,3.4,3.1,6.7c1.4,3.6,0.8,6.5-1.1,7.7c-2.8,4.3-5.7,14.6-5.7,14.6l-13.6,1.3L51,61.6
					c0,0,1.2-13.8,4.4-20.5c2.4-5,6.8-8.3,7.5-8.4C64.5,32.6,68.6,34.9,68.6,34.9"/>
				<path class="st18" d="M61.4,24.8c-3.5,2.1-2.8-9.9-14.2-6c-5.2,1.8-10,1.9-12.5-1.1c-3.7-4.7-4.5,8.4,0.8,12.8
					c4.6,3.8,8.7,1,13.8-1.5c5.1-2.6,6.7,1.3,10.3,2.2c5.9,1.5,10.3-3.6,7.9-10.1C66.8,19,67.7,21.1,61.4,24.8"/>
				<path class="st17" d="M82.7,69.4c0,0-9.4-0.5-15.1-1.4c-1.2-0.2-2.2-0.6-2.2-0.6l-0.1-4.5l-13-0.7l-2.9,6
					c-1.1,6-0.7,12.6,7.1,13.2c6.7,0.5,22.8-0.7,23.5-0.8c0.8-0.6,2.2-5.5,2.7-7.5C82.8,69.5,82.7,69.4,82.7,69.4z"/>
				<path class="st15" d="M71.3,54.5c2.4,0.5,8,2.2,9,2.5c3,0.9,12.3,2.6,12.9,2.5c0.4-0.1,1.2,0.4,1.3,2.1c0,0.5,0.1,1.7-0.7,1.5
					C93.2,63,91.7,63,91.2,63c-1.1-0.1-0.8,0.1-4.4-0.1c-4.5-0.3-11.3-0.6-17.8-2c-0.4-0.1-1.3-0.8-1.7-2c-0.4-1,0.3-0.9,0.7-2.2
					C68.6,54.6,71.3,54.5,71.3,54.5z"/>
				<path class="st19" d="M109.4,109.1c-0.7,1-0.9,6.6,1.1,10.1c2,3.5,5.8,7,12.7,6.9c6.9-0.1,10.3-3.4,12.5-8
					c2.7-5.6,0.8-11.7-2-15.4c-2.8-3.7-8.1-5.7-14.7-3.7C111.2,101.5,109.4,109.1,109.4,109.1"/>
				<path class="st20" d="M116.7,109.6c-0.2,0.8-0.7,2.3,0.1,4.4c0.8,2.1,3.1,4.1,6.3,4.1c3.2-0.1,5.3-1.9,5.8-4.5
					c0.6-2.6-0.5-5.8-2.2-7.1c-1.7-1.3-4.6-1.8-6.9-0.5C117.4,107.2,116.7,109.6,116.7,109.6z"/>
				<path class="st19" d="M25.8,108.7c-0.7,1-0.9,6.6,1.1,10.1c2,3.5,5.8,7,12.7,6.9c6.9-0.1,10.3-3.4,12.5-8
					c2.7-5.6,0.8-11.7-2-15.4c-2.8-3.7-8.1-5.7-14.7-3.7C27.7,101,25.8,108.7,25.8,108.7"/>
				<path class="st20" d="M33.3,108.7c-0.2,0.8-0.7,2.3,0.1,4.4c0.7,2.1,3.1,4.1,6.3,4.1c3.2-0.1,5.3-1.9,5.8-4.4
					c0.6-2.6-0.5-5.8-2.2-7.1c-1.7-1.3-4.6-1.8-6.9-0.5C34,106.3,33.3,108.7,33.3,108.7z"/>
				<path class="st11" d="M101.3,67.1c0,0-1.9,0.2-1.5,2.9c0.4,2.7,3.6,12.1,3.3,20.2c-0.3,8.3-2.7,10.5-5.8,14.3
					c-3.1,3.8-4.4,4.6-4.4,4.6s4.2,0.8,8.1-1.7c4-2.5,23.6-11.8,23.6-11.8s2.7-8.6-8.7-15.5c-8.6-5.2-12.4-12.6-12.6-13.7
					C102.2,66.9,101.3,67.1,101.3,67.1z"/>
				<path class="st11" d="M97.9,63.2c0.2-0.1,1.3,0.1,1.8,0.6c0.6,0.5,1.3,1.6,1.6,3.7c0.8-0.1,1.5-0.4,2.1-1c0,0-0.2-0.1,0.9,0
					c1,0.1,4.1-0.2,4.6-0.7c0.5-0.5,0.6-5.7-0.8-8.7c-1.2-0.4-3.4-0.4-5.8,1.5c-2.3,1.8-2.9,2.6-3.5,2.8c-0.6,0.2-1.6,0.4-1.6,0.4
					L97.9,63.2z M106.9,118.5c0,0-3.8-10.4,0.9-17.5c4.2-6.3,12.4-8.8,18.7-6.8c6.3,2,10.8,7.7,10.4,9.3c-0.4,1.6-2.7,2.2-5.4,2.2
					s-6.8-2-11.1,0.4c-3.7,2-2.5,4.5-4.1,7.7C114.8,117,111.8,119.6,106.9,118.5z M18.1,105.7c-0.9-1.1,7.4-14.4,18.7-16.8
					c5.8-1.2,11-1.5,15.6,0.2c8.8,3.4,12.9,13.4,12.5,19.9c-0.1,1.9-0.3,3.8-0.6,5.6c0,0-16.9,0.4-33.2-4
					C27.2,109.6,19,106.8,18.1,105.7z"/>
				<path class="st21" d="M40.8,105.2c0,0,4.7,0.8,9.1,0.9 M39.9,109.1c0,0,4.7,0.8,9.1,0.9L39.9,109.1z M40.4,107.3
					c0,0,4.7,0.8,9.1,0.9L40.4,107.3z"/>
				<path class="st19" d="M64.3,28.1c1.6-0.6-0.7-1.6-1.4-2.6c-0.3-0.5-1.1-1.5-0.1-2.2c1-0.6,1.2-0.6,2-1.8
					c0.8-1.2,0.9-4.8,2.8-5.8c3.5-1.8,7.6-0.2,7.5,2.1c0,1,0.1,3.5-3.9,4.3c-1.5,0.3-2.9-1.1-2.6,3c0.2,2.9-2.3,4.9-3.6,5.2"/>
				<path class="st17" d="M75.9,18.3c0-1.1-1.1-4.1-3.6-5.3c-2.8-1.4-5.2-2.3-9.4-0.5c-4.3,1.9-5.3,6.1-4.9,8.5c0.4,2.4,2.1,6,2.1,6
					s2.9,0.7,3.9,0.8c1,0.1,2,0.1,2.9-1c0.9-1.1,0.8-1.7,0.8-3.5c-0.1-1.7,0.3-2.5,1.2-3.2c0.7-0.6,1.5-0.9,3.1-1
					C73.6,18.9,75.9,19,75.9,18.3z"/>
				<path class="st14" d="M107.8,101.1c-0.7,1.1-1.3,2.3-1.6,3.6c7.2-3.7,18.5-9,18.5-9s0.2-0.7,0.3-1.8
					C118.9,92.7,111.7,95.2,107.8,101.1z M64.3,114.6c0,0,0.4-2.6,0.6-5.6c0.4-6.5-3.8-16.5-12.5-19.9c-2.5-1-5.3-1.3-8.2-1.2
					l-0.5,0.2c0,0,4.9,1.2,14.1,7.3c9.4,6.1-0.3,16.1,2.7,18.8c0.2,0.1,0.3,0.3,0.5,0.4C63.1,114.6,64.3,114.6,64.3,114.6z
					 M75.2,102.8c0,0,0.9,8.7,9.6,8.2c8.7-0.5,10.1-4.2,10.1-4.2s-6.3,1.3-13.5,0.1C77.7,106.2,76.7,104.7,75.2,102.8z"/>
				<path class="st20" d="M99.5,108.8c0.1,0.4,0,0.8-0.4,1c-0.3,0.1-2.9,0.3-4.9,0.2c-2,0-7.9-0.1-8.5-0.2c-0.7-0.1-1.5-0.1-1.7-0.3
					c-0.3-0.4,0.3-2.2,0.3-2.2s4.4,0.6,7,0.7c2.6,0.1,6.1,0.5,7,0.4c0.8-0.1,1-0.1,1-0.1S99.5,108.4,99.5,108.8"/>
				<path class="st22" d="M99.3,108.3c0,0-0.1-0.6-0.6-0.8c-0.5-0.2-2.9-1-5.2-2.5c-1.1-0.7-2.3-1.5-2.7-1.7s-1.6,0.8-1.7,0.9
					c-0.1,0.1-0.9,0.3-1.4,0.3c-0.5,0-0.7-0.1-0.9-0.3c-0.2-0.2,0-1.2-0.5-1.2c-0.5,0-0.9,0.1-1,0.3c-0.1,0.2-0.5,1.6-0.6,2.2
					c-0.1,0.6-0.3,1.8-0.3,1.8c0,0.1,1.5,0.5,4.6,0.7c2.8,0.2,7.7,0.5,8.6,0.5C98.7,108.5,99.3,108.3,99.3,108.3"/>
				<path class="st3" d="M52.4,44.6c0,0,9.1-5.2,13.4-4c-0.3-1.4-2.6-2.8-4.7-2.9c-2.9-0.2-5.3,1.5-6.8,3.8
					C53.9,42.1,52.4,44.6,52.4,44.6z M67.9,52.8c0,0-11.3,6.8-11.8,7.3c-0.8,0.8,0,3.1,0.6,3.1c0.6,0,10.5-6.1,10.5-6.1l-0.2-2.5
					L67.9,52.8L67.9,52.8z"/>
				<path class="st23" d="M57.6,60.4l-7,1.6l0.2,2.1l7-2.4L57.6,60.4z"/>
				<path class="st15" d="M58.4,41.9c0.3,1.5,7,13.9,8.4,16.7c0,0,1.6,3.5,4.7,2c3-1.5,0.3-6.9,0.3-6.9c-1-3-3-6.8-2.9-6.5l-4.3-7.1
					C64.6,40.1,60.1,39.6,58.4,41.9z"/>
				<path class="st17" d="M66.1,39.7c1.2,1.8,3.8,5.8,4.6,6.8c-0.5,1.6-3.1,3.8-7.9,6.2c-3.6-4.2-4.4-7.9-4.5-10.1
					c-0.1-1.7,0.6-3.3,2-4.3c0.8-0.6,2-1,3.3-0.6C64.7,38.1,65.5,38.8,66.1,39.7z"/>
				<path class="st19" d="M98,62.1c0,0.6-0.2,1-0.6,1.4c-0.2,0.2-0.4,0.3-0.6,0.3c-0.2,0.1-0.4,0.1-0.7,0.1c-0.7-0.1-1,0.1-1.6-0.9
					c-0.2-0.3-0.3-0.8-0.2-1.2c0.1-0.5,0.4-0.9,0.8-1.2c0.2-0.2,0.4-0.3,0.7-0.3c0.2-0.1,0.5-0.1,0.7,0c0.2,0.1,0.5,0.2,0.7,0.3
					c0.2,0.2,0.3,0.3,0.5,0.6C97.9,61.5,98,61.8,98,62.1"/>
				<path class="st15" d="M92.8,59.5c0,0,2.4-1.1,3.7-0.9c1.3,0.1,5.2,2.3,5,3.2c-0.2,0.6-1.8-0.1-2.1-0.4c-0.3-0.3-0.2,1.3-0.6,1.7
					c-0.4,0.4-1.2,0.6-1.2,0.4c-0.1-0.5,0.1-2.2-0.5-2.6c-0.5-0.4-1.5-0.6-2.1,0.4c-0.1,0.2-0.2,0.3-0.2,0.5c0,0.2,0,0.4,0.1,0.6
					c0.1,0.2,0.2,0.3,0.3,0.5c0.1,0.1,0.3,0.2,0.5,0.3c0.4,0.1,1.7-0.1,1.8,0.5c0.1,0.4,0.1,0.5-0.1,0.6c-0.3,0.1-1.1,0-1.6,0.1
					c-0.5,0-0.9,0.2-1.4-0.1c-0.6-0.3-2-1.4-2-1.4L92.8,59.5z"/>
				<path class="st24" d="M67.6,21c-0.7-2,0.1,0.1-6.1,3.8c-1.3,0.8-2-0.3-2.9-1.9c0.6,2,1.6,4,1.6,4s2.9,0.7,3.9,0.8
					c1,0.1,2,0.1,2.9-1c0.9-1.1,0.8-1.7,0.8-3.5c0-0.7,0-1.2,0.1-1.6C67.7,21.4,67.6,21.2,67.6,21"/>
				<path class="st25" d="M69.5,37L69.5,37C69.5,37,69.5,37,69.5,37z"/>
			</g>
		</g>
	</g>
</g>
<g>
	<g id="Layer_1_1_">
		<path class="st26" d="M46.7,56.2c-2.8-0.6-5.7-1.1-8.5-1.7c0.4-2,0.8-4.1,1.2-6.1c3.7,0.7,7.4,1.5,11.1,2.2
			c-0.4,2-0.8,4.1-1.2,6.1C48.5,56.5,47.6,56.3,46.7,56.2 M40.4,54.1c0.1,0.2,0.2,0.3,0.3,0.3c0.3,0.1,0.6,0,0.7-0.3c0,0,0,0,0.1,0
			c0.2,0,0.2,0,0.2-0.2c0,0,0,0,0,0c0-0.1,0-0.2-0.1-0.3c0,0,0,0-0.1,0c0,0,0,0,0,0c0-0.5-0.1-0.9-0.6-1.2c0,0,0,0,0-0.1
			c0-0.2-0.1-0.4-0.3-0.4c-0.2,0-0.4,0.1-0.5,0.3c0,0,0,0-0.1,0.1c-0.5,0.1-0.8,0.4-0.9,0.8c0,0,0,0,0,0c-0.2,0-0.2,0.1-0.3,0.2
			c0,0,0,0.1,0,0.1c0,0.1,0,0.1,0.1,0.1c0,0,0.1,0,0.1,0.1c0,0.3,0.3,0.6,0.6,0.5c0.2,0,0.4-0.1,0.5-0.3c0,0,0,0,0,0
			c0.1,0,0.2,0,0.2,0C40.4,54,40.4,54,40.4,54.1 M43.5,52.3c-0.2-0.2-0.4-0.3-0.7-0.3c-0.8-0.2-1.5-0.3-2.3-0.5c0,0-0.1,0-0.1,0
			c-0.2-0.1-0.3-0.3-0.2-0.4c0.1-0.2,0.2-0.2,0.4-0.2c1,0.2,1.9,0.4,2.9,0.6c0.1,0,0.1,0,0.2-0.1c0-0.1,0-0.1-0.1-0.1
			c-1-0.2-1.9-0.4-2.9-0.6c0,0,0,0-0.1,0c-0.3,0-0.5,0.1-0.6,0.4c-0.1,0.2,0.1,0.5,0.3,0.6c0.1,0,0.2,0.1,0.3,0.1
			c0.7,0.1,1.5,0.3,2.2,0.4c0.7,0.2,1.2,1,0.8,1.7c-0.3,0.6-0.8,0.9-1.4,0.7c-0.3,0-0.5-0.1-0.8-0.2c0,0-0.1,0-0.1,0
			c0,0-0.1,0-0.1,0.1c0,0,0,0.1,0.1,0.1c0,0,0,0,0,0c0.3,0.1,0.5,0.1,0.8,0.2c0.3,0.1,0.6,0,0.9-0.1c0.5-0.2,0.8-0.8,0.8-1.3
			C44,52.9,43.9,52.6,43.5,52.3 M44.8,50.6c0.1-0.5-0.2-0.8-0.7-0.8c-0.4,0-0.6,0.4-0.6,0.7c0.1,0.3,0.2,0.6,0.4,0.9
			c0,0.1,0.1,0.1,0.1,0c0.1-0.1,0.3-0.2,0.4-0.3C44.6,51,44.7,50.8,44.8,50.6 M44.9,53.2c0,0.1,0,0.2,0,0.3c0,0.1,0,0.1,0.1,0.1
			c0-0.1,0.1-0.2,0.1-0.3c0,0,0,0.1,0,0.1c0,0.1,0,0.1,0,0.2c0,0,0,0.1,0.1,0.1s0.1,0,0.1-0.1c0,0,0-0.1,0.1-0.1
			c0.1-0.1,0.1-0.3,0.2-0.4c0-0.1,0-0.1,0-0.1c-0.1,0-0.1,0-0.1,0.1c0,0.1-0.1,0.2-0.1,0.3c0,0,0,0,0,0c0-0.1,0-0.2,0-0.3
			c0,0,0-0.1-0.1-0.1c-0.1,0-0.1,0-0.1,0.1c0,0.1-0.1,0.2-0.1,0.3c0,0,0,0,0,0c0-0.1,0-0.2,0-0.3c0-0.1-0.1-0.1-0.1-0.1
			c-0.1,0,0,0,0,0.1C44.9,53,44.9,53.1,44.9,53.2 M46.8,53.2c-0.1-0.1-0.2-0.1-0.2-0.1c0,0-0.1,0-0.1,0.1c0,0.2-0.1,0.4-0.1,0.6
			c0,0,0,0,0,0.1c0.1,0,0.3,0,0.4,0C46.8,53.7,46.9,53.4,46.8,53.2 M48.6,52.5c-0.1-0.1-0.2-0.1-0.3-0.1c0,0,0,0,0,0
			c0,0.2-0.1,0.4-0.1,0.6c0,0,0,0,0,0.1c0.1,0.1,0.3,0,0.4,0C48.7,53,48.8,52.6,48.6,52.5 M47.8,52.8c0,0.1,0,0.1,0.1,0.2
			c0,0.1,0.1,0.1,0.2,0.1c0-0.1,0-0.2-0.1-0.2s0-0.1,0.1-0.2c0.1,0,0.1-0.1,0.1-0.2c0-0.1-0.1-0.1-0.2-0.2c0,0-0.1,0-0.1,0
			c-0.1,0-0.1,0-0.1,0.1c0,0.2-0.1,0.4-0.1,0.6c0,0,0,0,0,0.1c0,0,0.1,0,0.1,0C47.8,53,47.8,52.9,47.8,52.8 M49.3,54.4
			c0-0.1,0-0.2-0.1-0.3c0-0.1,0-0.1,0-0.1c0.1-0.1,0.1-0.1,0.1-0.2c0-0.1-0.1-0.1-0.2-0.2c0,0-0.1,0-0.1,0c-0.1,0-0.1,0-0.1,0.1
			c0,0.2-0.1,0.4-0.1,0.6c0,0,0,0,0,0.1c0,0,0.1,0,0.1,0c0-0.1,0-0.2,0.1-0.3c0,0.1,0.1,0.1,0.1,0.2C49.2,54.5,49.2,54.5,49.3,54.4
			 M49.3,52.7c0,0.2-0.1,0.4-0.1,0.7c0,0,0.1,0,0.1,0c0-0.1,0-0.2,0.1-0.3c0,0.1,0,0.1,0.1,0.2c0,0.1,0,0.1,0.2,0.1c0,0,0,0,0,0
			c0-0.1,0-0.2-0.1-0.3c0-0.1,0-0.1,0-0.1c0.1-0.1,0.1-0.1,0.1-0.3c0-0.1-0.1-0.1-0.2-0.2C49.4,52.6,49.4,52.6,49.3,52.7
			C49.3,52.6,49.3,52.6,49.3,52.7 M46.4,52.1c0,0.2-0.1,0.3-0.1,0.5c0,0.1,0,0.2,0.1,0.2c0.1,0.1,0.3,0,0.3-0.1
			c0-0.1,0.1-0.3,0.1-0.4c0-0.1,0-0.1-0.1-0.1c0,0.1-0.1,0.3-0.1,0.4c0,0,0,0.1,0,0.1c0,0,0,0.1-0.1,0.1c0,0-0.1-0.1,0-0.1
			c0-0.1,0-0.2,0-0.3c0-0.1,0-0.2,0.1-0.3C46.4,52,46.4,52,46.4,52.1 M45.6,52.4C45.6,52.4,45.6,52.4,45.6,52.4
			c0,0.2,0.1,0.3,0.2,0.3c0.1,0,0.2,0,0.3-0.2c0-0.1,0.1-0.2,0.1-0.3c0-0.1-0.1-0.3-0.2-0.3c-0.1,0-0.3,0-0.3,0.2
			C45.7,52.2,45.7,52.3,45.6,52.4 M47.1,52.7c0,0.1,0.1,0.2,0.2,0.2c0.1,0,0.2,0,0.3-0.2c0-0.1,0.1-0.2,0.1-0.3
			c0-0.1-0.1-0.3-0.2-0.3c-0.1,0-0.3,0.1-0.3,0.2C47.1,52.5,47.1,52.6,47.1,52.7 M48.2,53.7c0-0.1,0-0.1,0-0.2c0-0.1,0-0.1-0.1-0.1
			c0,0,0,0,0,0.1c0,0.2,0,0.4,0,0.7c0,0,0,0.1,0.1,0.1c0,0,0.1,0,0.1,0c0.1-0.2,0.2-0.4,0.3-0.6c0,0,0-0.1,0-0.1c0,0-0.1,0-0.1,0
			c0,0.1-0.1,0.1-0.1,0.2c0,0.1-0.1,0.1-0.1,0.2c0,0,0,0,0,0C48.2,53.9,48.2,53.8,48.2,53.7 M49.1,52.5c-0.1,0-0.1,0-0.2,0
			c0,0-0.1,0-0.1,0c0,0.2-0.1,0.4-0.1,0.6c0,0,0,0.1,0,0.1c0.1,0,0.1,0,0.2,0c0,0,0.1,0,0.1-0.1c0,0,0-0.1,0-0.1c0,0-0.1,0-0.1,0
			c0-0.2,0-0.2,0.2-0.2c0.1,0,0.1,0,0.1-0.1c0,0,0-0.1,0-0.1c0,0-0.1,0-0.1,0c0-0.2,0-0.2,0.1-0.1C49.1,52.7,49.2,52.7,49.1,52.5
			C49.2,52.6,49.2,52.6,49.1,52.5 M47.3,53.3c-0.1,0-0.1,0-0.2,0c-0.1,0-0.1,0-0.1,0.1c0,0.1-0.1,0.3-0.1,0.4
			C46.8,54,46.8,54,47.1,54c0,0,0,0,0,0c0,0,0.1,0,0.1-0.1c0,0,0-0.1,0-0.1c0,0-0.1,0-0.1,0c0-0.1,0-0.1,0.1-0.2c0,0,0.1,0,0.1,0
			c0,0,0,0,0,0c0.1,0,0.1,0,0.1-0.1c0,0,0,0,0-0.1c0,0-0.1,0-0.1,0c0-0.2,0-0.2,0.2-0.1c0,0,0,0,0,0C47.3,53.4,47.3,53.4,47.3,53.3
			C47.3,53.3,47.3,53.3,47.3,53.3 M48.9,53.6c-0.1,0-0.1,0-0.2,0c0,0-0.1,0-0.1,0c0,0.1,0,0.1,0,0.2c0,0.1-0.1,0.3-0.1,0.4
			c0,0,0,0.1,0,0.1c0.1,0,0.1,0,0.2,0c0,0,0.1,0,0.1-0.1c0,0,0-0.1-0.1-0.1c0,0-0.1,0-0.1,0c0-0.1,0-0.1,0-0.2c0,0,0.1,0,0.1,0
			c0.1,0,0.1,0,0.1-0.1c0,0,0-0.1,0-0.1c0,0-0.1,0-0.1,0c0-0.2,0-0.2,0.2-0.1C48.9,53.7,49,53.7,48.9,53.6
			C49,53.6,49,53.6,48.9,53.6 M45.8,53.6c0,0,0-0.1,0-0.1c0,0,0.1,0,0.1,0c0.1,0,0.1,0,0.1-0.1c0,0,0-0.1,0-0.1c0,0-0.1,0-0.1,0
			c0-0.1,0-0.1,0-0.1c0.1,0,0.1,0,0.2,0c0,0,0-0.1,0-0.1c-0.1,0-0.2,0-0.3-0.1c0,0-0.1,0-0.1,0c0,0.2-0.1,0.4-0.1,0.6
			c0,0,0,0.1,0,0.1c0.1,0,0.1,0,0.2,0c0,0,0.1,0,0.1-0.1C46,53.6,45.9,53.6,45.8,53.6C45.9,53.6,45.8,53.6,45.8,53.6 M45.5,51.8
			C45.5,51.9,45.5,51.9,45.5,51.8c-0.1,0.1-0.2,0.2-0.2,0.2c0,0,0,0,0,0c0-0.1,0-0.1,0-0.2c0-0.1-0.1-0.1-0.2-0.1
			c0.1,0.2,0.2,0.5,0,0.8c0.1,0,0.1,0,0.1,0C45.3,52.3,45.5,52.1,45.5,51.8C45.6,51.9,45.6,51.8,45.5,51.8 M47.4,53.9
			c0-0.2,0.1-0.3,0.1-0.5c-0.1,0-0.1,0-0.1,0.1c0,0.1,0,0.2-0.1,0.3c0,0.1,0,0.2-0.1,0.3c0.1,0,0.2,0,0.3,0.1c0,0,0-0.1,0-0.1
			C47.5,54,47.5,54,47.4,53.9C47.4,53.9,47.4,53.9,47.4,53.9 M47.8,54.1c0-0.2,0.1-0.5,0.1-0.7c0-0.1,0-0.1-0.1-0.1
			c0,0-0.1,0-0.1,0.1c0,0.1,0,0.2-0.1,0.3c0,0.1,0,0.2-0.1,0.4C47.7,54.1,47.8,54.1,47.8,54.1z"/>
		<path class="st27" d="M40.4,54.1c0-0.1,0-0.2-0.1-0.2c-0.1,0-0.1,0-0.2,0c0,0,0,0,0,0c-0.1,0.2-0.3,0.3-0.5,0.3
			c-0.3,0-0.6-0.2-0.6-0.5c0-0.1,0-0.1-0.1-0.1c-0.1,0-0.1,0-0.1-0.1c0,0,0-0.1,0-0.1c0-0.2,0.1-0.2,0.3-0.2c0,0,0,0,0,0
			c0.2-0.5,0.5-0.7,0.9-0.8c0,0,0.1,0,0.1-0.1c0.1-0.2,0.3-0.3,0.5-0.3c0.2,0,0.3,0.2,0.3,0.4c0,0,0,0,0,0.1
			c0.4,0.3,0.6,0.7,0.6,1.2c0,0,0,0,0,0c0,0,0,0,0.1,0c0.1,0.1,0.1,0.1,0.1,0.3c0,0,0,0,0,0c0,0.2,0,0.2-0.2,0.2c0,0-0.1,0-0.1,0
			c-0.2,0.3-0.4,0.4-0.7,0.3C40.6,54.4,40.5,54.3,40.4,54.1 M39.7,52.7c-0.1,0.1-0.2,0.3-0.3,0.5c0.7,0.1,1.4,0.3,2.1,0.4
			c0-0.3-0.1-0.6-0.2-0.8C40.9,52.4,40.2,52.3,39.7,52.7 M39.9,53.6c0.6,0.1,1.1,0.2,1.7,0.3c0-0.1,0-0.2-0.1-0.2
			c-0.8-0.2-1.5-0.3-2.3-0.5c-0.1,0-0.2,0-0.2,0.1C39.4,53.5,39.6,53.6,39.9,53.6 M40.6,54c0.1,0.2,0.2,0.3,0.4,0.3
			c0.2,0,0.3-0.1,0.4-0.2c-0.1,0-0.1,0-0.1,0c-0.1,0.1-0.2,0.1-0.3,0.1S40.7,54.1,40.6,54C40.6,53.9,40.6,53.9,40.6,54
			C40.6,54,40.6,54,40.6,54 M39.9,53.8c-0.1,0.1-0.2,0.2-0.3,0.1c-0.1,0-0.2-0.1-0.2-0.3c0-0.1,0-0.1-0.1-0.1c0,0.2,0.1,0.4,0.3,0.4
			c0.2,0,0.4-0.1,0.4-0.2C39.9,53.8,39.9,53.8,39.9,53.8 M40.8,52.3c-0.1-0.1-0.1-0.2-0.3-0.2c-0.1,0-0.2,0.1-0.2,0.1
			C40.6,52.3,40.7,52.3,40.8,52.3C40.9,52.3,40.9,52.3,40.8,52.3 M39.6,53.8c0,0,0.1,0,0.1,0c0,0,0,0,0,0c-0.1,0-0.2,0-0.3-0.1
			C39.5,53.8,39.5,53.8,39.6,53.8 M41,54c0,0-0.1,0-0.1,0c0.1,0.1,0.2,0.1,0.3,0.1C41,54,41,54,41,54z"/>
		<path class="st28" d="M43.5,52.3c0.3,0.3,0.5,0.6,0.5,1.1c0,0.5-0.3,1.1-0.8,1.3c-0.3,0.2-0.6,0.2-0.9,0.1
			c-0.3-0.1-0.5-0.1-0.8-0.2c0,0,0,0,0,0c0,0-0.1-0.1-0.1-0.1c0,0,0-0.1,0.1-0.1c0,0,0.1,0,0.1,0c0.3,0.1,0.5,0.1,0.8,0.2
			c0.6,0.1,1.2-0.2,1.4-0.7c0.3-0.7-0.1-1.6-0.8-1.7c-0.7-0.2-1.5-0.3-2.2-0.4c-0.1,0-0.2,0-0.3-0.1c-0.3-0.1-0.4-0.3-0.3-0.6
			c0.1-0.3,0.3-0.4,0.6-0.4c0,0,0,0,0.1,0c1,0.2,1.9,0.4,2.9,0.6c0.1,0,0.1,0,0.1,0.1c0,0.1-0.1,0.1-0.2,0.1c-1-0.2-1.9-0.4-2.9-0.6
			c-0.2,0-0.3,0-0.4,0.2c-0.1,0.2,0,0.4,0.2,0.4c0,0,0.1,0,0.1,0c0.8,0.2,1.5,0.3,2.3,0.5C43.1,52,43.3,52.1,43.5,52.3z"/>
		<path class="st29" d="M42.8,49.7c0,0.2,0,0.5,0,0.7c0,0,0,0,0,0c0-0.1,0.1-0.2,0.1-0.2c0.1-0.1,0.1-0.3,0.2-0.4
			c0-0.1,0-0.1,0.1-0.1c0.2,0,0.2,0,0.1,0.2c0,0.4-0.1,0.8-0.1,1.2c0,0.1,0,0.1-0.1,0.1c-0.1,0-0.1,0-0.1-0.2c0-0.2,0-0.3,0-0.5
			c0,0,0,0,0,0c0,0,0,0.1-0.1,0.1c-0.1,0.1-0.1,0.3-0.2,0.4c0,0,0,0-0.1,0c-0.2,0-0.1,0-0.2-0.2c0-0.1,0-0.3,0-0.4c0,0,0,0,0-0.1
			c0,0,0,0,0,0c-0.1,0.2-0.1,0.4-0.2,0.6c0,0,0,0,0,0c-0.2,0-0.2,0-0.2-0.2c0.1-0.4,0.2-0.7,0.4-1.1c0-0.1,0-0.1,0.1-0.1
			c0,0,0,0,0,0C42.8,49.5,42.8,49.5,42.8,49.7z"/>
		<path class="st30" d="M41.9,49.6c0,0.3,0,0.7,0,1c0,0,0,0,0,0c0,0,0,0.1,0,0.1c-0.1,0-0.1,0-0.2,0c0,0,0-0.1,0-0.1
			c0-0.1,0-0.1-0.1-0.1c0,0,0,0,0,0c-0.1,0-0.1,0-0.2,0.1c0,0,0,0.1-0.1,0.1c-0.1,0-0.1,0-0.2,0c0.2-0.5,0.4-0.9,0.6-1.3
			c0,0,0.1,0,0.1,0C42,49.4,42,49.4,41.9,49.6C41.9,49.6,41.9,49.6,41.9,49.6 M41.6,50.3c0,0,0.1,0,0.1,0c0-0.1,0-0.3,0-0.4
			C41.6,50,41.6,50.2,41.6,50.3C41.5,50.3,41.6,50.3,41.6,50.3z"/>
		<path class="st31" d="M44.8,50.6c-0.1,0.2-0.2,0.4-0.4,0.5c-0.1,0.1-0.2,0.2-0.4,0.3c-0.1,0.1-0.1,0-0.1,0
			c-0.2-0.3-0.3-0.6-0.4-0.9c-0.1-0.3,0.2-0.7,0.6-0.7C44.6,49.8,44.9,50.1,44.8,50.6 M43.7,50.6c0.1,0.2,0.2,0.5,0.3,0.7
			c0.2-0.2,0.4-0.4,0.6-0.6c0.1-0.2,0.1-0.4,0-0.5C44.4,50,44.2,49.9,44,50C43.8,50.1,43.6,50.3,43.7,50.6z"/>
		<path class="st30" d="M40.7,50.2c0,0.1,0,0.2-0.1,0.3c0,0,0,0.1-0.1,0.1c-0.2,0-0.2,0-0.1-0.2c0.1-0.5,0.1-0.5,0-1
			c0-0.1,0-0.2-0.1-0.2c0-0.1,0-0.1,0.1-0.1c0,0,0,0,0,0c0.2,0,0.2,0,0.2,0.2c0,0.1,0,0.2,0.1,0.3c0,0,0,0,0,0.1
			c0.1-0.1,0.1-0.2,0.2-0.3c0,0,0-0.1,0.1-0.1c0.1-0.1,0.1-0.1,0.2-0.1c0.1,0,0.1,0,0,0.1c-0.1,0.1-0.2,0.2-0.3,0.4
			c0,0,0,0.1-0.1,0.1C40.8,49.9,40.7,50,40.7,50.2z"/>
		<path class="st28" d="M44.9,53.2c0-0.1,0-0.2,0-0.3c0,0,0-0.1,0-0.1c0,0,0.1,0,0.1,0.1c0,0.1,0,0.2,0,0.3c0,0,0,0,0,0
			c0-0.1,0.1-0.2,0.1-0.3c0,0,0-0.1,0.1-0.1c0,0,0.1,0,0.1,0.1c0,0.1,0,0.2,0,0.3c0,0,0,0,0,0c0-0.1,0.1-0.2,0.1-0.3
			c0,0,0-0.1,0.1-0.1c0.1,0,0.1,0,0,0.1c-0.1,0.1-0.1,0.3-0.2,0.4c0,0,0,0.1-0.1,0.1c0,0,0,0.1-0.1,0.1c-0.1,0-0.1,0-0.1-0.1
			c0-0.1,0-0.1,0-0.2c0,0,0-0.1,0-0.1c0,0.1-0.1,0.2-0.1,0.3c-0.1,0-0.1,0-0.1-0.1C44.9,53.4,44.9,53.3,44.9,53.2z"/>
		<path class="st32" d="M46.8,53.2c0.1,0.1,0.1,0.5-0.1,0.6c-0.1,0-0.3,0.1-0.4,0c0,0,0,0,0-0.1c0-0.2,0.1-0.4,0.1-0.6
			c0,0,0-0.1,0.1-0.1C46.6,53.1,46.7,53.1,46.8,53.2 M46.5,53.8c0,0,0.1,0,0.1-0.1c0.1-0.1,0.1-0.2,0.1-0.3c0-0.1-0.1-0.1-0.1-0.1
			C46.5,53.4,46.5,53.6,46.5,53.8C46.5,53.7,46.5,53.7,46.5,53.8z"/>
		<path class="st33" d="M48.6,52.5c0.1,0.1,0.1,0.5-0.1,0.6c-0.1,0.1-0.3,0.1-0.4,0c0,0,0,0,0-0.1c0-0.2,0.1-0.4,0.1-0.6
			c0,0,0,0,0,0C48.4,52.4,48.6,52.4,48.6,52.5 M48.4,52.8c0,0.1,0,0.2-0.1,0.3c0.1,0,0.1,0,0.2,0c0.1-0.1,0.1-0.2,0.1-0.3
			c0-0.1-0.1-0.1-0.1-0.1C48.4,52.6,48.4,52.7,48.4,52.8z"/>
		<path class="st34" d="M47.8,52.8c0,0.1,0,0.2-0.1,0.3c0,0-0.1,0-0.1,0c0,0,0,0,0-0.1c0-0.2,0.1-0.4,0.1-0.6c0-0.1,0-0.1,0.1-0.1
			c0,0,0.1,0,0.1,0c0.1,0,0.1,0.1,0.2,0.2c0,0.1,0,0.2-0.1,0.2c-0.1,0-0.1,0.1-0.1,0.2c0,0.1,0,0.1,0.1,0.2c-0.1,0-0.1,0-0.2-0.1
			C47.9,52.9,47.9,52.9,47.8,52.8 M47.9,52.7c0.1,0,0.1,0,0.1-0.1c0,0,0-0.1,0-0.1c0,0-0.1,0-0.1,0C47.9,52.5,47.9,52.6,47.9,52.7z"
			/>
		<path class="st28" d="M49.3,54.4c-0.1,0-0.1,0-0.2-0.1c0-0.1,0-0.1-0.1-0.2c0,0.1,0,0.2-0.1,0.3c0,0-0.1,0-0.1,0c0,0,0,0,0-0.1
			c0-0.2,0.1-0.4,0.1-0.6c0-0.1,0-0.1,0.1-0.1c0,0,0.1,0,0.1,0c0.1,0,0.2,0.1,0.2,0.2c0,0.1,0,0.2-0.1,0.2c0,0-0.1,0.1,0,0.1
			C49.3,54.3,49.3,54.4,49.3,54.4 M49.3,53.9C49.3,53.9,49.3,53.8,49.3,53.9c-0.1-0.1-0.1-0.1-0.1-0.1c0,0.1,0,0.1,0,0.2
			C49.2,54,49.3,54,49.3,53.9z"/>
		<path class="st35" d="M49.3,52.7C49.3,52.6,49.3,52.6,49.3,52.7c0.1-0.1,0.1-0.1,0.2-0.1c0.1,0,0.2,0.1,0.2,0.2
			c0,0.1,0,0.2-0.1,0.3c0,0-0.1,0.1,0,0.1c0,0.1,0,0.2,0.1,0.3c0,0,0,0,0,0c-0.1,0-0.1,0-0.2-0.1c0-0.1,0-0.1-0.1-0.2
			c0,0.1,0,0.2-0.1,0.3c0,0-0.1,0-0.1,0C49.2,53.1,49.2,52.9,49.3,52.7 M49.4,53c0,0,0.1,0,0.1,0c0-0.1,0-0.1,0-0.2c0,0-0.1,0-0.1,0
			C49.4,52.8,49.4,52.9,49.4,53z"/>
		<path class="st35" d="M46.4,52.1c0-0.1,0-0.1,0.1-0.1c0,0.1,0,0.2-0.1,0.3c0,0.1,0,0.2,0,0.3c0,0,0,0.1,0,0.1c0.1,0,0.1,0,0.1-0.1
			c0,0,0-0.1,0-0.1c0-0.1,0.1-0.3,0.1-0.4c0.1,0,0.1,0,0.1,0.1c0,0.1-0.1,0.3-0.1,0.4c0,0.2-0.2,0.2-0.3,0.1c-0.1,0-0.1-0.1-0.1-0.2
			C46.3,52.4,46.3,52.3,46.4,52.1z"/>
		<path class="st36" d="M45.6,52.4c0-0.1,0-0.2,0.1-0.3c0-0.1,0.2-0.2,0.3-0.2c0.1,0,0.2,0.2,0.2,0.3c0,0.1,0,0.2-0.1,0.3
			c-0.1,0.1-0.2,0.2-0.3,0.2S45.7,52.6,45.6,52.4C45.6,52.4,45.6,52.4,45.6,52.4 M46.1,52.1c-0.1-0.1-0.2-0.1-0.2,0
			c-0.1,0.1-0.1,0.2-0.1,0.3c0,0.1,0,0.1,0.1,0.1c0.1,0,0.1,0,0.2-0.1C46.1,52.4,46.1,52.2,46.1,52.1z"/>
		<path class="st35" d="M47.1,52.7c0-0.1,0-0.2,0-0.3c0.1-0.1,0.2-0.2,0.3-0.2c0.1,0,0.2,0.1,0.2,0.3c0,0.1,0,0.2-0.1,0.3
			c0,0.1-0.2,0.2-0.3,0.2C47.2,53,47.1,52.9,47.1,52.7 M47.5,52.5C47.5,52.5,47.5,52.5,47.5,52.5c0-0.1,0-0.2-0.1-0.2
			c-0.1,0-0.1,0-0.1,0.1c-0.1,0.1-0.1,0.2-0.1,0.3c0,0.1,0.1,0.1,0.1,0.1c0.1,0,0.1,0,0.1-0.1C47.5,52.7,47.5,52.6,47.5,52.5z"/>
		<path class="st35" d="M48.2,53.7c0,0.1,0,0.1,0,0.2c0,0,0,0,0,0c0-0.1,0.1-0.1,0.1-0.2c0-0.1,0.1-0.1,0.1-0.2c0-0.1,0.1,0,0.1,0
			c0.1,0,0,0.1,0,0.1c-0.1,0.2-0.2,0.4-0.3,0.6c0,0,0,0.1-0.1,0c0,0-0.1,0-0.1-0.1c0-0.2,0-0.4,0-0.7c0,0,0,0,0-0.1
			c0.1,0,0.1,0,0.1,0.1C48.2,53.6,48.2,53.7,48.2,53.7z"/>
		<path class="st37" d="M49.1,52.5C49.2,52.6,49.2,52.6,49.1,52.5c0,0.2,0,0.1,0,0.1c-0.1,0-0.1,0-0.1,0.1c0,0,0.1,0,0.1,0
			c0,0,0.1,0,0,0.1c0,0,0,0.1-0.1,0.1c-0.1,0-0.1,0-0.2,0.2c0,0,0.1,0,0.1,0c0.1,0,0.1,0,0,0.1c0,0,0,0.1-0.1,0.1
			c-0.1,0-0.1,0-0.2,0c0,0-0.1,0,0-0.1c0-0.2,0.1-0.4,0.1-0.6c0,0,0,0,0.1,0C49,52.5,49.1,52.5,49.1,52.5z"/>
		<path class="st38" d="M47.3,53.3C47.3,53.3,47.3,53.3,47.3,53.3c0,0.1,0,0.1,0,0.1c0,0,0,0,0,0c-0.1,0-0.1,0-0.2,0.1
			c0,0,0.1,0,0.1,0c0,0,0,0,0,0.1c0,0,0,0.1-0.1,0.1c0,0,0,0,0,0c0,0-0.1,0-0.1,0c0,0,0,0.1-0.1,0.2c0.1,0,0.1,0,0.1,0
			c0,0,0,0,0,0.1c0,0,0,0.1-0.1,0.1c0,0,0,0,0,0c-0.3-0.1-0.3,0-0.2-0.3c0-0.1,0.1-0.3,0.1-0.4c0-0.1,0-0.1,0.1-0.1
			C47.1,53.3,47.2,53.3,47.3,53.3z"/>
		<path class="st38" d="M48.9,53.6C49,53.6,49,53.6,48.9,53.6c0.1,0.1,0,0.1,0,0.1c-0.1,0-0.1,0-0.2,0.1c0,0,0.1,0,0.1,0
			c0,0,0,0,0,0.1c0,0,0,0.1-0.1,0.1c0,0-0.1,0-0.1,0c0,0,0,0.1,0,0.2c0,0,0.1,0,0.1,0c0,0,0.1,0,0.1,0.1c0,0,0,0.1-0.1,0.1
			c-0.1,0-0.1,0-0.2,0c0,0-0.1,0,0-0.1c0-0.1,0.1-0.3,0.1-0.4c0-0.1,0-0.1,0-0.2c0,0,0-0.1,0.1,0C48.8,53.6,48.8,53.6,48.9,53.6z"/>
		<path class="st38" d="M45.8,53.6C45.8,53.6,45.9,53.6,45.8,53.6c0.1,0.1,0.2,0.1,0.2,0.1c0,0.1,0,0.1-0.1,0.1c-0.1,0-0.1,0-0.2,0
			c0,0-0.1,0,0-0.1c0-0.2,0.1-0.4,0.1-0.6c0,0,0,0,0.1,0c0.1,0,0.2,0,0.3,0.1c0,0,0,0.1,0,0.1c-0.1,0-0.1,0-0.2,0c0,0.1,0,0.1,0,0.1
			c0,0,0.1,0,0.1,0c0,0,0.1,0,0,0.1c0,0,0,0.1-0.1,0.1c0,0-0.1,0-0.1,0C45.8,53.5,45.8,53.5,45.8,53.6z"/>
		<path class="st36" d="M45.6,51.8C45.6,51.8,45.6,51.9,45.6,51.8c-0.1,0.2-0.3,0.4-0.2,0.7c-0.1,0-0.1,0-0.1,0c0.1-0.3,0-0.5,0-0.8
			c0.1,0,0.1,0,0.2,0.1c0,0.1,0,0.1,0,0.2c0,0,0,0,0,0C45.4,52,45.4,51.9,45.6,51.8C45.5,51.9,45.5,51.9,45.6,51.8z"/>
		<path class="st34" d="M47.4,53.9C47.4,53.9,47.4,53.9,47.4,53.9c0,0.1,0.1,0.1,0.2,0.1c0,0,0,0.1,0,0.1c-0.1,0-0.2,0-0.3-0.1
			c0-0.1,0-0.2,0.1-0.3c0-0.1,0-0.2,0.1-0.3c0-0.1,0-0.1,0.1-0.1C47.5,53.5,47.5,53.7,47.4,53.9z"/>
		<path class="st30" d="M47.8,54.1c0,0-0.1,0-0.1,0c0-0.1,0-0.2,0.1-0.4c0-0.1,0-0.2,0.1-0.3c0,0,0-0.1,0.1-0.1c0,0,0.1,0,0.1,0.1
			C47.9,53.7,47.9,53.9,47.8,54.1z"/>
		<path class="st39" d="M39.7,52.7c0.5-0.4,1.2-0.3,1.5,0.1c0.2,0.2,0.3,0.5,0.2,0.8c-0.7-0.1-1.4-0.3-2.1-0.4
			C39.4,53,39.5,52.8,39.7,52.7 M40.3,52.7c0.1,0,0.2,0,0.2,0c0.1,0,0.1,0,0.1-0.1c0-0.1,0-0.1-0.1-0.1c-0.2,0-0.4,0-0.6,0.1
			c-0.2,0.1-0.3,0.2-0.4,0.4c0,0,0,0.1,0,0.1c0,0,0.1,0,0.1,0c0,0,0,0,0,0C39.8,52.8,40,52.7,40.3,52.7z"/>
		<path class="st40" d="M39.9,53.6c-0.3-0.1-0.6-0.1-0.9-0.2c0-0.1,0-0.2,0.2-0.1c0.8,0.2,1.5,0.3,2.3,0.5c0.1,0,0.1,0.1,0.1,0.2
			C41.1,53.9,40.5,53.7,39.9,53.6z"/>
		<path class="st41" d="M40.6,54C40.6,54,40.6,54,40.6,54C40.6,53.9,40.6,53.9,40.6,54c0.1,0.1,0.2,0.2,0.3,0.2c0.1,0,0.2,0,0.3-0.1
			c0-0.1,0-0.1,0.1,0c-0.1,0.1-0.2,0.2-0.4,0.2C40.8,54.3,40.6,54.2,40.6,54z"/>
		<path class="st41" d="M39.9,53.8c0-0.1,0.1,0,0.1,0c-0.1,0.2-0.3,0.3-0.4,0.2c-0.2,0-0.3-0.2-0.3-0.4c0,0,0.1,0,0.1,0.1
			c0,0.1,0.1,0.2,0.2,0.3C39.7,54,39.8,53.9,39.9,53.8z"/>
		<path class="st42" d="M40.8,52.3C40.9,52.3,40.9,52.3,40.8,52.3c-0.1,0-0.3,0-0.4,0c0-0.1,0.1-0.1,0.2-0.1
			C40.7,52.1,40.8,52.1,40.8,52.3z"/>
		<path class="st41" d="M39.6,53.8c-0.1,0-0.1,0-0.1-0.1c0.1,0,0.2,0,0.3,0.1c0,0,0,0,0,0C39.7,53.8,39.6,53.8,39.6,53.8z"/>
		<path class="st41" d="M41,54c0,0,0.1,0,0.1,0c-0.1,0.1-0.2,0.1-0.3-0.1C40.9,54,40.9,54,41,54z"/>
		<path class="st43" d="M43.7,50.6c-0.1-0.3,0.1-0.5,0.3-0.6c0.2-0.1,0.4,0,0.5,0.2c0.1,0.1,0.1,0.3,0,0.5c-0.2,0.2-0.4,0.4-0.6,0.6
			C43.9,51.1,43.8,50.9,43.7,50.6 M44.2,50.8c0.2,0,0.3-0.2,0.3-0.4c0-0.2-0.2-0.3-0.4-0.3c-0.2,0-0.3,0.2-0.2,0.4
			C43.9,50.7,44,50.8,44.2,50.8z"/>
		<path class="st43" d="M46.5,53.8C46.5,53.7,46.5,53.7,46.5,53.8c0-0.2,0-0.3,0-0.5c0.1,0,0.1,0,0.1,0.1c0,0.1,0,0.2-0.1,0.3
			C46.6,53.7,46.5,53.7,46.5,53.8z"/>
		<path class="st44" d="M48.4,52.7c0-0.1,0-0.1,0-0.2c0.1,0,0.1,0,0.1,0.1c0,0.1,0,0.2-0.1,0.3c0,0.1-0.1,0.1-0.2,0
			C48.3,52.9,48.4,52.8,48.4,52.7z"/>
		<path class="st45" d="M47.9,52.7c0-0.1,0-0.1,0-0.2c0,0,0.1,0,0.1,0c0,0,0,0.1,0,0.1C48,52.6,47.9,52.7,47.9,52.7z"/>
		<path class="st42" d="M49.3,53.9c0,0.1,0,0.1-0.1,0.1c0-0.1,0-0.1,0-0.2C49.2,53.8,49.2,53.8,49.3,53.9
			C49.3,53.8,49.3,53.8,49.3,53.9z"/>
		<path class="st42" d="M49.3,52.9c0-0.1,0-0.1,0-0.2c0-0.1,0-0.1,0.1,0c0,0,0,0.1,0,0.2C49.4,53,49.4,53,49.3,52.9z"/>
		<path class="st44" d="M46.1,52.1c0.1,0.1,0,0.3,0,0.4c0,0.1-0.1,0.1-0.2,0.1c-0.1,0-0.1-0.1-0.1-0.1c0-0.1,0-0.2,0.1-0.3
			C45.9,52,46,52,46.1,52.1z"/>
		<path class="st43" d="M47.5,52.5c0,0.1,0,0.2-0.1,0.3c0,0.1-0.1,0.1-0.1,0.1c-0.1,0-0.1-0.1-0.1-0.1c0-0.1,0-0.2,0.1-0.3
			c0-0.1,0.1-0.1,0.1-0.1C47.5,52.3,47.5,52.4,47.5,52.5C47.5,52.5,47.5,52.5,47.5,52.5z"/>
		<path class="st31" d="M40.3,52.7c-0.3,0-0.5,0.2-0.6,0.4c0,0,0,0,0,0c0,0-0.1,0.1-0.1,0c0,0,0-0.1,0-0.1c0.1-0.2,0.2-0.3,0.4-0.4
			c0.2-0.1,0.4-0.1,0.6-0.1c0.1,0,0.1,0,0.1,0.1c0,0.1,0,0.1-0.1,0.1C40.5,52.7,40.4,52.7,40.3,52.7z"/>
		<path class="st31" d="M44.2,50.8c-0.2,0-0.3-0.1-0.4-0.3c0-0.2,0.1-0.3,0.2-0.4c0.2,0,0.4,0.1,0.4,0.3
			C44.5,50.6,44.4,50.8,44.2,50.8 M44,50.4c0,0.1-0.1,0.1,0,0.2c0,0.1,0.1,0.1,0.2,0.1c0.1,0,0.1-0.1,0.1-0.1c0-0.1,0-0.1-0.1-0.2
			C44.2,50.3,44.1,50.3,44,50.4z"/>
		<path class="st43" d="M44,50.4c0.1-0.1,0.1-0.1,0.2,0c0.1,0,0.1,0.1,0.1,0.2c0,0.1-0.1,0.1-0.1,0.1c-0.1,0-0.1,0-0.2-0.1
			C44,50.5,44,50.4,44,50.4z"/>
	</g>
	<g id="Calque_2_2_">
	</g>
</g>
</svg>
