<?xml version="1.0" encoding="utf-8"?>
<!-- Generator: Adobe Illustrator 24.0.0, SVG Export Plug-In . SVG Version: 6.00 Build 0)  -->
<svg version="1.1" id="Calque_1" xmlns="http://www.w3.org/2000/svg" xmlns:xlink="http://www.w3.org/1999/xlink" x="0px" y="0px"
	 viewBox="0 0 154 154" style="enable-background:new 0 0 154 154;" xml:space="preserve">
<style type="text/css">
	.st0{fill-rule:evenodd;clip-rule:evenodd;fill:#ECA4A4;}
	.st1{fill-rule:evenodd;clip-rule:evenodd;fill:#FF431E;}
	.st2{fill-rule:evenodd;clip-rule:evenodd;fill:#3B646E;}
	.st3{fill-rule:evenodd;clip-rule:evenodd;fill:#FDEEED;}
	.st4{fill-rule:evenodd;clip-rule:evenodd;fill:#FFFFFF;}
	.st5{fill-rule:evenodd;clip-rule:evenodd;fill:#F0C4C1;}
	.st6{fill-rule:evenodd;clip-rule:evenodd;fill:#FF5E3E;}
	.st7{fill-rule:evenodd;clip-rule:evenodd;fill:#DA260D;}
	.st8{fill-rule:evenodd;clip-rule:evenodd;fill:#C7C6B5;}
	.st9{fill-rule:evenodd;clip-rule:evenodd;fill:#74A3A5;}
	.st10{fill-rule:evenodd;clip-rule:evenodd;fill:#528C8F;}
</style>
<path class="st0" d="M20,122.8c12.6,23.4,50.2,53.3,78.5,0.6c13.1-24.4,44.6-6,53.8-41.5c0.6-25.8-40.5-26-29.8-42.8
	C136.9,14.5,95.8-3.8,66.1,2.6C31.4,10.1,4.6,23.4,3.5,42.9c-0.7,11.7,19,15.6,15,35.4C15.5,93,12.1,108,20,122.8z"/>
<path class="st1" d="M21.3,31.4c0,2.1-1.5,80.6-1.1,91.5c0,0.7,1.3,0.7,2,0.8c5.8,0.5,31.4,0.2,57.2,0.2c26.9,0,52.8-0.2,53.4-1
	c1.2-1.7-1.2-90.5-1.2-90.5L21.3,31.4L21.3,31.4z"/>
<path class="st2" d="M29,67.6c0,0-1.1,56.2-0.3,56.2c1.2,0,25.5,0.3,26.8,0c0.6-0.1,0.2-57.3,0.2-57.3L29,67.6z"/>
<path class="st3" d="M32.2,74.7c-0.4,5.7,0.1,19.5,0.1,20.2c0,0.7,20.4,0.2,20.4,0.2l0.1-22.7c0,0-14-0.4-19.3-0.3
	C32.3,72.1,32.3,72.3,32.2,74.7z M32,97.9c0,0-0.7,19.3-0.1,19.6c0.7,0.4,20.5,0.2,20.5,0.2L52.9,98L32,97.9z"/>
<path class="st4" d="M61.1,67.5c0,0.6-0.2,11-0.3,21.5c-0.1,10.8-0.1,21.7,0.3,22.2c0.4,0.4,16.1,0.1,32,0.1
	c16.3,0,32.8,0.2,33.2-0.2c0.4-0.4,0-12.4,0-23.8c0-10.1,0.3-19.9,0.3-19.9s-52.3-1.2-56.2-0.5C66.5,67.6,61.1,67.5,61.1,67.5z"/>
<path class="st3" d="M64.6,68.4c-0.6,1-1,39.4-0.5,40c0.5,0.6,57.8,0.8,58.6-0.2c0.8-1,0.6-40.7,0-41
	C122.1,66.9,65.2,67.4,64.6,68.4"/>
<path class="st5" d="M70,104.2l2.1,0l0,4.5l2.1,0l0-4.5l8,0.1l-0.1,4.4l1.9,0l0.1-4.3l2.3,0l-0.3-2.5l-16-0.4L70,104.2z M89.8,101.8
	l-1.9,7l1.6,0l1.9-7.2L89.8,101.8z M65.6,101.5l1.6,7.2l1.6,0l-1.6-7.6L65.6,101.5z M117.2,104.3l-2.1,0l-0.1,4.4l-2.1,0l0.1-4.4
	l-7.9-0.1l-0.2,4.7l-1.8,0l0.2-4.7l-2.3,0l0.4-2.5l15.9,0.1L117.2,104.3z M98.8,101.5l1.9,7.3l-1.7,0l-1.9-7.3L98.8,101.5z
	 M121.3,102l-1.9,6.6l-1.6,0l1.9-7.1L121.3,102z"/>
<path class="st6" d="M19.4,29.2c-0.9,0.2-0.6,4.6,0,5.3c0.6,0.7,112.8,0,113.4-0.6c0.6-0.6,0.5-4.2,0.3-5
	C132.9,28.2,20,29.1,19.4,29.2"/>
<path class="st7" d="M21.2,34.6c13.5,0.4,99-0.1,110.3-0.6l0-1.7l-110.2-1C21.3,31.6,21.2,32.8,21.2,34.6z"/>
<path class="st8" d="M50.6,93.7c0,0-0.4,7.2-0.2,7.7c0.3,0.5,4.1,0.3,4.1,0.3s0-8.3-0.2-8.3C54.3,93.5,50.6,93.7,50.6,93.7z"/>
<path class="st5" d="M64.4,67l0.1,17.3l58.5,1l-0.5-21.9L64.4,67z"/>
<path class="st4" d="M92.9,67.7v42.8l2.8-0.5L96,67.7H92.9z"/>
<path class="st9" d="M14.7,62.3l0.1,3c0,2,1.2,3.8,3.1,4.4c0.5,0.2,1.1,0.2,1.8,0.2c1.6-0.2,4.3-2.4,4.3-2.4s1.3,2.6,3.5,2.6
	c2.2,0,4.7-2.7,4.7-2.7s1.9,3.4,4.3,3.4c2.5,0,6-3.3,6-3.3s0.8,2.8,3.2,3.1c2.4,0.3,4.7-2.5,4.7-2.5s1.8,2.9,4.2,2.8
	c2.1-0.1,5.1-3.5,5.1-3.5s2.4,3.1,4,3.2c1.6,0,4.7-2.7,4.7-2.7s0.8,3.4,3.5,3.2c2.7-0.2,5.5-3,5.5-3s2.4,3.4,4,3.2
	c1.6-0.3,4.9-3,4.9-3s3.6,3.2,5.9,2.9c1.9-0.2,3.4-1.9,4.2-3c0.8,0.8,2.2,2.1,4.2,1.8c1.6-0.2,4.3-2.4,4.3-2.4s1.3,2.6,3.5,2.6
	c2.2,0,4.7-2.7,4.7-2.7s1.9,3.4,4.3,3.4c2.5,0,6-3.3,6-3.3s0.8,2.8,3.2,3.1c2.4,0.3,4.7-2.5,4.7-2.5s1.4,2.6,3.7,2.6
	c2.1-0.1,3.4-1.3,3.3-3.6c-0.1-1.4-1-7.3-1-7.3L14.7,62.3z"/>
<path class="st9" d="M17.8,45c-0.4,0.7-3.7,17.6-2.9,18.1c0.8,0.5,7.2,0,17.7-0.1c18.5-0.2,45.4-0.2,54,0
	c15.1,0.3,50.6,0.2,50.9-0.6c0.3-0.8-2.2-17.4-2.8-17.9c-0.7-0.5-18.1-0.2-18.1-0.2l-72.9,0.5C43.7,44.8,18.2,44.3,17.8,45z"/>
<path class="st10" d="M14.8,62.3c0,0.4,0,0.7,0.1,0.8c0.8,0.5,7.2,0,17.7-0.1c18.5-0.2,45.4-0.2,54,0c15.1,0.3,50.6,0.2,50.9-0.6
	c0.1-0.2,0-1.1-0.1-2.5L14.8,62.3L14.8,62.3z"/>
</svg>
